<svg width="20" height="20" viewBox="0 0 20 20" fill="none" xmlns="http://www.w3.org/2000/svg">
<g clip-path="url(#clip0_429_1572)">
<rect width="20" height="20" fill="#00AFCA"/>
<path d="M10.1788 11.1544C11.5198 11.1544 12.6069 10.0807 12.6069 8.75629C12.6069 7.43183 11.5198 6.35814 10.1788 6.35814C8.83775 6.35814 7.75064 7.43183 7.75064 8.75629C7.75064 10.0807 8.83775 11.1544 10.1788 11.1544Z" fill="#FEC50C"/>
<path d="M10.1792 6.03382C10.3236 6.03011 10.378 5.94123 10.378 5.83382C10.378 5.69123 10.1792 5.0116 10.1792 5.0116C10.1792 5.0116 9.98047 5.69123 9.98047 5.83382C9.98234 5.94123 10.0348 6.03382 10.1792 6.03382Z" fill="#FEC50C"/>
<path d="M12.9378 8.75617C12.9378 8.89876 13.0278 8.95247 13.1366 8.95247C13.281 8.95247 13.9672 8.75617 13.9672 8.75617C13.9672 8.75617 13.281 8.55988 13.1366 8.55988C13.0278 8.56173 12.9378 8.61358 12.9378 8.75617Z" fill="#FEC50C"/>
<path d="M10.1792 11.4822C10.0348 11.4822 9.98047 11.5711 9.98047 11.6785C9.98047 11.8211 10.1792 12.4989 10.1792 12.4989C10.1792 12.4989 10.378 11.8211 10.378 11.6785C10.378 11.5711 10.3236 11.4822 10.1792 11.4822Z" fill="#FEC50C"/>
<path d="M7.42424 8.75617C7.42424 8.61358 7.33424 8.55988 7.22549 8.55988C7.08112 8.55988 6.39487 8.75617 6.39487 8.75617C6.39487 8.75617 7.08112 8.95247 7.22549 8.95247C7.32862 8.95247 7.42424 8.89876 7.42424 8.75617Z" fill="#FEC50C"/>
<path d="M11.2372 6.24123C11.3703 6.29493 11.4566 6.23012 11.4978 6.13382C11.5522 6.00234 11.6309 5.30049 11.6309 5.30049C11.6309 5.30049 11.1828 5.85234 11.1303 5.98382C11.0891 6.08012 11.1041 6.18382 11.2372 6.24123Z" fill="#FEC50C"/>
<path d="M12.7312 9.80049C12.6769 9.93197 12.7425 10.0172 12.84 10.0579C12.9731 10.1116 13.6837 10.1894 13.6837 10.1894C13.6837 10.1894 13.125 9.74679 12.9919 9.69493C12.8887 9.65419 12.7856 9.66901 12.7312 9.80049Z" fill="#FEC50C"/>
<path d="M9.12749 11.273C8.99436 11.2193 8.90811 11.2841 8.86686 11.3804C8.81248 11.5119 8.73373 12.2137 8.73373 12.2137C8.73373 12.2137 9.18186 11.6619 9.23436 11.5304C9.27561 11.4322 9.26061 11.3304 9.12749 11.273Z" fill="#FEC50C"/>
<path d="M7.63214 7.71375C7.68651 7.58227 7.62089 7.49708 7.52338 7.45634C7.39026 7.40264 6.67963 7.32486 6.67963 7.32486C6.67963 7.32486 7.23838 7.76745 7.37151 7.8193C7.47088 7.86005 7.57776 7.84523 7.63214 7.71375Z" fill="#FEC50C"/>
<path d="M12.1303 6.8304C12.2353 6.9304 12.3365 6.90447 12.4115 6.8304C12.5128 6.7304 12.8596 6.11003 12.8596 6.11003C12.8596 6.11003 12.2315 6.45262 12.1303 6.55262C12.0553 6.6267 12.029 6.7304 12.1303 6.8304Z" fill="#FEC50C"/>
<path d="M12.1303 10.684C12.029 10.7877 12.0553 10.8877 12.1303 10.9618C12.2315 11.0618 12.8596 11.4044 12.8596 11.4044C12.8596 11.4044 12.5128 10.784 12.4115 10.684C12.3365 10.6099 12.2315 10.5803 12.1303 10.684Z" fill="#FEC50C"/>
<path d="M8.23099 10.6842C8.12599 10.5842 8.02474 10.6102 7.94974 10.6842C7.84849 10.7842 7.50162 11.4046 7.50162 11.4046C7.50162 11.4046 8.12974 11.062 8.23099 10.962C8.30786 10.8879 8.33224 10.7842 8.23099 10.6842Z" fill="#FEC50C"/>
<path d="M8.23099 6.8304C8.33224 6.7267 8.30599 6.6267 8.23099 6.55262C8.12974 6.45262 7.50162 6.11003 7.50162 6.11003C7.50162 6.11003 7.84849 6.7304 7.94974 6.8304C8.02661 6.90447 8.12786 6.93225 8.23099 6.8304Z" fill="#FEC50C"/>
<path d="M12.7301 7.71359C12.7883 7.84507 12.8933 7.85989 12.9908 7.821C13.1239 7.7673 13.6826 7.32655 13.6826 7.32655C13.6826 7.32655 12.972 7.40433 12.8389 7.45804C12.7376 7.49878 12.672 7.58026 12.7301 7.71359Z" fill="#FEC50C"/>
<path d="M11.2346 11.273C11.1015 11.3304 11.0865 11.4341 11.1258 11.5304C11.1802 11.6619 11.6265 12.2137 11.6265 12.2137C11.6265 12.2137 11.5477 11.5119 11.4933 11.3804C11.4521 11.2841 11.3677 11.2193 11.2346 11.273Z" fill="#FEC50C"/>
<path d="M7.63213 9.80075C7.574 9.66927 7.469 9.65445 7.3715 9.69334C7.23838 9.74704 6.67963 10.1878 6.67963 10.1878C6.67963 10.1878 7.39025 10.11 7.52338 10.0563C7.62463 10.0156 7.6865 9.93223 7.63213 9.80075Z" fill="#FEC50C"/>
<path d="M9.12561 6.24123C9.25874 6.18382 9.27374 6.08012 9.23436 5.98382C9.17999 5.85234 8.73373 5.30049 8.73373 5.30049C8.73373 5.30049 8.81249 6.00234 8.86686 6.13382C8.90436 6.23012 8.99061 6.29493 9.12561 6.24123Z" fill="#FEC50C"/>
<path d="M10.7202 6.08405C10.8608 6.10813 10.9339 6.03405 10.9546 5.92664C10.9827 5.78775 10.9227 5.0822 10.9227 5.0822C10.9227 5.0822 10.5946 5.70998 10.5664 5.84887C10.5439 5.95627 10.5758 6.05627 10.7202 6.08405Z" fill="#FEC50C"/>
<path d="M12.8855 9.28764C12.8611 9.42653 12.9361 9.49875 13.0448 9.51912C13.1855 9.5469 13.8999 9.48764 13.8999 9.48764C13.8999 9.48764 13.2642 9.16357 13.1236 9.13579C13.0167 9.11357 12.9155 9.14875 12.8855 9.28764Z" fill="#FEC50C"/>
<path d="M9.6429 11.4283C9.50228 11.4042 9.42916 11.4783 9.40853 11.5857C9.38041 11.7246 9.44041 12.4302 9.44041 12.4302C9.44041 12.4302 9.76852 11.8024 9.79665 11.6635C9.81915 11.5579 9.78352 11.4579 9.6429 11.4283Z" fill="#FEC50C"/>
<path d="M7.4776 8.22646C7.50198 8.08757 7.42698 8.01535 7.31823 7.99497C7.1776 7.9672 6.46323 8.02646 6.46323 8.02646C6.46323 8.02646 7.09885 8.35053 7.23948 8.37831C7.34823 8.40053 7.44948 8.36535 7.4776 8.22646Z" fill="#FEC50C"/>
<path d="M11.7133 6.49135C11.8351 6.56913 11.9289 6.52283 11.9908 6.43394C12.0695 6.31728 12.287 5.6432 12.287 5.6432C12.287 5.6432 11.7395 6.09876 11.6589 6.21728C11.6026 6.30987 11.5951 6.41172 11.7133 6.49135Z" fill="#FEC50C"/>
<path d="M12.4733 10.2711C12.3946 10.3915 12.4414 10.4841 12.5314 10.5452C12.6496 10.623 13.3321 10.8378 13.3321 10.8378C13.3321 10.8378 12.8708 10.2971 12.7508 10.2174C12.6608 10.1582 12.5521 10.1508 12.4733 10.2711Z" fill="#FEC50C"/>
<path d="M8.64992 11.0228C8.52804 10.945 8.43429 10.9913 8.37242 11.0802C8.29367 11.1969 8.07617 11.8709 8.07617 11.8709C8.07617 11.8709 8.62367 11.4154 8.70429 11.2969C8.76054 11.2043 8.76804 11.1006 8.64992 11.0228Z" fill="#FEC50C"/>
<path d="M7.88999 7.24337C7.96874 7.12299 7.92187 7.0304 7.83187 6.96929C7.71374 6.89151 7.03125 6.6767 7.03125 6.6767C7.03125 6.6767 7.4925 7.21744 7.6125 7.29707C7.7025 7.35633 7.80562 7.36374 7.88999 7.24337Z" fill="#FEC50C"/>
<path d="M12.4733 7.24341C12.5558 7.36008 12.6608 7.35822 12.7508 7.29711C12.8689 7.21934 13.3321 6.67674 13.3321 6.67674C13.3321 6.67674 12.6496 6.88971 12.5314 6.96933C12.4414 7.02859 12.3946 7.12489 12.4733 7.24341Z" fill="#FEC50C"/>
<path d="M11.714 11.0228C11.5959 11.1043 11.5977 11.208 11.6596 11.2969C11.7384 11.4136 12.2877 11.871 12.2877 11.871C12.2877 11.871 12.0721 11.1969 11.9915 11.0803C11.9315 10.9877 11.834 10.9414 11.714 11.0228Z" fill="#FEC50C"/>
<path d="M7.88999 10.2712C7.80749 10.1545 7.7025 10.1564 7.6125 10.2175C7.49437 10.2952 7.03125 10.8378 7.03125 10.8378C7.03125 10.8378 7.71374 10.6249 7.83187 10.5452C7.92187 10.486 7.96874 10.3897 7.88999 10.2712Z" fill="#FEC50C"/>
<path d="M8.64992 6.4914C8.76805 6.40992 8.76618 6.30621 8.7043 6.21732C8.62555 6.10066 8.07617 5.64325 8.07617 5.64325C8.07617 5.64325 8.2918 6.31732 8.37242 6.43399C8.43242 6.52658 8.52617 6.57288 8.64992 6.4914Z" fill="#FEC50C"/>
<path d="M12.885 8.22652C12.9131 8.36541 13.0144 8.40059 13.1194 8.38022C13.26 8.35245 13.8956 8.02837 13.8956 8.02837C13.8956 8.02837 13.1812 7.96726 13.0406 7.99689C12.9356 8.01541 12.8569 8.08763 12.885 8.22652Z" fill="#FEC50C"/>
<path d="M10.7193 11.4282C10.5787 11.456 10.543 11.556 10.5637 11.6597C10.5918 11.7986 10.9199 12.4264 10.9199 12.4264C10.9199 12.4264 10.9818 11.7208 10.9518 11.5819C10.9293 11.4782 10.8599 11.4004 10.7193 11.4282Z" fill="#FEC50C"/>
<path d="M7.47708 9.28776C7.44896 9.14887 7.34771 9.11369 7.24271 9.13406C7.10208 9.16184 6.46646 9.48591 6.46646 9.48591C6.46646 9.48591 7.18083 9.54702 7.32146 9.51739C7.42458 9.49887 7.50333 9.42665 7.47708 9.28776Z" fill="#FEC50C"/>
<path d="M9.64339 6.08379C9.78402 6.05602 9.81964 5.95602 9.79901 5.85231C9.77089 5.71342 9.44276 5.08565 9.44276 5.08565C9.44276 5.08565 9.38089 5.7912 9.41089 5.93009C9.42964 6.03379 9.50276 6.11342 9.64339 6.08379Z" fill="#FEC50C"/>
<path d="M9.74601 13.9488C9.68039 13.9525 9.62039 13.9599 9.55476 13.9803C9.47226 13.9914 9.38789 14.0191 9.30539 14.034L9.27352 14.0377L9.21539 14.0414C9.21914 14.0562 9.22289 14.0728 9.22289 14.0877C9.22289 14.1062 9.22289 14.1191 9.21539 14.134C9.21164 14.1488 9.20039 14.1617 9.19102 14.1691C9.17977 14.184 9.16664 14.1932 9.15164 14.2006C9.13664 14.208 9.11977 14.2117 9.10477 14.2117C9.08602 14.2117 9.07289 14.2117 9.05414 14.2043C9.03539 14.2006 9.02227 14.1895 9.00727 14.1766C8.98852 14.1803 8.97164 14.184 8.95664 14.1877C8.93789 14.1877 8.92477 14.1877 8.90977 14.1877C8.89102 14.184 8.87414 14.1766 8.85914 14.1691C8.84039 14.1617 8.82727 14.1543 8.81227 14.1451C8.75039 14.1803 8.68289 14.2154 8.64539 14.2765C8.62289 14.3043 8.62102 14.3377 8.61727 14.3728C8.61352 14.4154 8.62477 14.458 8.64164 14.4969C8.64914 14.508 8.65289 14.458 8.67352 14.4469C8.70914 14.4191 8.74852 14.3969 8.79164 14.3858C8.82727 14.3673 8.82352 14.3858 8.81039 14.4136C8.80664 14.4284 8.78602 14.484 8.81414 14.4562C8.93602 14.4025 9.07102 14.3914 9.20414 14.3821C9.39539 14.3636 9.58664 14.358 9.77789 14.358C9.95789 14.3617 10.1379 14.3617 10.3198 14.3691C10.406 14.3728 10.4923 14.3914 10.5766 14.3765C10.5991 14.3728 10.631 14.3691 10.6423 14.358C10.6029 14.3358 10.5598 14.3358 10.5166 14.3303H10.1716C10.0741 14.3191 9.97664 14.3191 9.88664 14.284C9.86226 14.2728 9.83976 14.2525 9.81726 14.2765C9.78164 14.2877 9.74601 14.2988 9.70851 14.2988C9.64289 14.3025 9.58289 14.2914 9.52476 14.2673C9.56789 14.2099 9.61851 14.1599 9.66164 14.1062C9.62601 14.0988 9.59039 14.0914 9.54914 14.084C9.62226 14.0488 9.68414 13.9988 9.74601 13.9488Z" fill="#FEC50C"/>
<path d="M12.5574 14.5654C12.428 14.6432 12.3267 14.5043 12.218 14.4654C12.1392 14.508 12.1317 14.6469 12.0586 14.7154C11.9724 14.8154 11.8636 14.6877 11.8711 14.5914C11.7661 14.6766 11.7117 14.8766 11.5467 14.8488C11.468 14.784 11.4061 14.6488 11.3442 14.8025C11.2936 14.8766 11.1605 14.984 11.0911 14.871C11.0686 14.771 11.0199 14.6543 10.9655 14.8099C10.9261 14.9247 10.8061 15.0062 10.688 14.9562C10.6224 14.9025 10.7386 14.7099 10.6599 14.7247C10.538 14.8025 10.4649 15.0025 10.2961 14.9877C10.2305 14.9136 10.3355 14.7877 10.2642 14.7062C10.178 14.8173 10.0842 14.9728 9.93237 14.9877C9.86112 14.9303 9.93612 14.7636 9.88924 14.7414C9.73737 14.8303 9.57612 14.9951 9.38487 14.9414C9.45987 14.6599 9.77112 14.5599 10.0336 14.5395C10.4855 14.4858 10.9599 14.5858 11.3967 14.4247C11.468 14.3821 11.6386 14.321 11.5767 14.2247C11.5224 14.1469 11.7174 14.1784 11.7361 14.0858C11.7249 13.971 11.8261 13.9858 11.9236 13.9747C12.3642 13.9562 12.7974 14.0451 13.2361 14.0636C13.268 14.2747 13.0299 14.4228 12.8424 14.3599C12.7524 14.3747 12.6155 14.1525 12.6399 14.3136C12.623 14.3969 12.638 14.508 12.5574 14.5654ZM8.81674 14.134C8.91799 14.2266 8.98924 14.1154 9.08299 14.0766C9.39987 13.9691 9.68112 13.7766 9.95674 13.5877C10.1236 13.4525 10.2661 13.2747 10.4911 13.2321C10.928 13.1006 11.3892 13.1173 11.8261 12.9969C12.158 12.5488 12.7242 12.3877 13.1967 12.1284C13.3017 12.0969 13.3449 12.0117 13.3767 11.9154C13.5567 11.634 13.8024 11.384 14.0949 11.2136C14.2317 11.1395 14.3986 11.0969 14.5524 11.1321C14.5411 11.3173 14.4342 11.4784 14.3067 11.6062C14.4117 11.6025 14.5017 11.5377 14.6105 11.5414C14.6461 11.7303 14.4417 11.8303 14.333 11.9469C14.3949 11.9617 14.6292 11.9784 14.4999 12.0395C14.3367 12.1506 14.153 12.2284 14.0011 12.3562C14.138 12.3803 14.1567 12.4099 14.0161 12.4599C13.9411 12.5099 13.793 12.5284 13.778 12.6266C13.883 12.6914 13.7311 12.7506 13.6692 12.7728C13.5567 12.7969 13.4386 12.8469 13.5867 12.934C13.5286 13.0191 13.4105 13.0377 13.3092 13.0266C13.3374 13.1228 13.3805 13.2303 13.2586 13.2728C12.9774 13.484 12.6455 13.6358 12.2911 13.671C12.7355 13.7025 13.1892 13.6247 13.568 13.3858C13.6186 13.3284 13.8774 13.2654 13.7349 13.2154C13.6655 13.1877 13.5192 13.1543 13.508 13.1043C13.7142 12.9803 13.9692 13.0228 14.1905 12.9506C14.198 12.8803 14.0236 12.9006 13.9599 12.8821C13.8042 12.8673 13.8155 12.8321 13.9636 12.8173C14.1511 12.7673 14.3649 12.7562 14.5224 12.6395C14.393 12.5784 14.2299 12.6321 14.093 12.5858C14.3274 12.4858 14.6011 12.4747 14.8111 12.3228C14.9049 12.2191 14.6892 12.2525 14.6274 12.2543C14.498 12.2766 14.4399 12.2154 14.5842 12.1617C14.8336 11.9803 15.1505 11.8617 15.3267 11.5988C15.3699 11.5377 15.4242 11.3599 15.2911 11.4247C15.1186 11.4821 14.963 11.6784 14.7642 11.6173C15.158 11.3173 15.5292 10.9766 15.7955 10.5599C15.8105 10.4395 15.6192 10.4284 15.5686 10.521C15.3155 10.7599 15.0886 11.0451 14.768 11.1951C15.0774 10.8988 15.3305 10.5543 15.5536 10.1895C15.6005 10.0821 15.7299 9.95433 15.6624 9.83396C15.5499 9.74137 15.4092 9.82655 15.353 9.93766C15.158 10.1914 15.0099 10.4858 14.7586 10.6895C14.978 10.2728 15.2067 9.83025 15.2124 9.35433C15.2124 9.25433 15.1899 9.11174 15.0567 9.13025C14.948 9.14877 14.9742 9.30803 14.9311 9.38951C14.8336 9.71729 14.7867 10.0691 14.588 10.358C14.6311 10.0914 14.7099 9.81359 14.6536 9.54507C14.6255 9.4247 14.4305 9.47655 14.4549 9.59507C14.2205 10.7673 13.4236 11.7932 12.3811 12.3877C11.9049 12.6543 11.3705 12.8266 10.8305 12.9043C10.6861 12.9358 10.5267 12.9191 10.3861 12.9654C10.0467 13.2228 9.84424 13.6488 9.41487 13.7858C9.22362 13.8784 8.97424 13.9006 8.83737 14.0747C8.82049 14.0803 8.81674 14.108 8.81674 14.134Z" fill="#FEC50C"/>
<path d="M10.0964 12.9432C10.0308 13.058 9.99516 13.1858 9.91641 13.2895C9.67078 13.0691 9.31828 13.0765 9.00703 13.0617C8.75016 13.0469 8.47266 13.0265 8.27391 12.8451C8.06391 12.6784 7.89516 12.4562 7.66454 12.321C7.45079 12.2636 7.23891 12.1932 7.07016 12.0506C6.70641 11.758 6.49641 11.321 6.14016 11.0173C6.07079 10.9488 5.99204 10.9006 5.91704 10.8432C5.84579 10.8617 5.87766 11.0136 5.78766 10.9358C5.74079 10.9006 5.61891 10.9006 5.60766 10.9469C5.71641 11.0895 5.82329 11.2506 5.84204 11.4321C5.76704 11.4395 5.63579 11.4173 5.60016 11.4432C5.69766 11.5895 5.82329 11.7173 5.96766 11.821C5.89829 11.8321 5.76141 11.8247 5.73704 11.8525C5.88141 11.9673 6.03329 12.084 6.22079 12.1117C6.26016 12.1617 6.16641 12.258 6.24329 12.3006C6.29016 12.3191 6.44204 12.3506 6.33704 12.4006C6.26579 12.4469 6.29391 12.5617 6.38391 12.558C6.44204 12.5858 6.57141 12.5932 6.58266 12.6432C6.53204 12.6932 6.37266 12.758 6.50766 12.8043C6.63329 12.8747 6.77766 12.9191 6.92579 12.9247C6.85454 12.9858 6.76266 13.021 6.68766 13.0784C7.02329 13.271 7.39454 13.3988 7.75829 13.5228C7.90266 13.5728 8.05079 13.6154 8.20266 13.6432C7.76204 13.6191 7.33641 13.4895 6.93704 13.3154C6.72704 13.2265 6.52266 13.1377 6.30891 13.0617C6.40266 13.0154 6.51141 13.0006 6.60891 12.9617C6.40641 12.9228 6.19079 12.908 6.01454 12.8006C6.04266 12.7543 6.14391 12.7506 6.20204 12.7265C6.31079 12.7025 6.37454 12.6691 6.22454 12.6617C6.07266 12.6228 5.90016 12.6395 5.76704 12.5469C5.77454 12.4932 5.91516 12.5117 5.97329 12.4895C6.04454 12.4784 6.12516 12.4673 6.18329 12.4191C5.94891 12.3228 5.64141 12.3914 5.45766 12.1877C5.41454 12.1099 5.58704 12.1728 5.63766 12.1599C5.76329 12.1599 5.89829 12.1988 6.02016 12.1488C5.67704 11.9988 5.31329 11.8636 5.05266 11.5895C5.02454 11.5469 4.93641 11.4247 5.00579 11.4117C5.20829 11.4358 5.35641 11.658 5.57204 11.6228C5.60016 11.584 5.44641 11.5228 5.40516 11.4654C5.08829 11.1988 4.78079 10.9062 4.56141 10.5562C4.54641 10.4395 4.73016 10.421 4.78079 10.5136C5.02266 10.7451 5.24204 11.0117 5.54204 11.1691C5.65079 11.2191 5.48016 11.108 5.45954 11.0691C5.18204 10.7488 4.91391 10.4136 4.72454 10.0358C4.68891 9.96728 4.63079 9.84691 4.73579 9.80802C4.84079 9.75802 4.94579 9.82654 4.99641 9.91543C5.20266 10.1728 5.35079 10.4747 5.60579 10.6858C5.39016 10.2691 5.15766 9.83025 5.15204 9.35247C5.15579 9.25987 5.16329 9.12099 5.28891 9.12469C5.39766 9.10987 5.37891 9.24136 5.41454 9.30987C5.51954 9.66173 5.56641 10.0432 5.77829 10.3543C5.73141 10.0951 5.66204 9.82284 5.70891 9.55987C5.72016 9.47469 5.81766 9.44506 5.88141 9.49876C5.93579 9.62654 5.94704 9.78024 5.99391 9.91543C6.26391 10.8339 6.87329 11.6395 7.67204 12.1821C8.32454 12.6247 9.10454 12.8914 9.89766 12.9377C9.95203 12.9358 10.0252 12.9395 10.0964 12.9432Z" fill="#FEC50C"/>
<path d="M9.08936 14.158C9.11318 14.158 9.13249 14.1389 9.13249 14.1154C9.13249 14.0919 9.11318 14.0728 9.08936 14.0728C9.06554 14.0728 9.04623 14.0919 9.04623 14.1154C9.04623 14.1389 9.06554 14.158 9.08936 14.158Z" fill="#FEC50C"/>
<path d="M9.08428 14.1304C9.0945 14.1304 9.10279 14.1221 9.10279 14.1118C9.10279 14.1016 9.0945 14.0933 9.08428 14.0933C9.07405 14.0933 9.06577 14.1016 9.06577 14.1118C9.06577 14.1221 9.07405 14.1304 9.08428 14.1304Z" fill="#FEC50C" stroke="#00AFCA" stroke-width="0.1905" stroke-miterlimit="2"/>
<path d="M2.08236 2.3926C2.08236 2.3926 1.90986 2.25001 1.85173 2.32223C1.75798 2.4389 2.14423 3.01667 2.14423 3.22038C2.14423 3.55556 1.91736 3.64445 1.63986 3.69445C1.45236 3.72223 1.14486 3.67593 1.14486 3.67593C1.20298 3.60186 1.23861 3.57593 1.33611 3.57223C1.22736 3.51853 1.12048 3.39816 1.12048 3.21297C1.12048 2.92408 1.23861 2.80741 1.23861 2.48334C1.23861 2.30556 1.09048 2.07408 1.09048 2.07408C1.35298 2.09816 1.48423 2.34075 1.41111 2.53334C1.45423 2.54075 1.48986 2.52964 1.52361 2.49816C1.54236 2.55186 1.51236 2.61297 1.47298 2.66482C1.50486 2.68334 1.53111 2.67223 1.58173 2.66112C1.57798 2.71482 1.54236 2.77593 1.46361 2.82778C1.70173 2.76667 1.84611 2.93149 1.84611 3.10186C1.84611 3.22964 1.75611 3.32223 1.66611 3.32223C1.63798 3.32223 1.59486 3.31112 1.57236 3.29445C1.55361 3.32964 1.56486 3.37593 1.58361 3.41112C1.51798 3.3926 1.47486 3.35371 1.50486 3.27593C1.45423 3.27223 1.41486 3.25371 1.38673 3.22223C1.41486 3.18704 1.45611 3.16853 1.50486 3.16853C1.46923 3.09445 1.50861 3.05186 1.57048 3.01853C1.57048 3.01853 1.53111 3.16853 1.62861 3.16853C1.67173 3.16853 1.71111 3.15371 1.71111 3.09075C1.71111 3.03704 1.66048 2.95927 1.54798 2.96297C1.43548 2.96667 1.34173 3.04075 1.34173 3.22038C1.34173 3.38519 1.47486 3.46667 1.65111 3.47038C1.81048 3.47408 1.93236 3.3889 1.93236 3.22778C1.93236 3.01112 1.61548 2.51853 1.61548 2.32593C1.61548 2.17964 1.74486 2.10186 1.87611 2.10186C2.04298 2.10186 2.18361 2.26667 2.18361 2.26667L2.08236 2.3926Z" fill="#FEC50C"/>
<path d="M2.11873 6.29834C2.11873 6.6576 1.79061 6.84278 1.53373 6.84278C1.18686 6.84278 0.999359 6.63537 0.999359 6.36871C0.999359 6.215 1.02748 6.11871 1.10061 5.97611C1.10061 5.97611 1.67436 4.80019 1.89748 4.34463C1.92561 4.28723 1.93311 4.22426 1.93311 4.12797C1.93311 3.98167 1.78873 3.8613 1.63686 3.8576C1.49998 3.85389 1.34811 3.98537 1.34811 4.13167C1.34811 4.30945 1.44186 4.39093 1.53936 4.39093C1.65748 4.39093 1.70623 4.34093 1.70623 4.25945C1.70623 4.20204 1.67811 4.17797 1.63686 4.17797C1.53561 4.17797 1.56561 4.31315 1.56561 4.31315C1.51498 4.30204 1.47186 4.25204 1.49623 4.18908C1.45686 4.18167 1.42498 4.1613 1.39498 4.13167C1.42311 4.1076 1.45311 4.08537 1.49623 4.07797C1.47186 3.99648 1.50373 3.9613 1.57498 3.94278C1.55998 3.97056 1.55998 4.00019 1.56373 4.02797C1.67248 3.99648 1.84123 4.04648 1.84123 4.23167C1.84123 4.41685 1.71186 4.57056 1.46998 4.53537C1.52811 4.56315 1.55623 4.61686 1.56373 4.68167C1.52061 4.66315 1.46998 4.66315 1.46998 4.66315C1.49811 4.71315 1.53936 4.75574 1.53561 4.85204C1.48873 4.82982 1.44936 4.79463 1.39123 4.81686C1.48123 4.99093 1.36873 5.23723 1.08748 5.29463C1.19248 5.17426 1.24311 5.04463 1.24311 4.91686C1.24311 4.50019 1.12498 4.42797 1.12498 4.13723C1.12498 4.01685 1.19061 3.88352 1.31248 3.79463V3.79834C1.22998 3.77611 1.17561 3.73723 1.14561 3.68167C1.33686 3.62797 1.61061 3.62797 1.75873 3.68908C1.92748 3.7076 2.04748 3.83908 2.08311 3.90204C2.11873 3.96685 2.18811 4.20574 2.08311 4.41871C1.97061 4.65019 1.43811 5.765 1.27498 6.115C1.23936 6.18908 1.21686 6.26871 1.21686 6.35389C1.21686 6.56686 1.41561 6.64278 1.52623 6.64278C1.65936 6.64278 1.79998 6.53908 1.79998 6.415C1.79998 6.33352 1.75686 6.28723 1.69123 6.28723C1.53936 6.28723 1.54686 6.415 1.57873 6.49834C1.48498 6.45574 1.42686 6.38167 1.44561 6.30204C1.39123 6.29463 1.34061 6.27056 1.29373 6.21686C1.32936 6.17056 1.37623 6.13537 1.44561 6.13537C1.41748 6.0113 1.49998 5.9613 1.57873 5.93167C1.55436 6.02056 1.53561 6.12797 1.69123 6.12797C1.80748 6.12797 1.89373 6.14648 1.94811 6.22056C1.95186 6.12426 1.95936 5.73908 1.95936 5.73908C1.96686 5.59648 1.76436 5.60019 1.63498 5.64278C1.68186 5.47611 1.78311 5.38537 2.01373 5.4113C1.95936 5.38908 1.89748 5.33723 1.89748 5.23723C1.89748 5.10204 2.00998 4.95204 2.08123 4.90945L2.11873 6.29834Z" fill="#FEC50C"/>
<path d="M2.11873 7.38171C2.11873 7.02245 1.79061 6.83727 1.53373 6.83727C1.18686 6.83727 0.999359 7.04467 0.999359 7.31134C0.999359 7.46504 1.02748 7.56134 1.10061 7.70393C1.10061 7.70393 1.67436 8.87985 1.89748 9.33541C1.92561 9.39282 1.93311 9.45578 1.93311 9.55207C1.93311 9.69837 1.78873 9.81874 1.63686 9.82245C1.49998 9.82615 1.34811 9.69467 1.34811 9.54837C1.34811 9.37059 1.44186 9.28911 1.53936 9.28911C1.65748 9.28911 1.70623 9.33911 1.70623 9.42059C1.70623 9.478 1.67811 9.50207 1.63686 9.50207C1.53561 9.50207 1.56561 9.36689 1.56561 9.36689C1.51498 9.378 1.47186 9.428 1.49623 9.49096C1.45686 9.49837 1.42498 9.51874 1.39498 9.54837C1.42311 9.57244 1.45311 9.59467 1.49623 9.60207C1.47186 9.67985 1.50373 9.71874 1.57123 9.73356C1.55623 9.70578 1.55623 9.67615 1.55998 9.64837C1.66873 9.67985 1.83748 9.62985 1.83748 9.44467C1.83748 9.25948 1.70811 9.10578 1.46623 9.14096C1.52436 9.11319 1.55248 9.05948 1.55998 8.99467C1.51686 9.01319 1.46623 9.01319 1.46623 9.01319C1.49436 8.96319 1.53561 8.92059 1.53186 8.8243C1.48498 8.84652 1.44561 8.88171 1.38748 8.85948C1.47748 8.68541 1.36498 8.43911 1.08373 8.38171C1.18873 8.50208 1.23936 8.63171 1.23936 8.75948C1.23936 9.17615 1.12123 9.24837 1.12123 9.53911C1.12123 9.65948 1.18686 9.79281 1.30873 9.8817V9.878C1.22623 9.90022 1.17186 9.93911 1.14186 9.99467C1.33311 10.0484 1.60686 10.0484 1.75498 9.98726C1.92373 9.96874 2.04373 9.83726 2.07936 9.7743C2.11498 9.70948 2.18436 9.47059 2.07936 9.25763C1.96686 9.02615 1.43436 7.91134 1.27123 7.56134C1.23561 7.48726 1.21311 7.40763 1.21311 7.32245C1.21311 7.10949 1.41186 7.03356 1.52248 7.03356C1.65561 7.03356 1.79623 7.13726 1.79623 7.26134C1.79623 7.34282 1.75311 7.38912 1.68748 7.38912C1.53561 7.38912 1.54311 7.26134 1.57498 7.17801C1.48123 7.2206 1.42311 7.29467 1.44186 7.3743C1.38748 7.38171 1.33686 7.40578 1.28998 7.45949C1.32561 7.50578 1.37248 7.54097 1.44186 7.54097C1.41373 7.66504 1.49623 7.71504 1.57498 7.74467C1.55061 7.65578 1.53186 7.54837 1.68748 7.54837C1.80373 7.54837 1.88998 7.52986 1.94436 7.45578C1.94811 7.55208 1.95561 7.93726 1.95561 7.93726C1.96311 8.07986 1.76061 8.07615 1.63123 8.03356C1.67811 8.20023 1.77936 8.29097 2.00998 8.26504C1.95561 8.28726 1.89373 8.33911 1.89373 8.43911C1.89373 8.5743 2.00623 8.7243 2.07748 8.76689L2.11873 7.38171Z" fill="#FEC50C"/>
<path d="M2.08154 2.39265C2.08154 2.39265 2.25404 2.25006 2.31216 2.32228C2.40591 2.43895 2.01966 3.01672 2.01966 3.22043C2.01966 3.55561 2.24654 3.6445 2.52404 3.6945C2.71154 3.72598 3.01529 3.67969 3.01529 3.67969C2.95716 3.60561 2.92154 3.57969 2.82404 3.57598C2.93279 3.52228 3.03966 3.40191 3.03966 3.21672C3.03966 2.92783 2.92154 2.81117 2.92154 2.48709C2.92154 2.30932 3.06966 2.07784 3.06966 2.07784C2.80716 2.10191 2.67591 2.3445 2.74904 2.53709C2.70591 2.5445 2.67029 2.53339 2.63654 2.50191C2.62154 2.55561 2.65154 2.61672 2.69466 2.66858C2.66279 2.68709 2.63654 2.67598 2.58591 2.66487C2.58966 2.71858 2.62529 2.77969 2.70404 2.83154C2.46591 2.77043 2.32154 2.93524 2.32154 3.10561C2.32154 3.23339 2.41154 3.32598 2.50154 3.32598C2.52966 3.32598 2.57279 3.31487 2.59529 3.2982C2.61404 3.33339 2.60279 3.37969 2.58404 3.41487C2.64966 3.39635 2.69279 3.35746 2.66279 3.27969C2.71341 3.27598 2.75279 3.25746 2.78091 3.22598C2.75279 3.1908 2.71154 3.17228 2.66279 3.17228C2.69841 3.0982 2.65904 3.05561 2.59716 3.02228C2.59716 3.02228 2.63654 3.17228 2.53904 3.17228C2.49591 3.17228 2.45654 3.15746 2.45654 3.0945C2.45654 3.0408 2.50716 2.96302 2.61966 2.96672C2.73216 2.97043 2.82591 3.0445 2.82591 3.22413C2.82591 3.38895 2.69279 3.47043 2.51654 3.47413C2.35716 3.47783 2.23529 3.39265 2.23529 3.23154C2.23529 3.01487 2.55216 2.52228 2.55216 2.32969C2.55216 2.18339 2.42279 2.10561 2.29154 2.10561C2.12466 2.10561 1.98404 2.27043 1.98404 2.27043L2.08154 2.39265Z" fill="#FEC50C"/>
<path d="M2.04589 6.2981C2.04589 6.65736 2.37401 6.84254 2.63089 6.84254C2.97776 6.84254 3.16526 6.63514 3.16526 6.36847C3.16526 6.21477 3.13714 6.11847 3.06401 5.97588C3.06401 5.97588 2.49026 4.79995 2.26714 4.34439C2.23901 4.28699 2.23151 4.22402 2.23151 4.12773C2.23151 3.98143 2.37589 3.86106 2.52776 3.85736C2.66464 3.85365 2.81651 3.98513 2.81651 4.13143C2.81651 4.30921 2.72276 4.39069 2.62526 4.39069C2.50714 4.39069 2.45839 4.34069 2.45839 4.25921C2.45839 4.2018 2.48651 4.17773 2.52776 4.17773C2.62901 4.17773 2.59901 4.31291 2.59901 4.31291C2.64964 4.3018 2.69276 4.2518 2.66839 4.18884C2.70776 4.18143 2.73964 4.16106 2.76964 4.13143C2.74151 4.10736 2.71151 4.08513 2.66839 4.07773C2.69276 3.99995 2.66089 3.96106 2.59339 3.94624C2.60839 3.97402 2.60839 4.00365 2.60464 4.03143C2.49589 3.99995 2.32714 4.04995 2.32714 4.23513C2.32714 4.42032 2.45651 4.57402 2.69839 4.53884C2.64026 4.56662 2.61214 4.62032 2.60464 4.68513C2.64776 4.66662 2.69839 4.66662 2.69839 4.66662C2.67026 4.71662 2.62901 4.75921 2.63276 4.85551C2.67964 4.83328 2.71901 4.7981 2.77714 4.82032C2.68714 4.99439 2.79964 5.24069 3.08089 5.2981C2.97589 5.17773 2.92526 5.0481 2.92526 4.92032C2.92526 4.50365 3.04339 4.43143 3.04339 4.14069C3.04339 4.02032 2.97776 3.88699 2.85589 3.7981V3.8018C2.93839 3.77958 2.99276 3.74069 3.02276 3.68513C2.83151 3.63143 2.55776 3.63143 2.40964 3.69254C2.24089 3.71106 2.12089 3.84254 2.08526 3.9055C2.04964 3.97032 1.98026 4.20921 2.08526 4.42217C2.19776 4.65365 2.73026 5.76847 2.89339 6.11847C2.92901 6.19254 2.95151 6.27217 2.95151 6.35736C2.95151 6.57032 2.75276 6.64625 2.64214 6.64625C2.50901 6.64625 2.36839 6.54254 2.36839 6.41847C2.36839 6.33699 2.41151 6.29069 2.47714 6.29069C2.62901 6.29069 2.62151 6.41847 2.58964 6.5018C2.68339 6.45921 2.74151 6.38514 2.72276 6.30551C2.77714 6.2981 2.82776 6.27402 2.87464 6.22032C2.83901 6.17402 2.79214 6.13884 2.72276 6.13884C2.75089 6.01477 2.66839 5.96477 2.58964 5.93514C2.61401 6.02402 2.63276 6.13143 2.47714 6.13143C2.36089 6.13143 2.27464 6.14995 2.22026 6.22402C2.21651 6.12773 2.20901 5.74254 2.20901 5.74254C2.20151 5.59995 2.40401 5.60365 2.53339 5.64625C2.48651 5.47958 2.38526 5.38884 2.15464 5.41476C2.20901 5.39254 2.27089 5.34069 2.27089 5.24069C2.27089 5.1055 2.15839 4.9555 2.08714 4.91291L2.04589 6.2981Z" fill="#FEC50C"/>
<path d="M2.04589 7.38171C2.04589 7.02245 2.37401 6.83727 2.63089 6.83727C2.97776 6.83727 3.16526 7.04467 3.16526 7.31134C3.16526 7.46504 3.13714 7.56134 3.06401 7.70393C3.06401 7.70393 2.49026 8.87985 2.26714 9.33541C2.23901 9.39282 2.23151 9.45578 2.23151 9.55207C2.23151 9.69837 2.37589 9.81874 2.52776 9.82245C2.66464 9.82615 2.81651 9.69467 2.81651 9.54837C2.81651 9.37059 2.72276 9.28911 2.62526 9.28911C2.50714 9.28911 2.45839 9.33911 2.45839 9.42059C2.45839 9.478 2.48651 9.50207 2.52776 9.50207C2.62901 9.50207 2.59901 9.36689 2.59901 9.36689C2.64964 9.378 2.69276 9.428 2.66839 9.49096C2.70776 9.49837 2.73964 9.51874 2.76964 9.54837C2.74151 9.57244 2.71151 9.59467 2.66839 9.60207C2.69276 9.67985 2.66089 9.71874 2.59339 9.73356C2.60839 9.70578 2.60839 9.67615 2.60464 9.64837C2.49589 9.67985 2.32714 9.62985 2.32714 9.44467C2.32714 9.25948 2.45651 9.10578 2.69839 9.14096C2.64026 9.11319 2.61214 9.05948 2.60464 8.99467C2.64776 9.01319 2.69839 9.01319 2.69839 9.01319C2.67026 8.96319 2.62901 8.92059 2.63276 8.8243C2.67964 8.84652 2.71901 8.88171 2.77714 8.85948C2.68714 8.68541 2.79964 8.43911 3.08089 8.38171C2.97589 8.50208 2.92526 8.63171 2.92526 8.75948C2.92526 9.17615 3.04339 9.24837 3.04339 9.53911C3.04339 9.65948 2.97776 9.79281 2.85589 9.8817V9.878C2.93839 9.90022 2.99276 9.93911 3.02276 9.99467C2.83151 10.0484 2.55776 10.0484 2.40964 9.98726C2.24089 9.96874 2.12089 9.83726 2.08526 9.7743C2.04964 9.70948 1.98026 9.47059 2.08526 9.25763C2.19776 9.02615 2.73026 7.91134 2.89339 7.56134C2.92901 7.48726 2.95151 7.40763 2.95151 7.32245C2.95151 7.10949 2.75276 7.03356 2.64214 7.03356C2.50901 7.03356 2.36839 7.13726 2.36839 7.26134C2.36839 7.34282 2.41151 7.38912 2.47714 7.38912C2.62901 7.38912 2.62151 7.26134 2.58964 7.17801C2.68339 7.2206 2.74151 7.29467 2.72276 7.3743C2.77714 7.38171 2.82776 7.40578 2.87464 7.45949C2.83901 7.50578 2.79214 7.54097 2.72276 7.54097C2.75089 7.66504 2.66839 7.71504 2.58964 7.74467C2.61401 7.65578 2.63276 7.54837 2.47714 7.54837C2.36089 7.54837 2.27464 7.52986 2.22026 7.45578C2.21651 7.55208 2.20901 7.93726 2.20901 7.93726C2.20151 8.07986 2.40401 8.07615 2.53339 8.03356C2.48651 8.20023 2.38526 8.29097 2.15464 8.26504C2.20901 8.28726 2.27089 8.33911 2.27089 8.43911C2.27089 8.5743 2.15839 8.7243 2.08714 8.76689L2.04589 7.38171Z" fill="#FEC50C"/>
<path d="M2.08188 17.6074C2.08188 17.6074 1.90938 17.75 1.85125 17.6777C1.7575 17.5611 2.14375 16.9833 2.14375 16.7796C2.14375 16.4444 1.91688 16.3555 1.63938 16.3055C1.45188 16.274 1.14812 16.3203 1.14812 16.3203C1.20625 16.3944 1.24188 16.4203 1.33938 16.424C1.23063 16.4777 1.12375 16.5981 1.12375 16.7833C1.12375 17.0722 1.24187 17.1889 1.24187 17.5129C1.24187 17.6907 1.09375 17.9222 1.09375 17.9222C1.35625 17.8981 1.4875 17.6555 1.41438 17.4629C1.4575 17.4555 1.49313 17.4666 1.52688 17.4981C1.54563 17.4444 1.51562 17.3833 1.47625 17.3315C1.50812 17.3129 1.53438 17.324 1.585 17.3352C1.58125 17.2815 1.54562 17.2203 1.46687 17.1685C1.705 17.2296 1.84938 17.0648 1.84938 16.8944C1.84938 16.7666 1.75938 16.674 1.66938 16.674C1.64125 16.674 1.59813 16.6852 1.57563 16.7018C1.55688 16.6666 1.56813 16.6203 1.58687 16.5852C1.52125 16.6037 1.47813 16.6426 1.50813 16.7203C1.4575 16.724 1.41813 16.7426 1.39 16.774C1.41813 16.8092 1.45938 16.8277 1.50813 16.8277C1.4725 16.9018 1.51188 16.9444 1.57375 16.9777C1.57375 16.9777 1.53438 16.8277 1.63188 16.8277C1.675 16.8277 1.71438 16.8426 1.71438 16.9055C1.71438 16.9592 1.66375 17.037 1.55125 17.0333C1.43875 17.0296 1.345 16.9555 1.345 16.7759C1.345 16.6111 1.47812 16.5296 1.65437 16.5259C1.81375 16.5222 1.93563 16.6074 1.93563 16.7685C1.93563 16.9852 1.61875 17.4777 1.61875 17.6703C1.61875 17.8166 1.74812 17.8944 1.87937 17.8944C2.04625 17.8944 2.18687 17.7296 2.18687 17.7296L2.08188 17.6074Z" fill="#FEC50C"/>
<path d="M2.11873 13.7018C2.11873 13.3425 1.79061 13.1573 1.53373 13.1573C1.18686 13.1573 0.999359 13.3648 0.999359 13.6314C0.999359 13.7851 1.02748 13.8814 1.10061 14.024C1.10061 14.024 1.67436 15.1999 1.89748 15.6555C1.92561 15.7129 1.93311 15.7759 1.93311 15.8722C1.93311 16.0185 1.78873 16.1388 1.63686 16.1425C1.49998 16.1462 1.34811 16.0148 1.34811 15.8685C1.34811 15.6907 1.44186 15.6092 1.53936 15.6092C1.65748 15.6092 1.70623 15.6592 1.70623 15.7407C1.70623 15.7981 1.67811 15.8222 1.63686 15.8222C1.53561 15.8222 1.56561 15.687 1.56561 15.687C1.51498 15.6981 1.47186 15.7481 1.49623 15.811C1.45686 15.8185 1.42498 15.8388 1.39498 15.8685C1.42311 15.8925 1.45311 15.9148 1.49623 15.9222C1.47186 15.9999 1.50373 16.0388 1.57123 16.0536C1.55623 16.0259 1.55623 15.9962 1.55998 15.9685C1.66873 15.9999 1.83748 15.9499 1.83748 15.7648C1.83748 15.5796 1.70811 15.4259 1.46623 15.461C1.52436 15.4333 1.55248 15.3796 1.55998 15.3148C1.51686 15.3333 1.46623 15.3333 1.46623 15.3333C1.49436 15.2833 1.53561 15.2407 1.53186 15.1444C1.48498 15.1666 1.44561 15.2018 1.38748 15.1796C1.47748 15.0055 1.36498 14.7592 1.08373 14.7018C1.18873 14.8222 1.23936 14.9518 1.23936 15.0796C1.23936 15.4962 1.12123 15.5685 1.12123 15.8592C1.12123 15.9796 1.18686 16.1129 1.30873 16.2018V16.1981C1.22623 16.2203 1.17186 16.2592 1.14186 16.3148C1.33311 16.3685 1.60686 16.3685 1.75498 16.3073C1.92373 16.2888 2.04373 16.1573 2.07936 16.0944C2.11498 16.0296 2.18436 15.7907 2.07936 15.5777C1.96686 15.3462 1.43436 14.2314 1.27123 13.8814C1.23561 13.8073 1.21311 13.7277 1.21311 13.6425C1.21311 13.4296 1.41186 13.3536 1.52248 13.3536C1.65561 13.3536 1.79623 13.4573 1.79623 13.5814C1.79623 13.6629 1.75311 13.7092 1.68748 13.7092C1.53561 13.7092 1.54311 13.5814 1.57498 13.4981C1.48123 13.5407 1.42311 13.6148 1.44186 13.6944C1.38748 13.7018 1.33686 13.7259 1.28998 13.7796C1.32561 13.8259 1.37248 13.8611 1.44186 13.8611C1.41373 13.9851 1.49623 14.0351 1.57498 14.0648C1.55061 13.9759 1.53186 13.8685 1.68748 13.8685C1.80373 13.8685 1.88998 13.8499 1.94436 13.7759C1.94811 13.8722 1.95561 14.2573 1.95561 14.2573C1.96311 14.3999 1.76061 14.3962 1.63123 14.3536C1.67811 14.5203 1.77936 14.611 2.00998 14.5851C1.95561 14.6073 1.89373 14.6592 1.89373 14.7592C1.89373 14.8944 2.00623 15.0444 2.07748 15.087L2.11873 13.7018Z" fill="#FEC50C"/>
<path d="M2.11873 12.6186C2.11873 12.9778 1.79061 13.163 1.53373 13.163C1.18686 13.163 0.999359 12.9556 0.999359 12.689C0.999359 12.5353 1.02748 12.439 1.10061 12.2964C1.10061 12.2964 1.67436 11.1204 1.89748 10.6649C1.92561 10.6075 1.93311 10.5445 1.93311 10.4482C1.93311 10.3019 1.78873 10.1816 1.63686 10.1779C1.49998 10.1741 1.34811 10.3056 1.34811 10.4519C1.34811 10.6297 1.44186 10.7112 1.53936 10.7112C1.65748 10.7112 1.70623 10.6612 1.70623 10.5797C1.70623 10.5223 1.67811 10.4982 1.63686 10.4982C1.53561 10.4982 1.56561 10.6334 1.56561 10.6334C1.51498 10.6223 1.47186 10.5723 1.49623 10.5093C1.45686 10.5019 1.42498 10.4816 1.39498 10.4519C1.42311 10.4279 1.45311 10.4056 1.49623 10.3982C1.47186 10.3204 1.50373 10.2816 1.57123 10.2667C1.55623 10.2945 1.55623 10.3241 1.55998 10.3519C1.66873 10.3204 1.83748 10.3704 1.83748 10.5556C1.83748 10.7408 1.70811 10.8945 1.46623 10.8593C1.52436 10.8871 1.55248 10.9408 1.55998 11.0056C1.51686 10.9871 1.46623 10.9871 1.46623 10.9871C1.49436 11.0371 1.53561 11.0797 1.53186 11.176C1.48498 11.1538 1.44561 11.1186 1.38748 11.1408C1.47748 11.3149 1.36498 11.5612 1.08373 11.6186C1.18873 11.4982 1.23936 11.3686 1.23936 11.2408C1.23936 10.8241 1.12123 10.7519 1.12123 10.4612C1.12123 10.3408 1.18686 10.2075 1.30873 10.1186V10.1223C1.22623 10.1001 1.17186 10.0612 1.14186 10.0056C1.33311 9.95193 1.60686 9.95193 1.75498 10.013C1.92373 10.0316 2.04373 10.163 2.07936 10.226C2.11498 10.2908 2.18436 10.5297 2.07936 10.7427C1.96686 10.9741 1.43436 12.089 1.27123 12.439C1.23561 12.513 1.21311 12.5927 1.21311 12.6778C1.21311 12.8908 1.41186 12.9667 1.52248 12.9667C1.65561 12.9667 1.79623 12.863 1.79623 12.739C1.79623 12.6575 1.75311 12.6112 1.68748 12.6112C1.53561 12.6112 1.54311 12.739 1.57498 12.8223C1.48123 12.7797 1.42311 12.7056 1.44186 12.626C1.38748 12.6186 1.33686 12.5945 1.28998 12.5408C1.32561 12.4945 1.37248 12.4593 1.44186 12.4593C1.41373 12.3353 1.49623 12.2853 1.57498 12.2556C1.55061 12.3445 1.53186 12.4519 1.68748 12.4519C1.80373 12.4519 1.88998 12.4704 1.94436 12.5445C1.94811 12.4482 1.95561 12.063 1.95561 12.063C1.96311 11.9204 1.76061 11.9241 1.63123 11.9667C1.67811 11.8001 1.77936 11.7093 2.00998 11.7353C1.95561 11.713 1.89373 11.6612 1.89373 11.5612C1.89373 11.426 2.00623 11.276 2.07748 11.2334L2.11873 12.6186Z" fill="#FEC50C"/>
<path d="M2.08092 17.6074C2.08092 17.6074 2.25342 17.75 2.31155 17.6777C2.4053 17.5611 2.01905 16.9833 2.01905 16.7796C2.01905 16.4444 2.24592 16.3555 2.52342 16.3055C2.71092 16.274 3.01467 16.3203 3.01467 16.3203C2.95655 16.3944 2.92092 16.4203 2.82342 16.424C2.93217 16.4777 3.03905 16.5981 3.03905 16.7833C3.03905 17.0722 2.92092 17.1889 2.92092 17.5129C2.92092 17.6907 3.06905 17.9222 3.06905 17.9222C2.80655 17.8981 2.6753 17.6555 2.74842 17.4629C2.7053 17.4555 2.66967 17.4666 2.63592 17.4981C2.61717 17.4444 2.64717 17.3833 2.68655 17.3315C2.65467 17.3129 2.62842 17.324 2.5778 17.3352C2.58155 17.2815 2.61717 17.2203 2.69592 17.1685C2.4578 17.2296 2.31342 17.0648 2.31342 16.8944C2.31342 16.7666 2.40342 16.674 2.49342 16.674C2.52155 16.674 2.56467 16.6852 2.58717 16.7018C2.60592 16.6666 2.59467 16.6203 2.57592 16.5852C2.64155 16.6037 2.68467 16.6426 2.65467 16.7203C2.7053 16.724 2.74467 16.7426 2.7728 16.774C2.74467 16.8092 2.70342 16.8277 2.65467 16.8277C2.6903 16.9018 2.65092 16.9444 2.58905 16.9777C2.58905 16.9777 2.62842 16.8277 2.53092 16.8277C2.4878 16.8277 2.44842 16.8426 2.44842 16.9055C2.44842 16.9592 2.49905 17.037 2.61155 17.0333C2.72405 17.0296 2.8178 16.9555 2.8178 16.7759C2.8178 16.6111 2.68467 16.5296 2.50842 16.5259C2.34905 16.5222 2.22717 16.6074 2.22717 16.7685C2.22717 16.9852 2.54405 17.4777 2.54405 17.6703C2.54405 17.8166 2.41467 17.8944 2.28342 17.8944C2.11655 17.8944 1.97592 17.7296 1.97592 17.7296L2.08092 17.6074Z" fill="#FEC50C"/>
<path d="M2.04589 13.7018C2.04589 13.3425 2.37401 13.1573 2.63089 13.1573C2.97776 13.1573 3.16526 13.3648 3.16526 13.6314C3.16526 13.7851 3.13714 13.8814 3.06401 14.024C3.06401 14.024 2.49026 15.1999 2.26714 15.6555C2.23901 15.7129 2.23151 15.7759 2.23151 15.8722C2.23151 16.0185 2.37589 16.1388 2.52776 16.1425C2.66464 16.1462 2.81651 16.0148 2.81651 15.8685C2.81651 15.6907 2.72276 15.6092 2.62526 15.6092C2.50714 15.6092 2.45839 15.6592 2.45839 15.7407C2.45839 15.7981 2.48651 15.8222 2.52776 15.8222C2.62901 15.8222 2.59901 15.687 2.59901 15.687C2.64964 15.6981 2.69276 15.7481 2.66839 15.811C2.70776 15.8185 2.73964 15.8388 2.76964 15.8685C2.74151 15.8925 2.71151 15.9148 2.66839 15.9222C2.69276 15.9999 2.66089 16.0388 2.59339 16.0536C2.60839 16.0259 2.60839 15.9962 2.60464 15.9685C2.49589 15.9999 2.32714 15.9499 2.32714 15.7648C2.32714 15.5796 2.45651 15.4259 2.69839 15.461C2.64026 15.4333 2.61214 15.3796 2.60464 15.3148C2.64776 15.3333 2.69839 15.3333 2.69839 15.3333C2.67026 15.2833 2.62901 15.2407 2.63276 15.1444C2.67964 15.1666 2.71901 15.2018 2.77714 15.1796C2.68714 15.0055 2.79964 14.7592 3.08089 14.7018C2.97589 14.8222 2.92526 14.9518 2.92526 15.0796C2.92526 15.4962 3.04339 15.5685 3.04339 15.8592C3.04339 15.9796 2.97776 16.1129 2.85589 16.2018V16.1981C2.93839 16.2203 2.99276 16.2592 3.02276 16.3148C2.83151 16.3685 2.55776 16.3685 2.40964 16.3073C2.24089 16.2888 2.12089 16.1573 2.08526 16.0944C2.04964 16.0296 1.98026 15.7907 2.08526 15.5777C2.19776 15.3462 2.73026 14.2314 2.89339 13.8814C2.92901 13.8073 2.95151 13.7277 2.95151 13.6425C2.95151 13.4296 2.75276 13.3536 2.64214 13.3536C2.50901 13.3536 2.36839 13.4573 2.36839 13.5814C2.36839 13.6629 2.41151 13.7092 2.47714 13.7092C2.62901 13.7092 2.62151 13.5814 2.58964 13.4981C2.68339 13.5407 2.74151 13.6148 2.72276 13.6944C2.77714 13.7018 2.82776 13.7259 2.87464 13.7796C2.83901 13.8259 2.79214 13.8611 2.72276 13.8611C2.75089 13.9851 2.66839 14.0351 2.58964 14.0648C2.61401 13.9759 2.63276 13.8685 2.47714 13.8685C2.36089 13.8685 2.27464 13.8499 2.22026 13.7759C2.21651 13.8722 2.20901 14.2573 2.20901 14.2573C2.20151 14.3999 2.40401 14.3962 2.53339 14.3536C2.48651 14.5203 2.38526 14.611 2.15464 14.5851C2.20901 14.6073 2.27089 14.6592 2.27089 14.7592C2.27089 14.8944 2.15839 15.0444 2.08714 15.087L2.04589 13.7018Z" fill="#FEC50C"/>
<path d="M2.04589 12.6186C2.04589 12.9778 2.37401 13.163 2.63089 13.163C2.97776 13.163 3.16526 12.9556 3.16526 12.689C3.16526 12.5353 3.13714 12.439 3.06401 12.2964C3.06401 12.2964 2.49026 11.1204 2.26714 10.6649C2.23901 10.6075 2.23151 10.5445 2.23151 10.4482C2.23151 10.3019 2.37589 10.1816 2.52776 10.1779C2.66464 10.1741 2.81651 10.3056 2.81651 10.4519C2.81651 10.6297 2.72276 10.7112 2.62526 10.7112C2.50714 10.7112 2.45839 10.6612 2.45839 10.5797C2.45839 10.5223 2.48651 10.4982 2.52776 10.4982C2.62901 10.4982 2.59901 10.6334 2.59901 10.6334C2.64964 10.6223 2.69276 10.5723 2.66839 10.5093C2.70776 10.5019 2.73964 10.4816 2.76964 10.4519C2.74151 10.4279 2.71151 10.4056 2.66839 10.3982C2.69276 10.3204 2.66089 10.2816 2.59339 10.2667C2.60839 10.2945 2.60839 10.3241 2.60464 10.3519C2.49589 10.3204 2.32714 10.3704 2.32714 10.5556C2.32714 10.7408 2.45651 10.8945 2.69839 10.8593C2.64026 10.8871 2.61214 10.9408 2.60464 11.0056C2.64776 10.9871 2.69839 10.9871 2.69839 10.9871C2.67026 11.0371 2.62901 11.0797 2.63276 11.176C2.67964 11.1538 2.71901 11.1186 2.77714 11.1408C2.68714 11.3149 2.79964 11.5612 3.08089 11.6186C2.97589 11.4982 2.92526 11.3686 2.92526 11.2408C2.92526 10.8241 3.04339 10.7519 3.04339 10.4612C3.04339 10.3408 2.97776 10.2075 2.85589 10.1186V10.1223C2.93839 10.1001 2.99276 10.0612 3.02276 10.0056C2.83151 9.95193 2.55776 9.95193 2.40964 10.013C2.24089 10.0316 2.12089 10.163 2.08526 10.226C2.04964 10.2908 1.98026 10.5297 2.08526 10.7427C2.19776 10.9741 2.73026 12.089 2.89339 12.439C2.92901 12.513 2.95151 12.5927 2.95151 12.6778C2.95151 12.8908 2.75276 12.9667 2.64214 12.9667C2.50901 12.9667 2.36839 12.863 2.36839 12.739C2.36839 12.6575 2.41151 12.6112 2.47714 12.6112C2.62901 12.6112 2.62151 12.739 2.58964 12.8223C2.68339 12.7797 2.74151 12.7056 2.72276 12.626C2.77714 12.6186 2.82776 12.5945 2.87464 12.5408C2.83901 12.4945 2.79214 12.4593 2.72276 12.4593C2.75089 12.3353 2.66839 12.2853 2.58964 12.2556C2.61401 12.3445 2.63276 12.4519 2.47714 12.4519C2.36089 12.4519 2.27464 12.4704 2.22026 12.5445C2.21651 12.4482 2.20901 12.063 2.20901 12.063C2.20151 11.9204 2.40401 11.9241 2.53339 11.9667C2.48651 11.8001 2.38526 11.7093 2.15464 11.7353C2.20901 11.713 2.27089 11.6612 2.27089 11.5612C2.27089 11.426 2.15839 11.276 2.08714 11.2334L2.04589 12.6186Z" fill="#FEC50C"/>
</g>
<defs>
<clipPath id="clip0_429_1572">
<rect width="20" height="20" rx="10" fill="white"/>
</clipPath>
</defs>
</svg>
