<svg width="107" height="30" viewBox="0 0 107 30" fill="none" xmlns="http://www.w3.org/2000/svg">
<g id="naimi - logo - textBlack - svg" clip-path="url(#clip0_2852_30001)">
<g id="&#208;&#184;&#208;&#186;&#208;&#190;&#208;&#189;&#208;&#186;&#208;&#176;">
<rect id="Rectangle 1" width="30.7547" height="30.1852" rx="7.59376" fill="#FFD60A"/>
<path id="naimi" d="M12.3229 19.8389C11.8663 19.8389 11.5146 19.7161 11.2677 19.4704C11.0333 19.2247 10.916 18.8746 10.916 18.4201V11.8789C10.916 11.4244 11.0333 11.0804 11.2677 10.847C11.5146 10.6013 11.8539 10.4785 12.2859 10.4785C12.7302 10.4785 13.0695 10.6013 13.304 10.847C13.5385 11.0804 13.6558 11.4244 13.6558 11.8789V12.9292L13.4521 12.3211C13.736 11.7192 14.1556 11.2585 14.7109 10.9392C15.2786 10.6075 15.9204 10.4417 16.6361 10.4417C17.3643 10.4417 17.9628 10.5829 18.4318 10.8654C18.9007 11.1357 19.2525 11.5534 19.4869 12.1184C19.7214 12.6712 19.8387 13.3775 19.8387 14.2374V18.4201C19.8387 18.8746 19.7153 19.2247 19.4684 19.4704C19.234 19.7161 18.8884 19.8389 18.4318 19.8389C17.9875 19.8389 17.6419 19.7161 17.3951 19.4704C17.1606 19.2247 17.0434 18.8746 17.0434 18.4201V14.3664C17.0434 13.7399 16.9262 13.2915 16.6917 13.0213C16.4695 12.7388 16.124 12.5975 15.655 12.5975C15.0626 12.5975 14.5875 12.7818 14.2296 13.1503C13.8841 13.5188 13.7113 14.0102 13.7113 14.6244V18.4201C13.7113 19.366 13.2485 19.8389 12.3229 19.8389Z" fill="#252742"/>
<path id="&#209;&#135;&#208;&#181;&#209;&#128;&#208;&#189;&#208;&#176;&#209;&#143; &#208;&#191;&#208;&#190;&#208;&#187;&#208;&#190;&#209;&#129;&#208;&#186;&#208;&#176;" d="M4.45161 12.7415C2.43349 23.4942 14.8076 30.7805 23.1597 22.9819" stroke="#252742" stroke-width="1.89844" stroke-linecap="round"/>
<ellipse id="Ellipse 5" cx="25.0596" cy="20.3135" rx="0.949219" ry="0.94922" fill="white"/>
<ellipse id="Ellipse 6" cx="5.41016" cy="9.68213" rx="0.949219" ry="0.94922" fill="#252742"/>
<path id="&#208;&#177;&#208;&#181;&#208;&#187;&#208;&#176;&#209;&#143; &#208;&#191;&#208;&#190;&#208;&#187;&#208;&#190;&#209;&#129;&#208;&#186;&#208;&#176;" d="M7.40332 7.25819C15.3221 -0.290683 28.1724 6.11873 26.1809 17.3708" stroke="white" stroke-width="1.89844" stroke-linecap="round"/>
</g>
<g id="naimi_2">
<path d="M44.3956 23.3941C43.7575 23.3941 43.2661 23.2221 42.9212 22.878C42.5935 22.5339 42.4297 22.0436 42.4297 21.407V12.2457C42.4297 11.6091 42.5935 11.1274 42.9212 10.8005C43.2661 10.4564 43.7403 10.2844 44.3439 10.2844C44.9647 10.2844 45.4389 10.4564 45.7666 10.8005C46.0942 11.1274 46.2581 11.6091 46.2581 12.2457V13.7167L45.9735 12.8651C46.3701 12.022 46.9565 11.3769 47.7325 10.9296C48.5258 10.4651 49.4225 10.2328 50.4227 10.2328C51.4401 10.2328 52.2765 10.4306 52.9318 10.8263C53.5871 11.2048 54.0786 11.7898 54.4063 12.5812C54.7339 13.3554 54.8977 14.3446 54.8977 15.5489V21.407C54.8977 22.0436 54.7253 22.5339 54.3804 22.878C54.0527 23.2221 53.5699 23.3941 52.9318 23.3941C52.311 23.3941 51.8282 23.2221 51.4833 22.878C51.1556 22.5339 50.9918 22.0436 50.9918 21.407V15.7296C50.9918 14.8522 50.828 14.2242 50.5003 13.8457C50.1899 13.45 49.707 13.2522 49.0517 13.2522C48.224 13.2522 47.56 13.5102 47.0599 14.0264C46.5771 14.5425 46.3357 15.2307 46.3357 16.0909V21.407C46.3357 22.7318 45.689 23.3941 44.3956 23.3941Z" fill="#252742"/>
<path d="M62.1077 23.4457C61.1764 23.4457 60.3401 23.2651 59.5985 22.9038C58.857 22.5425 58.2793 22.0522 57.8654 21.4328C57.4515 20.8135 57.2446 20.1167 57.2446 19.3425C57.2446 18.4135 57.486 17.6823 57.9689 17.1489C58.4517 16.5984 59.2364 16.2113 60.3228 15.9876C61.4092 15.7468 62.8492 15.6264 64.6427 15.6264H66.0136V17.6393H64.6685C63.789 17.6393 63.0734 17.6909 62.5215 17.7941C61.9869 17.8801 61.5989 18.035 61.3575 18.2586C61.1333 18.4823 61.0212 18.792 61.0212 19.1877C61.0212 19.6694 61.1851 20.0651 61.5127 20.3748C61.8576 20.6844 62.3491 20.8393 62.9871 20.8393C63.4872 20.8393 63.927 20.7274 64.3064 20.5038C64.703 20.2629 65.0134 19.9446 65.2376 19.5489C65.4618 19.136 65.5739 18.6715 65.5739 18.1554V15.1876C65.5739 14.4307 65.4014 13.8973 65.0565 13.5876C64.7116 13.2608 64.1253 13.0973 63.2976 13.0973C62.8319 13.0973 62.3232 13.1575 61.7714 13.278C61.2368 13.3812 60.6418 13.5618 59.9865 13.8199C59.6071 13.9919 59.2709 14.035 58.9777 13.9489C58.6845 13.8457 58.4604 13.6737 58.3052 13.4328C58.15 13.1747 58.0724 12.8995 58.0724 12.607C58.0724 12.2973 58.1586 12.0048 58.331 11.7296C58.5035 11.4371 58.788 11.222 59.1846 11.0844C59.9952 10.7575 60.7539 10.5339 61.461 10.4134C62.1853 10.293 62.8492 10.2328 63.4528 10.2328C64.7806 10.2328 65.867 10.4306 66.712 10.8263C67.5743 11.2048 68.221 11.7984 68.6521 12.607C69.0832 13.3984 69.2988 14.4221 69.2988 15.678V21.407C69.2988 22.0436 69.1436 22.5339 68.8332 22.878C68.5228 23.2221 68.0744 23.3941 67.4881 23.3941C66.9017 23.3941 66.4447 23.2221 66.1171 22.878C65.8067 22.5339 65.6515 22.0436 65.6515 21.407V20.4522L65.8326 20.607C65.7291 21.192 65.5049 21.6995 65.16 22.1296C64.8324 22.5425 64.4099 22.8694 63.8925 23.1102C63.3752 23.3339 62.7802 23.4457 62.1077 23.4457Z" fill="#252742"/>
<path d="M74.1784 23.3683C73.5403 23.3683 73.0489 23.1877 72.704 22.8264C72.3763 22.4479 72.2125 21.9231 72.2125 21.2522V12.4263C72.2125 11.7382 72.3763 11.2134 72.704 10.8521C73.0489 10.4737 73.5403 10.2844 74.1784 10.2844C74.7992 10.2844 75.2735 10.4737 75.6011 10.8521C75.946 11.2134 76.1185 11.7382 76.1185 12.4263V21.2522C76.1185 21.9231 75.9546 22.4479 75.627 22.8264C75.2993 23.1877 74.8165 23.3683 74.1784 23.3683ZM74.1784 8.16827C73.4541 8.16827 72.8937 8.00483 72.497 7.67795C72.1176 7.33386 71.9279 6.85214 71.9279 6.23278C71.9279 5.59622 72.1176 5.1145 72.497 4.78762C72.8937 4.44353 73.4541 4.27148 74.1784 4.27148C74.9027 4.27148 75.4545 4.44353 75.8339 4.78762C76.2133 5.1145 76.403 5.59622 76.403 6.23278C76.403 6.85214 76.2133 7.33386 75.8339 7.67795C75.4545 8.00483 74.9027 8.16827 74.1784 8.16827Z" fill="#252742"/>
<path d="M81.1517 23.3941C80.5136 23.3941 80.0221 23.2221 79.6772 22.878C79.3496 22.5339 79.1858 22.0436 79.1858 21.407V12.2457C79.1858 11.6091 79.3496 11.1274 79.6772 10.8005C80.0221 10.4564 80.4964 10.2844 81.0999 10.2844C81.7208 10.2844 82.195 10.4564 82.5226 10.8005C82.8503 11.1274 83.0141 11.6091 83.0141 12.2457V13.8973L82.7296 12.8651C83.0745 12.0737 83.6091 11.4371 84.3334 10.9554C85.0576 10.4737 85.9113 10.2328 86.8942 10.2328C87.8772 10.2328 88.6963 10.4651 89.3516 10.9296C90.0069 11.3941 90.4725 12.1081 90.7485 13.0715H90.3863C90.7657 12.1941 91.3434 11.5059 92.1194 11.007C92.9127 10.4909 93.8181 10.2328 94.8355 10.2328C95.8185 10.2328 96.6203 10.4306 97.2412 10.8263C97.8792 11.2048 98.3535 11.7898 98.6639 12.5812C98.9743 13.3554 99.1295 14.3446 99.1295 15.5489V21.407C99.1295 22.0436 98.957 22.5339 98.6121 22.878C98.2845 23.2221 97.8102 23.3941 97.1894 23.3941C96.5514 23.3941 96.0599 23.2221 95.715 22.878C95.3873 22.5339 95.2235 22.0436 95.2235 21.407V15.678C95.2235 14.835 95.0855 14.2242 94.8096 13.8457C94.551 13.45 94.1026 13.2522 93.4645 13.2522C92.723 13.2522 92.1453 13.5102 91.7314 14.0264C91.3175 14.5425 91.1106 15.2737 91.1106 16.2199V21.407C91.1106 22.0436 90.9382 22.5339 90.5933 22.878C90.2656 23.2221 89.7914 23.3941 89.1706 23.3941C88.5497 23.3941 88.0669 23.2221 87.722 22.878C87.3771 22.5339 87.2046 22.0436 87.2046 21.407V15.678C87.2046 14.835 87.0667 14.2242 86.7908 13.8457C86.5321 13.45 86.0837 13.2522 85.4457 13.2522C84.7041 13.2522 84.1264 13.5102 83.7125 14.0264C83.2987 14.5425 83.0917 15.2737 83.0917 16.2199V21.407C83.0917 22.7318 82.445 23.3941 81.1517 23.3941Z" fill="#252742"/>
<path d="M104.088 23.3683C103.449 23.3683 102.958 23.1877 102.613 22.8264C102.285 22.4479 102.122 21.9231 102.122 21.2522V12.4263C102.122 11.7382 102.285 11.2134 102.613 10.8521C102.958 10.4737 103.449 10.2844 104.088 10.2844C104.708 10.2844 105.183 10.4737 105.51 10.8521C105.855 11.2134 106.028 11.7382 106.028 12.4263V21.2522C106.028 21.9231 105.864 22.4479 105.536 22.8264C105.208 23.1877 104.726 23.3683 104.088 23.3683ZM104.088 8.16827C103.363 8.16827 102.803 8.00483 102.406 7.67795C102.027 7.33386 101.837 6.85214 101.837 6.23278C101.837 5.59622 102.027 5.1145 102.406 4.78762C102.803 4.44353 103.363 4.27148 104.088 4.27148C104.812 4.27148 105.364 4.44353 105.743 4.78762C106.122 5.1145 106.312 5.59622 106.312 6.23278C106.312 6.85214 106.122 7.33386 105.743 7.67795C105.364 8.00483 104.812 8.16827 104.088 8.16827Z" fill="#252742"/>
</g>
</g>
<defs>
<clipPath id="clip0_2852_30001">
<rect width="107" height="30" fill="white"/>
</clipPath>
</defs>
</svg>
