<svg width="924" height="318" viewBox="0 0 924 318" fill="none" xmlns="http://www.w3.org/2000/svg">
<g clip-path="url(#clip0)">
<path d="M323.7 242.4V75.4C323.7 34 289 0.7 246.8 0H76.8C34.7 0 0 34 0 75.4V242.4C0 283.8 34.7 317 76.9 317.8H247.6C289.7 317.1 323.7 283.8 323.7 242.4Z" fill="#FFD60A"/>
<path d="M116.7 137C116.7 125.9 116 119 115.3 110.1H138.2L139.7 124.9C146.4 113.8 158.9 107.9 172.2 107.9C189.9 107.9 208.4 119 208.4 150.8V209.9H183.3V153.7C183.3 139.7 178.1 128.6 164.1 128.6C155.2 128.6 147.1 134.5 144.1 143.4C143.4 145.6 143.4 148.6 142.6 151.5V209.9H116.7V139.7V137Z" fill="#1C1C1E"/>
<path d="M69.5 107.9C69.5 113.8 64.3 119 57.7 119C51.1 119 45.9 113.8 45.9 107.9C45.9 102 51.1 96.8 57.7 96.8C60.7 96.8 63.6 97.5 65.8 99.8C68 102 69.5 104.9 69.5 107.9Z" fill="#1C1C1E"/>
<path d="M161.1 282.3C91.6 282.3 34.7 227.6 34.7 159.6C34.7 150 36.2 139.6 38.4 130L55.4 133.7C53.2 141.8 52.4 150.7 52.4 158.8C52.4 206.8 86.4 249 134.4 261.5C182.4 273.3 232.7 252.6 257.1 210.5L271.9 218.6C249.1 258.7 206.9 283.1 161.1 282.3Z" fill="#1C1C1E"/>
<path d="M289 164.1L272 163.4V159.7C272.7 115.4 245.4 75.4 203.3 59.2C161.2 43 113.1 54 82.8 86.5L69.5 74.6C93.1 48.8 127.1 34 162.6 34C233.6 34.7 289.7 90.9 289 159.6V164.1Z" fill="white"/>
<path d="M265.3 191.4C265.3 185.5 270.5 180.3 277.1 180.3C283.8 180.3 288.9 185.5 288.9 191.4C288.9 197.3 283.7 202.5 277.1 202.5C270.5 202.5 265.3 197.3 265.3 191.4Z" fill="white"/>
<path d="M421.7 110.5C421.7 98.7 421.7 89.1 421 80.2H444.7L446.2 95H446.9C451.3 86.9 463.2 78 480.2 78C498.7 78 517.2 89.1 517.2 120.9V180.7H490.4V123.8C490.4 109 484.5 98.7 470.4 98.7C460.1 98.7 452.7 106.1 449.7 113.5C449 115.7 449 118.7 449 121.6V180.7H422.4L421.7 110.5Z" fill="#1C1C1E"/>
<path d="M688.8 54.3C688.8 61.7 683.6 67.6 674.8 67.6C666.7 67.6 661.5 61.7 661.5 54.3C661.5 46.9 667.4 41 675.5 41C683.6 41 688.8 47 688.8 54.3Z" fill="#1C1C1E"/>
<path d="M923.1 54.3C923.1 61.7 917.9 67.6 909.1 67.6C901 67.6 895.8 61.7 895.8 54.3C895.8 46.9 901.7 41 909.1 41C917.9 41 923.1 47 923.1 54.3Z" fill="#1C1C1E"/>
<path d="M715.8 109.162C715.8 97.3621 715.4 88.4 714.7 79.5H737.6L738.3 94.3H739C744.2 86.2 753.8 77.3 771.5 77.3C785.5 77.3 795.9 84.7 800.3 95.8H801C804.7 89.9 809.1 86.2 814.3 83.2C820.2 79.5 826.9 77.3 835.7 77.3C853.4 77.3 871.2 88.4 871.2 120.9V180H845.3V124.6C845.3 107.6 839.4 98 826.8 98C817.9 98 811.3 103.9 808.3 111.3C807.6 113.5 806.8 117.2 806.8 119.4V180H780.9V121.6C780.9 107.6 775 97.9 762.4 97.9C752.8 97.9 746.1 105.3 743.2 112.7C742.5 114.9 741.7 117.9 741.7 120.8V180.7H715.8V109.7" fill="#1C1C1E"/>
<path d="M898.7 79.5H921.6V180H898.7V79.5Z" fill="#1C1C1E"/>
<path d="M664.4 79.5H687.3V180H664.4V79.5Z" fill="#1C1C1E"/>
<path d="M614.2 79.5V87.6C606.1 81.7 595.7 78 584.6 78C556.5 78 533.6 100.9 533.6 129.7C533.6 157.8 556.5 181.4 584.6 181.4C595.7 181.4 606 177.7 614.2 171.8V179.9H639.3V79.5H614.2ZM585.3 160C569 160 556.5 146.7 556.5 129.7C556.5 112.7 569.8 99.4 585.3 99.4C601.6 99.4 614.1 112.7 614.1 129.7C614.1 146.7 600.9 160 585.3 160Z" fill="#1C1C1E"/>
<path d="M421 264.813H425.859V237.653H441.012V264.813H445.871V233.113H421V264.813Z" fill="#A1A1A1"/>
<path d="M454.744 276.7H459.603V259.942H460.015C461.085 261.676 463.144 265.473 469.238 265.473C477.144 265.473 482.662 259.117 482.662 249.045C482.662 239.056 477.144 232.7 469.156 232.7C462.98 232.7 461.085 236.497 460.015 238.148H459.438V233.113H454.744V276.7ZM459.521 248.963C459.521 241.863 462.65 237.075 468.58 237.075C474.756 237.075 477.803 242.276 477.803 248.963C477.803 255.732 474.674 261.098 468.58 261.098C462.733 261.098 459.521 256.145 459.521 248.963Z" fill="#A1A1A1"/>
<path d="M502.921 265.473C511.486 265.473 517.25 258.951 517.25 249.128C517.25 239.222 511.486 232.7 502.921 232.7C494.356 232.7 488.591 239.222 488.591 249.128C488.591 258.951 494.356 265.473 502.921 265.473ZM502.921 261.098C496.415 261.098 493.45 255.484 493.45 249.128C493.45 242.771 496.415 237.075 502.921 237.075C509.427 237.075 512.392 242.771 512.392 249.128C512.392 255.484 509.427 261.098 502.921 261.098Z" fill="#A1A1A1"/>
<path d="M537.514 265.473C544.515 265.473 549.126 261.18 549.95 255.567H545.091C544.185 259.034 541.303 261.098 537.514 261.098C531.75 261.098 528.044 256.31 528.044 248.963C528.044 241.781 531.832 237.075 537.514 237.075C541.797 237.075 544.35 239.717 545.091 242.606H549.95C549.126 236.662 544.103 232.7 537.432 232.7C528.867 232.7 523.185 239.469 523.185 249.128C523.185 258.621 528.62 265.473 537.514 265.473Z" fill="#A1A1A1"/>
<path d="M554.562 237.653H565.02V264.813H569.879V237.653H580.256V233.113H554.562V237.653Z" fill="#A1A1A1"/>
<path d="M592.202 244.587V233.113H587.343V264.813H600.602C608.014 264.813 612.049 260.272 612.049 254.576C612.049 248.798 608.014 244.587 600.602 244.587H592.202ZM617.073 264.813H621.932V233.113H617.073V264.813ZM592.202 249.128H600.602C604.452 249.128 607.191 251.481 607.191 254.824C607.191 258.023 604.452 260.272 600.602 260.272H592.202V249.128Z" fill="#A1A1A1"/>
<path d="M644.085 265.473C650.508 265.473 655.202 262.253 656.685 257.465L651.991 256.145C650.755 259.447 647.894 261.098 644.085 261.098C638.382 261.098 634.449 257.404 634.223 250.614H657.179V248.55C657.179 236.745 650.179 232.7 643.591 232.7C635.026 232.7 629.344 239.469 629.344 249.21C629.344 258.951 634.944 265.473 644.085 265.473ZM634.223 246.404C634.552 241.471 638.032 237.075 643.591 237.075C648.861 237.075 652.238 241.038 652.238 246.404H634.223Z" fill="#A1A1A1"/>
<path d="M680.876 276.7H685.735V259.942H686.147C687.217 261.676 689.276 265.473 695.37 265.473C703.276 265.473 708.794 259.117 708.794 249.045C708.794 239.056 703.276 232.7 695.288 232.7C689.111 232.7 687.217 236.497 686.147 238.148H685.57V233.113H680.876V276.7ZM685.653 248.963C685.653 241.863 688.782 237.075 694.711 237.075C700.888 237.075 703.935 242.276 703.935 248.963C703.935 255.732 700.806 261.098 694.711 261.098C688.864 261.098 685.653 256.145 685.653 248.963Z" fill="#A1A1A1"/>
<path d="M729.465 265.473C735.888 265.473 740.582 262.253 742.065 257.465L737.37 256.145C736.135 259.447 733.273 261.098 729.465 261.098C723.762 261.098 719.829 257.404 719.603 250.614H742.559V248.55C742.559 236.745 735.559 232.7 728.97 232.7C720.406 232.7 714.723 239.469 714.723 249.21C714.723 258.951 720.323 265.473 729.465 265.473ZM719.603 246.404C719.932 241.471 723.412 237.075 728.97 237.075C734.241 237.075 737.618 241.038 737.618 246.404H719.603Z" fill="#A1A1A1"/>
<path d="M749.95 233.113V264.813H788.409V233.113H783.55V260.272H771.609V233.113H766.75V260.272H754.809V233.113H749.95Z" fill="#A1A1A1"/>
<path d="M810.541 265.473C816.965 265.473 821.659 262.253 823.141 257.465L818.447 256.145C817.212 259.447 814.35 261.098 810.541 261.098C804.838 261.098 800.906 257.404 800.68 250.614H823.636V248.55C823.636 236.745 816.636 232.7 810.047 232.7C801.483 232.7 795.8 239.469 795.8 249.21C795.8 258.951 801.4 265.473 810.541 265.473ZM800.68 246.404C801.009 241.471 804.488 237.075 810.047 237.075C815.318 237.075 818.694 241.038 818.694 246.404H800.68Z" fill="#A1A1A1"/>
<path d="M835.886 233.113H831.027V264.813H835.886V251.274H851.039V264.813H855.897V233.113H851.039V246.734H835.886V233.113Z" fill="#A1A1A1"/>
<path d="M869.63 257.631V233.113H864.771V264.813H870.453L885.606 240.295V264.813H890.465V233.113H884.865L869.63 257.631Z" fill="#A1A1A1"/>
<path d="M918.388 264.813H923V233.113H909.988C903.173 233.113 899.035 236.683 899.035 242.524C899.035 246.878 901.218 249.974 905.026 251.274L897.306 264.813H902.576L909.906 251.935H918.388V264.813ZM918.388 247.394H909.412C905.973 247.394 903.894 245.557 903.894 242.524C903.894 239.449 906.2 237.571 909.988 237.571H918.388V247.394Z" fill="#A1A1A1"/>
</g>
<defs>
<clipPath id="clip0">
<rect width="923.1" height="317.8" fill="white"/>
</clipPath>
</defs>
</svg>
