<svg xmlns="http://www.w3.org/2000/svg" fill="none" viewBox="0 0 330.792 320.7732558139535" style="max-height: 500px" width="330.792" height="320.7732558139535">
  <g clip-path="url(#clip0)">
    <path fill="#FFD60A" d="M 327.14 242.995 L 327.14 75.995 C 327.14 34.595 292.44 1.295 250.24 0.595 L 80.24 0.595 C 38.14 0.595 3.44 34.595 3.44 75.995 L 3.44 242.995 C 3.44 284.395 38.14 317.595 80.34 318.395 L 251.04 318.395 C 293.14 317.695 327.14 284.395 327.14 242.995 Z"/>
    <path fill="#1C1C1E" d="M 120.14 137.595 C 120.14 126.495 119.44 119.595 118.74 110.695 L 141.64 110.695 L 143.14 125.495 C 149.84 114.395 162.34 108.495 175.64 108.495 C 193.34 108.495 211.84 119.595 211.84 151.395 L 211.84 210.495 L 186.74 210.495 L 186.74 154.295 C 186.74 140.295 181.54 129.195 167.54 129.195 C 158.64 129.195 150.54 135.095 147.54 143.995 C 146.84 146.195 146.84 149.195 146.04 152.095 L 146.04 210.495 L 120.14 210.495 L 120.14 140.295 L 120.14 137.595 Z"/>
    <path fill="#1C1C1E" d="M 72.94 108.495 C 72.94 114.395 67.74 119.595 61.14 119.595 C 54.54 119.595 49.34 114.395 49.34 108.495 C 49.34 102.595 54.54 97.395 61.14 97.395 C 64.14 97.395 67.04 98.095 69.24 100.395 C 71.44 102.595 72.94 105.495 72.94 108.495 Z"/>
    <path fill="#1C1C1E" d="M 164.54 282.895 C 95.04 282.895 38.14 228.195 38.14 160.195 C 38.14 150.595 39.64 140.195 41.84 130.595 L 58.84 134.295 C 56.64 142.395 55.84 151.295 55.84 159.395 C 55.84 207.395 89.84 249.595 137.84 262.095 C 185.84 273.895 236.14 253.195 260.54 211.095 L 275.34 219.195 C 252.54 259.295 210.34 283.695 164.54 282.895 Z"/>
    <path fill="white" d="M 292.44 164.695 L 275.44 163.995 L 275.44 160.295 C 276.14 115.995 248.84 75.995 206.74 59.795 C 164.64 43.595 116.54 54.595 86.24 87.095 L 72.94 75.195 C 96.54 49.395 130.54 34.595 166.04 34.595 C 237.04 35.295 293.14 91.495 292.44 160.195 L 292.44 164.695 Z"/>
    <path fill="white" d="M 268.74 191.995 C 268.74 186.095 273.94 180.895 280.54 180.895 C 287.24 180.895 292.34 186.095 292.34 191.995 C 292.34 197.895 287.14 203.095 280.54 203.095 C 273.94 203.095 268.74 197.895 268.74 191.995 Z"/>
  </g>
  <defs>
    <clipPath id="clip0">
      <rect fill="white" height="317.8" width="923.1"/>
    </clipPath>
  </defs>
</svg>