<svg width="197.000000" height="45.000000" viewBox="0 0 197 45" fill="none" xmlns="http://www.w3.org/2000/svg" xmlns:xlink="http://www.w3.org/1999/xlink">
	<desc>
			Created with Pixso.
	</desc>
	<defs/>
	<path id="Berg" d="M117.64 35.5L105.87 35.5L105.87 6.4L117 6.4C123.31 6.4 126.43 9.62 126.43 13.94C126.43 17.49 124.19 19.47 121.35 20.14L121.35 20.43C124.44 20.58 127.57 23.16 127.57 27.57C127.57 32.1 124.3 35.5 117.64 35.5ZM111.13 10.75L111.13 18.78L116.35 18.78C119.09 18.78 121.16 17.18 121.16 14.63C121.16 12.38 119.56 10.75 116.46 10.75L111.13 10.75ZM160.78 35.5L155.64 35.5L155.64 13.68L160.62 13.68L160.62 17.31L160.85 17.31C161.65 14.78 163.74 13.37 166.24 13.37C166.8 13.37 167.61 13.42 168.08 13.5L168.08 18.24C167.64 18.09 166.56 17.94 165.69 17.94C162.87 17.94 160.78 19.9 160.78 22.67L160.78 35.5ZM151.08 29.65C150.17 33.43 146.67 35.92 141.59 35.92C135.01 35.92 131 31.56 131 24.71C131 17.99 135.07 13.4 141.32 13.4C146.69 13.4 151.29 16.75 151.29 24.41L151.29 25.99L136.09 25.99C136.13 29.72 138.34 31.91 141.66 31.91C143.88 31.91 145.58 30.95 146.28 29.1L151.08 29.65ZM190.33 35.85C190.33 41.43 185.98 44.13 180.08 44.13C174.53 44.13 171.39 41.68 170.45 38.62L175.08 37.5C175.71 38.78 177.07 40.24 180.17 40.24C183.1 40.24 185.23 38.92 185.23 35.71L185.23 31.58L184.97 31.58C184.17 33.18 182.43 35.18 178.7 35.18C173.67 35.18 169.7 31.63 169.7 24.52C169.7 17.34 173.67 13.4 178.7 13.4C182.55 13.4 184.19 15.71 184.97 17.28L185.26 17.28L185.26 13.68L190.33 13.68L190.33 35.85ZM141.39 17.4C138.32 17.4 136.26 19.74 136.1 22.53L146.36 22.53C146.33 19.56 144.35 17.4 141.39 17.4ZM174.95 24.49C174.95 28.5 176.73 31.15 180.13 31.15C183.41 31.15 185.26 28.65 185.26 24.49C185.26 20.35 183.43 17.61 180.13 17.61C176.7 17.61 174.95 20.52 174.95 24.49ZM111.13 22.57L111.13 31.09L116.8 31.09C120.62 31.09 122.21 29.47 122.21 27.16C122.21 24.56 120.19 22.57 116.94 22.57L111.13 22.57Z" fill="#2993FF" fill-opacity="1.000000" fill-rule="evenodd"/>
	<path id="eye" d="M21.78 29.15C20.87 32.93 17.38 35.42 12.3 35.42C5.72 35.42 1.7 31.06 1.7 24.21C1.7 17.49 5.78 12.9 12.03 12.9C17.4 12.9 22 16.25 22 23.91L22 25.49L6.8 25.49C6.84 29.22 9.05 31.41 12.37 31.41C14.58 31.41 16.28 30.45 16.99 28.6L21.78 29.15ZM67.14 29.15C66.23 32.93 62.73 35.42 57.65 35.42C51.07 35.42 47.06 31.06 47.06 24.21C47.06 17.49 51.13 12.9 57.38 12.9C62.75 12.9 67.35 16.25 67.35 23.91L67.35 25.49L52.16 25.49C52.2 29.22 54.4 31.41 57.72 31.41C59.94 31.41 61.64 30.45 62.34 28.6L67.14 29.15ZM36.46 37.64C35.22 41.12 32.91 43.18 28.9 43.18C27.5 43.18 26.25 42.92 25.55 42.64L26.74 38.63C28.99 39.28 30.49 39.12 31.44 36.63L31.88 35.45L23.97 13.18L29.43 13.18L34.46 29.65L34.68 29.65L39.72 13.18L45.19 13.18L36.46 37.64ZM12.09 16.9C9.03 16.9 6.97 19.24 6.81 22.03L17.07 22.03C17.04 19.06 15.05 16.9 12.09 16.9ZM57.45 16.9C54.38 16.9 52.32 19.24 52.17 22.03L62.42 22.03C62.39 19.06 60.41 16.9 57.45 16.9Z" fill="#2993FF" fill-opacity="1.000000" fill-rule="evenodd"/>
	<path id="path" d="M70 14.18L86.5 5L103 14.18L103 22.56L86.5 13.23L76.56 18.84L93.61 28.87L86.5 32.77L70 23.37L70 25.1L86.5 34.7L96.69 28.87L79.57 18.84L86.5 14.96L103 24.34L103 33.19L86.5 42.96L70 33.19L70 14.18Z" fill="#2993FF" fill-opacity="1.000000" fill-rule="nonzero"/>
</svg>
