<svg width="21" height="13" viewBox="0 0 21 13" fill="none" xmlns="http://www.w3.org/2000/svg">
<path d="M20.1094 4.19531C20.0573 3.59635 19.9661 3.04622 19.8359 2.54492C19.7057 2.04362 19.5951 1.69531 19.5039 1.5C19.3997 1.34375 19.2598 1.16146 19.084 0.953125C18.9082 0.744792 18.7487 0.595052 18.6055 0.503906C18.3581 0.347656 17.9609 0.276042 17.4141 0.289062C16.8672 0.302083 14.5951 0.308594 10.5977 0.308594C7.55078 0.308594 5.5651 0.311849 4.64062 0.318359C3.71615 0.32487 3.20182 0.354167 3.09766 0.40625C2.95443 0.458333 2.78841 0.533203 2.59961 0.630859C2.41081 0.728516 2.24479 0.848958 2.10156 0.992188C1.80208 1.14844 1.60352 1.347 1.50586 1.58789C1.4082 1.82878 1.30729 2.19661 1.20312 2.69141C1.04688 3.34245 0.955729 3.8763 0.929688 4.29297C0.903646 4.70964 0.890625 5.44531 0.890625 6.5C0.890625 7.55469 0.903646 8.29036 0.929688 8.70703C0.955729 9.1237 1.04688 9.65755 1.20312 10.3086C1.30729 10.8555 1.41471 11.2396 1.52539 11.4609C1.63607 11.6823 1.79557 11.8971 2.00391 12.1055C2.14714 12.2487 2.30013 12.3724 2.46289 12.4766C2.62565 12.5807 2.80469 12.6523 3 12.6914C3.10417 12.7174 3.92448 12.737 5.46094 12.75C7.01042 12.763 8.70312 12.7695 10.5391 12.7695C12.375 12.7695 14.0547 12.763 15.5781 12.75C17.1146 12.737 17.9219 12.7174 18 12.6914C18.2995 12.6523 18.5859 12.5189 18.8594 12.291C19.1328 12.0632 19.3477 11.7995 19.5039 11.5C19.5951 11.2526 19.7057 10.8913 19.8359 10.416C19.9661 9.94076 20.0573 9.40365 20.1094 8.80469C20.1094 8.64844 20.1094 8.34896 20.1094 7.90625C20.1094 7.46354 20.1094 6.99479 20.1094 6.5C20.1094 6.00521 20.1094 5.53646 20.1094 5.09375C20.1094 4.65104 20.1094 4.35156 20.1094 4.19531ZM18.3906 9.99609C18.2995 10.4518 18.2148 10.7578 18.1367 10.9141C18.0586 11.0703 17.9479 11.2005 17.8047 11.3047C17.7005 11.3568 17.3327 11.3861 16.7012 11.3926C16.0697 11.3991 14.0026 11.4023 10.5 11.4023C6.9974 11.4023 4.91732 11.3991 4.25977 11.3926C3.60221 11.3861 3.2474 11.3568 3.19531 11.3047C3.10417 11.2526 3.01628 11.181 2.93164 11.0898C2.84701 10.9987 2.80469 10.901 2.80469 10.7969C2.7526 10.6016 2.6875 10.3118 2.60938 9.92773C2.53125 9.54362 2.49219 9.20182 2.49219 8.90234C2.46615 8.70703 2.45312 8.38802 2.45312 7.94531C2.4401 7.5026 2.43359 7.03711 2.43359 6.54883C2.43359 6.06055 2.4401 5.59505 2.45312 5.15234C2.45312 4.72266 2.46615 4.40365 2.49219 4.19531C2.49219 3.89583 2.51497 3.55404 2.56055 3.16992C2.60612 2.78581 2.65495 2.49609 2.70703 2.30078C2.70703 2.19661 2.74609 2.09896 2.82422 2.00781C2.90234 1.91667 2.99349 1.84505 3.09766 1.79297C3.20182 1.75391 3.58594 1.72786 4.25 1.71484C4.91406 1.70182 6.9974 1.69531 10.5 1.69531C14.0026 1.69531 16.0827 1.70182 16.7402 1.71484C17.3978 1.72786 17.7526 1.75391 17.8047 1.79297C17.9479 1.89714 18.0586 2.02734 18.1367 2.18359C18.2148 2.33984 18.2995 2.64583 18.3906 3.10156C18.4948 3.59635 18.5566 4.03906 18.5762 4.42969C18.5957 4.82031 18.6055 5.54297 18.6055 6.59766C18.6576 7.54818 18.6738 8.21549 18.6543 8.59961C18.6348 8.98372 18.5469 9.44922 18.3906 9.99609ZM6.30078 4C6.30078 4.15625 6.27474 4.2832 6.22266 4.38086C6.17057 4.47852 6.09896 4.55339 6.00781 4.60547C5.95573 4.65755 5.88411 4.68685 5.79297 4.69336C5.70182 4.69987 5.50651 4.70312 5.20703 4.70312C4.85547 4.70312 4.64062 4.69987 4.5625 4.69336C4.48438 4.68685 4.39974 4.65755 4.30859 4.60547C4.20443 4.55339 4.14258 4.47852 4.12305 4.38086C4.10352 4.2832 4.09375 4.15625 4.09375 4C4.09375 3.80469 4.12305 3.65169 4.18164 3.54102C4.24023 3.43034 4.34766 3.34896 4.50391 3.29688C4.50391 3.29688 4.58203 3.29688 4.73828 3.29688C4.89453 3.29688 5.05078 3.29688 5.20703 3.29688C5.50651 3.29688 5.6888 3.30013 5.75391 3.30664C5.81901 3.31315 5.90365 3.34245 6.00781 3.39453C6.15104 3.44661 6.23568 3.51172 6.26172 3.58984C6.28776 3.66797 6.30078 3.80469 6.30078 4ZM13.293 5.69922C13.0977 5.04818 12.707 4.52734 12.1211 4.13672C11.5352 3.74609 10.8971 3.60286 10.207 3.70703C9.64714 3.74609 9.13932 3.96745 8.68359 4.37109C8.22786 4.77474 7.90234 5.25 7.70703 5.79688C7.65495 6.00521 7.62891 6.25911 7.62891 6.55859C7.62891 6.85807 7.65495 7.10547 7.70703 7.30078C7.85026 7.79557 8.0944 8.21549 8.43945 8.56055C8.78451 8.9056 9.20443 9.14974 9.69922 9.29297C9.80339 9.34505 9.91406 9.37435 10.0312 9.38086C10.1484 9.38737 10.3047 9.39062 10.5 9.39062C10.6953 9.39062 10.8385 9.38737 10.9297 9.38086C11.0208 9.37435 11.1445 9.34505 11.3008 9.29297C11.7956 9.14974 12.2155 8.9056 12.5605 8.56055C12.9056 8.21549 13.1497 7.79557 13.293 7.30078C13.3451 7.05339 13.3711 6.78646 13.3711 6.5C13.3711 6.21354 13.3451 5.94661 13.293 5.69922ZM11.9062 6.69531C11.8021 7.29427 11.4766 7.67839 10.9297 7.84766C10.3828 8.01693 9.90755 7.89974 9.50391 7.49609C9.25651 7.2487 9.13281 6.92969 9.13281 6.53906C9.13281 6.14844 9.25651 5.80339 9.50391 5.50391C9.59505 5.39974 9.71224 5.31836 9.85547 5.25977C9.9987 5.20117 10.1484 5.14583 10.3047 5.09375C10.7474 5.04167 11.138 5.1849 11.4766 5.52344C11.8151 5.86198 11.9583 6.2526 11.9062 6.69531ZM17.1016 9C17.1016 9.15625 17.0755 9.2832 17.0234 9.38086C16.9714 9.47852 16.8997 9.55339 16.8086 9.60547C16.7565 9.65755 16.6784 9.68685 16.5742 9.69336C16.4701 9.69987 16.2422 9.70312 15.8906 9.70312C15.5521 9.70312 15.3438 9.69987 15.2656 9.69336C15.1875 9.68685 15.0964 9.65755 14.9922 9.60547C14.901 9.55339 14.8457 9.47852 14.8262 9.38086C14.8066 9.2832 14.7969 9.15625 14.7969 9C14.7969 8.80469 14.8262 8.65169 14.8848 8.54102C14.9434 8.43034 15.0508 8.34896 15.207 8.29688C15.207 8.29688 15.2852 8.29688 15.4414 8.29688C15.5977 8.29688 15.7474 8.29688 15.8906 8.29688C16.2031 8.29688 16.3919 8.30013 16.457 8.30664C16.5221 8.31315 16.6003 8.34245 16.6914 8.39453C16.8477 8.44661 16.9551 8.51172 17.0137 8.58984C17.0723 8.66797 17.1016 8.80469 17.1016 9Z" fill="white"/>
</svg>
