<svg width="200" height="200" viewBox="0 0 200 200" fill="none" xmlns="http://www.w3.org/2000/svg">
<path d="M81.0111 5.56787V1.89304C81.0111 0.84751 81.8586 -5.73099e-05 82.9041 -5.73099e-05H84.6858C85.7313 -5.73099e-05 86.5789 0.84751 86.5789 1.89304V5.56787H81.0111Z" fill="black"/>
<path d="M97.3804 5.56787L93.7056 5.56787C92.6601 5.56787 91.8126 4.7203 91.8126 3.67478V1.89304C91.8126 0.84751 92.6601 -5.73099e-05 93.7056 -5.73099e-05L97.3804 -5.73099e-05V5.56787Z" fill="black"/>
<path d="M97.2133 5.56787V-5.73099e-05H100.888C101.934 -5.73099e-05 102.781 0.84751 102.781 1.89304V5.56787H97.2133Z" fill="black"/>
<path d="M108.015 5.56787V1.89304C108.015 0.84751 108.862 -5.73099e-05 109.908 -5.73099e-05H111.69C112.735 -5.73099e-05 113.583 0.84751 113.583 1.89304V5.56787H108.015Z" fill="black"/>
<path d="M117.285 5.45673V5.56809H118.983V3.86987H118.872C118.872 4.74961 118.159 5.45673 117.285 5.45673Z" fill="black"/>
<path d="M124.384 5.56787L118.816 5.56787V1.89304C118.816 0.84751 119.664 -5.73099e-05 120.709 -5.73099e-05L124.384 -5.73099e-05V5.56787Z" fill="black"/>
<path d="M124.217 5.56787V-5.73099e-05H127.892C128.937 -5.73099e-05 129.785 0.84751 129.785 1.89304V5.56787H124.217Z" fill="black"/>
<path d="M133.487 5.45673V5.56809H135.186V3.86987H135.074C135.074 4.74961 134.362 5.45673 133.487 5.45673Z" fill="black"/>
<path d="M140.586 5.56787L135.019 5.56787V1.89304C135.019 0.84751 135.866 -5.73099e-05 136.912 -5.73099e-05L140.586 -5.73099e-05V5.56787Z" fill="black"/>
<path d="M140.419 5.56787V-5.73099e-05H144.094C145.139 -5.73099e-05 145.987 0.84751 145.987 1.89304V5.56787H140.419Z" fill="black"/>
<path d="M151.221 5.56787V1.89304C151.221 0.84751 152.068 -5.73099e-05 153.114 -5.73099e-05H154.895C155.941 -5.73099e-05 156.789 0.84751 156.789 1.89304V5.56787H151.221Z" fill="black"/>
<path d="M48.7737 10.9695H45.099C44.0535 10.9695 43.2059 10.1219 43.2059 9.07639V7.29465C43.2059 6.24912 44.0535 5.40155 45.099 5.40155L48.7737 5.40155V10.9695Z" fill="black"/>
<path d="M48.6067 10.9695V5.40155H52.2814C53.3269 5.40155 54.1744 6.24912 54.1744 7.29465V10.9695H48.6067Z" fill="black"/>
<path d="M86.5789 5.40063H81.0111V10.9686H86.5789V5.40063Z" fill="black"/>
<path d="M86.4118 10.9695V5.40155H90.0866C91.1321 5.40155 91.9796 6.24912 91.9796 7.29465V10.9695H86.4118Z" fill="black"/>
<path d="M95.6822 10.8583V10.9697H97.3804V9.27148H97.269C97.269 10.1512 96.5563 10.8583 95.6822 10.8583Z" fill="black"/>
<path d="M102.781 5.40063H97.2133V10.9686H102.781V5.40063Z" fill="black"/>
<path d="M113.583 5.40063V10.9686H109.908C108.862 10.9686 108.015 10.121 108.015 9.07547V5.40063H113.583Z" fill="black"/>
<path d="M118.983 5.40063H113.416V10.9686H118.983V5.40063Z" fill="black"/>
<path d="M124.384 5.40063H118.816V10.9686H124.384V5.40063Z" fill="black"/>
<path d="M129.785 5.40063H124.217V10.9686H129.785V5.40063Z" fill="black"/>
<path d="M135.186 5.40063H129.618V10.9686H135.186V5.40063Z" fill="black"/>
<path d="M140.586 5.40063H135.019V10.9686H140.586V5.40063Z" fill="black"/>
<path d="M156.789 5.40063V9.07547C156.789 10.121 155.941 10.9686 154.895 10.9686H153.114C152.068 10.9686 151.221 10.121 151.221 9.07547V5.40063H156.789Z" fill="black"/>
<path d="M54.1744 10.8022V16.3702H50.4997C49.4542 16.3702 48.6067 15.5226 48.6067 14.4771V10.8022H54.1744Z" fill="black"/>
<path d="M59.5752 10.8022H54.0074V16.3702H59.5752V10.8022Z" fill="black"/>
<path d="M64.9759 10.8022H59.4081V16.3702H64.9759V10.8022Z" fill="black"/>
<path d="M70.3767 10.8022H64.8089V16.3702H70.3767V10.8022Z" fill="black"/>
<path d="M70.2096 16.3699V10.8019H73.8844C74.9299 10.8019 75.7774 11.6495 75.7774 12.695V16.3699H70.2096Z" fill="black"/>
<path d="M86.5789 10.8022V16.3702H82.9041C81.8586 16.3702 81.0111 15.5226 81.0111 14.4771V10.8022H86.5789Z" fill="black"/>
<path d="M91.9796 10.8022H86.4118V16.3702H91.9796V10.8022Z" fill="black"/>
<path d="M97.3804 10.8022H91.8126V16.3702H97.3804V10.8022Z" fill="black"/>
<path d="M102.781 10.8022H97.2133V16.3702H102.781V10.8022Z" fill="black"/>
<path d="M102.614 16.3699V10.8019H106.289C107.334 10.8019 108.182 11.6495 108.182 12.695V16.3699H102.614Z" fill="black"/>
<path d="M118.983 10.8022H113.416V16.3702H118.983V10.8022Z" fill="black"/>
<path d="M124.384 10.8022H118.816V16.3702H124.384V10.8022Z" fill="black"/>
<path d="M129.785 10.8022H124.217V16.3702H129.785V10.8022Z" fill="black"/>
<path d="M140.586 10.8022H135.019V16.3702H140.586V10.8022Z" fill="black"/>
<path d="M145.987 10.8022H140.419V16.3702H145.987V10.8022Z" fill="black"/>
<path d="M145.82 16.3699V10.8019H149.495C150.54 10.8019 151.388 11.6495 151.388 12.695V16.3699H145.82Z" fill="black"/>
<path d="M43.2059 21.7703V18.0954C43.2059 17.0499 44.0535 16.2023 45.099 16.2023H46.8807C47.9262 16.2023 48.7737 17.0499 48.7737 18.0954V21.7703H43.2059Z" fill="black"/>
<path d="M52.4763 21.6591V21.7705H54.1744V20.0723H54.0631C54.0631 20.952 53.3504 21.6591 52.4763 21.6591Z" fill="black"/>
<path d="M59.5752 16.2026H54.0074V21.7706H59.5752V16.2026Z" fill="black"/>
<path d="M75.7774 16.2026V19.8775C75.7774 20.923 74.9299 21.7706 73.8844 21.7706H72.1027C71.0572 21.7706 70.2096 20.923 70.2096 19.8775V16.2026H75.7774Z" fill="black"/>
<path d="M97.3804 16.2026V21.7706H93.7056C92.6601 21.7706 91.8126 20.923 91.8126 19.8775V16.2026H97.3804Z" fill="black"/>
<path d="M102.781 16.2026H97.2133V21.7706H102.781V16.2026Z" fill="black"/>
<path d="M118.983 16.2026V19.8775C118.983 20.923 118.136 21.7706 117.09 21.7706H115.309C114.263 21.7706 113.416 20.923 113.416 19.8775V16.2026H118.983Z" fill="black"/>
<path d="M129.785 16.2026V21.7706H126.11C125.065 21.7706 124.217 20.923 124.217 19.8775V16.2026H129.785Z" fill="black"/>
<path d="M135.186 16.2026H129.618V21.7706H135.186V16.2026Z" fill="black"/>
<path d="M140.586 16.2026H135.019V21.7706H140.586V16.2026Z" fill="black"/>
<path d="M151.388 16.2026V21.7706H147.713C146.668 21.7706 145.82 20.923 145.82 19.8775V16.2026H151.388Z" fill="black"/>
<path d="M151.221 21.7703V16.2023H154.895C155.941 16.2023 156.789 17.0499 156.789 18.0954V21.7703H151.221Z" fill="black"/>
<path d="M48.7737 21.6042V27.1722H45.099C44.0535 27.1722 43.2059 26.3246 43.2059 25.2791V21.6042H48.7737Z" fill="black"/>
<path d="M54.1744 21.6042H48.6067V27.1722H54.1744V21.6042Z" fill="black"/>
<path d="M54.0074 21.6042H59.5752V25.2791C59.5752 26.3246 58.7276 27.1722 57.6821 27.1722H54.0074V21.6042Z" fill="black"/>
<path d="M79.48 27.0607V27.1721H81.1781V25.4739H81.0668C81.0668 26.3536 80.3541 27.0607 79.48 27.0607Z" fill="black"/>
<path d="M86.5789 27.1719H81.0111V23.497C81.0111 22.4515 81.8587 21.6039 82.9042 21.6039H86.5789V27.1719Z" fill="black"/>
<path d="M86.4118 27.1719V21.6039H90.0866C91.1321 21.6039 91.9796 22.4515 91.9796 23.497V27.1719H86.4118Z" fill="black"/>
<path d="M95.6822 27.0607V27.1721H97.3804V25.4739H97.269C97.269 26.3536 96.5563 27.0607 95.6822 27.0607Z" fill="black"/>
<path d="M102.781 21.6042H97.2133V27.1722H102.781V21.6042Z" fill="black"/>
<path d="M108.182 21.6042H102.614V27.1722H108.182V21.6042Z" fill="black"/>
<path d="M108.015 27.1719V21.6039H111.69C112.735 21.6039 113.583 22.4515 113.583 23.497V27.1719H108.015Z" fill="black"/>
<path d="M140.586 21.6042H135.019V27.1722H140.586V21.6042Z" fill="black"/>
<path d="M54.1744 27.0046V30.6795C54.1744 31.725 53.3269 32.5726 52.2814 32.5726H50.4997C49.4542 32.5726 48.6067 31.725 48.6067 30.6795V27.0046H54.1744Z" fill="black"/>
<path d="M59.4081 28.5971V30.9857C59.4081 31.8654 60.1208 32.5726 61.0005 32.5726H63.3891C64.2744 32.5726 64.9815 31.8599 64.9815 30.9801V28.5971C64.9759 27.7118 64.2632 27.0046 63.3835 27.0046H61.0005C60.1208 27.0046 59.4081 27.7173 59.4081 28.5971Z" fill="black"/>
<path d="M81.1781 32.5723H75.6104V28.8974C75.6104 27.8519 76.4579 27.0043 77.5034 27.0043H81.1781V32.5723Z" fill="black"/>
<path d="M86.5789 27.0046H81.0111V32.5726H86.5789V27.0046Z" fill="black"/>
<path d="M91.9796 27.0046H86.4118V32.5726H91.9796V27.0046Z" fill="black"/>
<path d="M97.3804 27.0046H91.8126V32.5726H97.3804V27.0046Z" fill="black"/>
<path d="M102.781 27.0046H97.2133V32.5726H102.781V27.0046Z" fill="black"/>
<path d="M108.182 27.0046H102.614V32.5726H108.182V27.0046Z" fill="black"/>
<path d="M113.583 27.0046H108.015V32.5726H113.583V27.0046Z" fill="black"/>
<path d="M118.983 27.0046H113.416V32.5726H118.983V27.0046Z" fill="black"/>
<path d="M124.384 27.0046H118.816V32.5726H124.384V27.0046Z" fill="black"/>
<path d="M124.217 32.5723V27.0043H127.892C128.937 27.0043 129.785 27.8519 129.785 28.8974V32.5723H124.217Z" fill="black"/>
<path d="M140.586 27.0046V32.5726H136.912C135.866 32.5726 135.019 31.725 135.019 30.6795V27.0046H140.586Z" fill="black"/>
<path d="M140.419 32.5723V27.0043H144.094C145.139 27.0043 145.987 27.8519 145.987 28.8974V32.5723H140.419Z" fill="black"/>
<path d="M43.2059 37.9739V34.299C43.2059 33.2535 44.0535 32.4059 45.099 32.4059H46.8807C47.9262 32.4059 48.7737 33.2535 48.7737 34.299V37.9739H43.2059Z" fill="black"/>
<path d="M54.0074 33.9975V36.3861C54.0074 37.2658 54.7201 37.973 55.5998 37.973H57.9884C58.8737 37.973 59.5808 37.2603 59.5808 36.3805V33.9975C59.5752 33.1122 58.8625 32.405 57.9828 32.405H55.5998C54.7201 32.405 54.0074 33.1177 54.0074 33.9975Z" fill="black"/>
<path d="M64.8089 37.9739V34.299C64.8089 33.2535 65.6564 32.4059 66.7019 32.4059H68.4836C69.5291 32.4059 70.3766 33.2535 70.3766 34.299V37.9739H64.8089Z" fill="black"/>
<path d="M74.0793 37.8627V37.9741H75.7774V36.2759H75.6661C75.6661 37.1556 74.9534 37.8627 74.0793 37.8627Z" fill="black"/>
<path d="M81.1781 32.405H75.6104V37.973H81.1781V32.405Z" fill="black"/>
<path d="M91.9796 32.405H86.4118V37.973H91.9796V32.405Z" fill="black"/>
<path d="M102.781 32.405V36.0799C102.781 37.1254 101.934 37.973 100.888 37.973H99.1064C98.0609 37.973 97.2133 37.1254 97.2133 36.0799V32.405H102.781Z" fill="black"/>
<path d="M113.583 32.405H108.015V37.973H113.583V32.405Z" fill="black"/>
<path d="M124.384 32.405V36.0799C124.384 37.1254 123.537 37.973 122.491 37.973H120.709C119.664 37.973 118.816 37.1254 118.816 36.0799V32.405H124.384Z" fill="black"/>
<path d="M129.618 33.9975V36.3861C129.618 37.2658 130.33 37.973 131.21 37.973H133.599C134.484 37.973 135.191 37.2603 135.191 36.3805V33.9975C135.186 33.1122 134.473 32.405 133.593 32.405H131.21C130.33 32.405 129.618 33.1177 129.618 33.9975Z" fill="black"/>
<path d="M145.987 32.405H140.419V37.973H145.987V32.405Z" fill="black"/>
<path d="M149.69 37.8627V37.9741H151.388V36.2759H151.276C151.276 37.1556 150.564 37.8627 149.69 37.8627Z" fill="black"/>
<path d="M151.221 37.9739V34.299C151.221 33.2535 152.068 32.4059 153.114 32.4059H154.895C155.941 32.4059 156.789 33.2535 156.789 34.299V37.9739H151.221Z" fill="black"/>
<path d="M48.7737 37.8066H43.2059V43.3746H48.7737V37.8066Z" fill="black"/>
<path d="M70.3767 37.8066H64.8089V43.3746H70.3767V37.8066Z" fill="black"/>
<path d="M75.7774 37.8066H70.2096V43.3746H75.7774V37.8066Z" fill="black"/>
<path d="M75.6104 37.8066H81.1781V41.4815C81.1781 42.527 80.3306 43.3746 79.2851 43.3746H75.6104V37.8066Z" fill="black"/>
<path d="M91.9796 37.8066H86.4118V43.3746H91.9796V37.8066Z" fill="black"/>
<path d="M91.8126 43.3743V37.8063H95.4873C96.5328 37.8063 97.3804 38.6539 97.3804 39.6994V43.3743H91.8126Z" fill="black"/>
<path d="M108.182 43.3743H104.507C103.462 43.3743 102.614 42.5267 102.614 41.4812V39.6994C102.614 38.6539 103.462 37.8063 104.507 37.8063H108.182V43.3743Z" fill="black"/>
<path d="M108.015 37.8066H113.583V41.4815C113.583 42.527 112.735 43.3746 111.69 43.3746H108.015V37.8066Z" fill="black"/>
<path d="M124.217 43.3743V39.6994C124.217 38.6539 125.065 37.8063 126.11 37.8063H127.892C128.937 37.8063 129.785 38.6539 129.785 39.6994V43.3743H124.217Z" fill="black"/>
<path d="M138.888 43.2631V43.3745H140.586V41.6763H140.475C140.475 42.556 139.762 43.2631 138.888 43.2631Z" fill="black"/>
<path d="M145.987 37.8066H140.419V43.3746H145.987V37.8066Z" fill="black"/>
<path d="M151.388 37.8066H145.82V43.3746H151.388V37.8066Z" fill="black"/>
<path d="M156.789 37.8066H151.221V43.3746H156.789V37.8066Z" fill="black"/>
<path d="M5.40076 48.7759V45.101C5.40076 44.0555 6.2483 43.208 7.2938 43.208H9.07549C10.121 43.208 10.9685 44.0555 10.9685 45.101V48.7759H5.40076Z" fill="black"/>
<path d="M21.77 48.7759H18.0953C17.0498 48.7759 16.2022 47.9283 16.2022 46.8828V45.101C16.2022 44.0555 17.0498 43.208 18.0953 43.208H21.77V48.7759Z" fill="black"/>
<path d="M27.1707 43.207H21.603V48.775H27.1707V43.207Z" fill="black"/>
<path d="M32.5715 43.207H27.0037V48.775H32.5715V43.207Z" fill="black"/>
<path d="M32.4044 48.7759V43.208H36.0791C37.1246 43.208 37.9722 44.0555 37.9722 45.101V48.7759H32.4044Z" fill="black"/>
<path d="M48.7737 43.207V48.775H45.099C44.0535 48.775 43.2059 47.9274 43.2059 46.8819V43.207H48.7737Z" fill="black"/>
<path d="M48.6067 48.7759V43.208H52.2814C53.3269 43.208 54.1744 44.0555 54.1744 45.101V48.7759H48.6067Z" fill="black"/>
<path d="M70.3767 43.207H64.8089V48.775H70.3767V43.207Z" fill="black"/>
<path d="M91.9796 43.207V46.8819C91.9796 47.9274 91.1321 48.775 90.0866 48.775H88.3049C87.2594 48.775 86.4119 47.9274 86.4119 46.8819V43.207H91.9796Z" fill="black"/>
<path d="M122.686 48.6635V48.7749H124.384V47.0767H124.273C124.273 47.9564 123.56 48.6635 122.686 48.6635Z" fill="black"/>
<path d="M129.785 43.207H124.217V48.775H129.785V43.207Z" fill="black"/>
<path d="M135.186 43.207H129.618V48.775H135.186V43.207Z" fill="black"/>
<path d="M140.586 43.207H135.019V48.775H140.586V43.207Z" fill="black"/>
<path d="M145.987 43.207H140.419V48.775H145.987V43.207Z" fill="black"/>
<path d="M156.789 43.207H151.221V48.775H156.789V43.207Z" fill="black"/>
<path d="M162.189 43.207H156.621V48.775H162.189V43.207Z" fill="black"/>
<path d="M162.022 48.7759V43.208H165.697C166.742 43.208 167.59 44.0555 167.59 45.101V48.7759H162.022Z" fill="black"/>
<path d="M178.391 48.7759H172.824V45.101C172.824 44.0555 173.671 43.208 174.717 43.208H178.391V48.7759Z" fill="black"/>
<path d="M178.224 48.7759V43.208H181.899C182.945 43.208 183.792 44.0555 183.792 45.101V48.7759H178.224Z" fill="black"/>
<path d="M187.495 48.6635V48.7749H189.193V47.0767H189.082C189.082 47.9564 188.369 48.6635 187.495 48.6635Z" fill="black"/>
<path d="M189.026 48.7759V45.101C189.026 44.0555 189.873 43.208 190.919 43.208H192.701C193.746 43.208 194.594 44.0555 194.594 45.101V48.7759H189.026Z" fill="black"/>
<path d="M10.9685 48.6086H5.40076V54.1766H10.9685V48.6086Z" fill="black"/>
<path d="M27.1707 48.6086H21.603V54.1766H27.1707V48.6086Z" fill="black"/>
<path d="M70.3767 48.6086V54.1766H66.7019C65.6564 54.1766 64.8089 53.329 64.8089 52.2835V48.6086H70.3767Z" fill="black"/>
<path d="M70.2096 54.1763V48.6083H73.8844C74.9299 48.6083 75.7774 49.4559 75.7774 50.5014V54.1763H70.2096Z" fill="black"/>
<path d="M91.8126 50.2011V52.5897C91.8126 53.4694 92.5253 54.1766 93.405 54.1766H95.7935C96.6788 54.1766 97.3859 53.4639 97.3859 52.5841V50.2011C97.3804 49.3158 96.6677 48.6086 95.788 48.6086H93.405C92.5253 48.6086 91.8126 49.3213 91.8126 50.2011Z" fill="black"/>
<path d="M108.015 50.2011V52.5897C108.015 53.4694 108.727 54.1766 109.607 54.1766H111.996C112.881 54.1766 113.588 53.4639 113.588 52.5841V50.2011C113.583 49.3158 112.87 48.6086 111.99 48.6086H109.607C108.727 48.6086 108.015 49.3213 108.015 50.2011Z" fill="black"/>
<path d="M124.384 54.1763H120.709C119.664 54.1763 118.816 53.3287 118.816 52.2832V50.5014C118.816 49.4559 119.664 48.6083 120.709 48.6083H124.384V54.1763Z" fill="black"/>
<path d="M129.785 48.6086H124.217V54.1766H129.785V48.6086Z" fill="black"/>
<path d="M140.586 48.6086H135.019V54.1766H140.586V48.6086Z" fill="black"/>
<path d="M140.419 48.6086H145.987V52.2835C145.987 53.329 145.139 54.1766 144.094 54.1766H140.419V48.6086Z" fill="black"/>
<path d="M156.789 48.6086V54.1766H153.114C152.068 54.1766 151.221 53.329 151.221 52.2835V48.6086H156.789Z" fill="black"/>
<path d="M162.189 48.6086H156.621V54.1766H162.189V48.6086Z" fill="black"/>
<path d="M178.391 48.6086V52.2835C178.391 53.329 177.544 54.1766 176.498 54.1766H174.717C173.671 54.1766 172.824 53.329 172.824 52.2835V48.6086H178.391Z" fill="black"/>
<path d="M189.193 54.1763H185.518C184.473 54.1763 183.625 53.3287 183.625 52.2832V50.5014C183.625 49.4559 184.473 48.6083 185.518 48.6083H189.193V54.1763Z" fill="black"/>
<path d="M189.026 48.6086H194.594V52.2835C194.594 53.329 193.746 54.1766 192.701 54.1766H189.026V48.6086Z" fill="black"/>
<path d="M10.9685 54.009V57.6839C10.9685 58.7294 10.121 59.577 9.07549 59.577H7.29381C6.24831 59.577 5.40076 58.7294 5.40076 57.6839V54.009H10.9685Z" fill="black"/>
<path d="M21.77 59.5767H18.0953C17.0498 59.5767 16.2022 58.7291 16.2022 57.6836V55.9018C16.2022 54.8563 17.0498 54.0087 18.0953 54.0087H21.77V59.5767Z" fill="black"/>
<path d="M27.1707 54.009H21.603V59.577H27.1707V54.009Z" fill="black"/>
<path d="M32.5715 54.009H27.0037V59.577H32.5715V54.009Z" fill="black"/>
<path d="M37.9722 54.009H32.4044V59.577H37.9722V54.009Z" fill="black"/>
<path d="M43.3729 54.009H37.8052V59.577H43.3729V54.009Z" fill="black"/>
<path d="M48.7737 54.009H43.2059V59.577H48.7737V54.009Z" fill="black"/>
<path d="M54.1744 54.009H48.6067V59.577H54.1744V54.009Z" fill="black"/>
<path d="M54.0074 59.5767V54.0087H57.6821C58.7276 54.0087 59.5752 54.8563 59.5752 55.9018V59.5767H54.0074Z" fill="black"/>
<path d="M75.7774 54.009V59.577H72.1027C71.0572 59.577 70.2096 58.7294 70.2096 57.6839V54.009H75.7774Z" fill="black"/>
<path d="M81.1781 54.009H75.6104V59.577H81.1781V54.009Z" fill="black"/>
<path d="M81.0111 59.5767V54.0087H84.6858C85.7313 54.0087 86.5789 54.8563 86.5789 55.9018V59.5767H81.0111Z" fill="black"/>
<path d="M102.781 59.5767H99.1064C98.0609 59.5767 97.2134 58.7291 97.2134 57.6836V55.9018C97.2134 54.8563 98.0609 54.0087 99.1064 54.0087H102.781V59.5767Z" fill="black"/>
<path d="M102.614 59.5767V54.0087H106.289C107.334 54.0087 108.182 54.8563 108.182 55.9018V59.5767H102.614Z" fill="black"/>
<path d="M129.785 54.009H124.217V59.577H129.785V54.009Z" fill="black"/>
<path d="M135.186 54.009H129.618V59.577H135.186V54.009Z" fill="black"/>
<path d="M135.019 54.009H140.586V57.6839C140.586 58.7294 139.739 59.577 138.693 59.577H135.019V54.009Z" fill="black"/>
<path d="M144.289 59.4655V59.5769H145.987V57.8787H145.876C145.876 58.7584 145.163 59.4655 144.289 59.4655Z" fill="black"/>
<path d="M145.82 59.5767V55.9018C145.82 54.8563 146.668 54.0087 147.713 54.0087H149.495C150.54 54.0087 151.388 54.8563 151.388 55.9018V59.5767H145.82Z" fill="black"/>
<path d="M155.09 59.4655V59.5769H156.789V57.8787H156.677C156.677 58.7584 155.964 59.4655 155.09 59.4655Z" fill="black"/>
<path d="M162.189 54.009H156.621V59.577H162.189V54.009Z" fill="black"/>
<path d="M162.022 59.5767V54.0087H165.697C166.742 54.0087 167.59 54.8563 167.59 55.9018V59.5767H162.022Z" fill="black"/>
<path d="M192.896 59.4655V59.5769H194.594V57.8787H194.482C194.482 58.7584 193.77 59.4655 192.896 59.4655Z" fill="black"/>
<path d="M194.427 59.5767V55.9018C194.427 54.8563 195.274 54.0087 196.32 54.0087H198.101C199.147 54.0087 199.994 54.8563 199.994 55.9018V59.5767H194.427Z" fill="black"/>
<path d="M0 61.0019V63.3905C0 64.2702 0.712675 64.9774 1.59238 64.9774H3.98096C4.86623 64.9774 5.57334 64.2647 5.57334 63.3849V61.0019C5.56777 60.1166 4.8551 59.4094 3.97539 59.4094H1.59238C0.712675 59.4094 0 60.1221 0 61.0019Z" fill="black"/>
<path d="M43.3729 59.4094H37.8052V64.9774H43.3729V59.4094Z" fill="black"/>
<path d="M54.1744 59.4094H48.6067V64.9774H54.1744V59.4094Z" fill="black"/>
<path d="M64.8089 64.9783V61.3034C64.8089 60.2579 65.6564 59.4103 66.7019 59.4103H68.4836C69.5291 59.4103 70.3766 60.2579 70.3766 61.3034V64.9783H64.8089Z" fill="black"/>
<path d="M81.1781 59.4094V63.0843C81.1781 64.1298 80.3306 64.9774 79.2851 64.9774H77.5034C76.4579 64.9774 75.6104 64.1298 75.6104 63.0843V59.4094H81.1781Z" fill="black"/>
<path d="M108.182 59.4094V63.0843C108.182 64.1298 107.334 64.9774 106.289 64.9774H104.507C103.462 64.9774 102.614 64.1298 102.614 63.0843V59.4094H108.182Z" fill="black"/>
<path d="M129.785 59.4094H124.217V64.9774H129.785V59.4094Z" fill="black"/>
<path d="M145.987 64.9783H142.312C141.267 64.9783 140.419 64.1307 140.419 63.0852V61.3034C140.419 60.2579 141.267 59.4103 142.312 59.4103H145.987V64.9783Z" fill="black"/>
<path d="M151.388 59.4094H145.82V64.9774H151.388V59.4094Z" fill="black"/>
<path d="M156.789 59.4094H151.221V64.9774H156.789V59.4094Z" fill="black"/>
<path d="M162.189 59.4094H156.621V64.9774H162.189V59.4094Z" fill="black"/>
<path d="M167.59 59.4094H162.022V64.9774H167.59V59.4094Z" fill="black"/>
<path d="M172.991 59.4094H167.423V64.9774H172.991V59.4094Z" fill="black"/>
<path d="M178.391 59.4094H172.824V64.9774H178.391V59.4094Z" fill="black"/>
<path d="M183.792 59.4094H178.224V64.9774H183.792V59.4094Z" fill="black"/>
<path d="M189.193 59.4094H183.625V64.9774H189.193V59.4094Z" fill="black"/>
<path d="M194.594 59.4094H189.026V64.9774H194.594V59.4094Z" fill="black"/>
<path d="M194.427 59.4094H199.994V63.0843C199.994 64.1298 199.147 64.9774 198.101 64.9774H194.427V59.4094Z" fill="black"/>
<path d="M5.40076 70.3787V66.7038C5.40076 65.6583 6.2483 64.8107 7.2938 64.8107H9.07549C10.121 64.8107 10.9685 65.6583 10.9685 66.7038V70.3787H5.40076Z" fill="black"/>
<path d="M21.77 70.3787H18.0953C17.0498 70.3787 16.2022 69.5311 16.2022 68.4856V66.7038C16.2022 65.6583 17.0498 64.8107 18.0953 64.8107H21.77V70.3787Z" fill="black"/>
<path d="M21.603 70.3787V64.8107H25.2777C26.3232 64.8107 27.1707 65.6583 27.1707 66.7038V70.3787H21.603Z" fill="black"/>
<path d="M37.9722 70.3787H34.2975C33.252 70.3787 32.4044 69.5311 32.4044 68.4856V66.7038C32.4044 65.6583 33.252 64.8107 34.2975 64.8107H37.9722V70.3787Z" fill="black"/>
<path d="M43.3729 64.811H37.8052V70.379H43.3729V64.811Z" fill="black"/>
<path d="M48.7737 64.811H43.2059V70.379H48.7737V64.811Z" fill="black"/>
<path d="M48.6067 64.811H54.1744V68.4859C54.1744 69.5314 53.3269 70.379 52.2814 70.379H48.6067V64.811Z" fill="black"/>
<path d="M63.2777 70.2675V70.3789H64.9759V68.6807H64.8646C64.8646 69.5604 64.1519 70.2675 63.2777 70.2675Z" fill="black"/>
<path d="M70.3767 64.811H64.8089V70.379H70.3767V64.811Z" fill="black"/>
<path d="M70.2096 70.3787V64.8107H73.8844C74.9299 64.8107 75.7774 65.6583 75.7774 66.7038V70.3787H70.2096Z" fill="black"/>
<path d="M84.8807 70.2675V70.3789H86.5789V68.6807H86.4675C86.4675 69.5604 85.7548 70.2675 84.8807 70.2675Z" fill="black"/>
<path d="M86.4118 70.3787V66.7038C86.4118 65.6583 87.2594 64.8107 88.3049 64.8107H90.0866C91.1321 64.8107 91.9796 65.6583 91.9796 66.7038V70.3787H86.4118Z" fill="black"/>
<path d="M129.785 64.811H124.217V70.379H129.785V64.811Z" fill="black"/>
<path d="M129.618 70.3787V64.8107H133.292C134.338 64.8107 135.186 65.6583 135.186 66.7038V70.3787H129.618Z" fill="black"/>
<path d="M151.388 64.811H145.82V70.379H151.388V64.811Z" fill="black"/>
<path d="M167.59 64.811V68.4859C167.59 69.5314 166.742 70.379 165.697 70.379H163.915C162.87 70.379 162.022 69.5314 162.022 68.4859V64.811H167.59Z" fill="black"/>
<path d="M183.792 64.811V68.4859C183.792 69.5314 182.945 70.379 181.899 70.379H180.117C179.072 70.379 178.224 69.5314 178.224 68.4859V64.811H183.792Z" fill="black"/>
<path d="M10.9685 70.2114V75.7794H7.29381C6.24831 75.7794 5.40076 74.9318 5.40076 73.8863V70.2114H10.9685Z" fill="black"/>
<path d="M10.8015 75.7803V70.2123H14.4762C15.5217 70.2123 16.3693 71.0599 16.3693 72.1054V75.7803H10.8015Z" fill="black"/>
<path d="M43.373 70.2114V73.8863C43.373 74.9318 42.5254 75.7794 41.4799 75.7794H39.6982C38.6527 75.7794 37.8052 74.9318 37.8052 73.8863V70.2114H43.373Z" fill="black"/>
<path d="M59.5752 75.7803H54.0074V72.1054C54.0074 71.0599 54.855 70.2123 55.9005 70.2123H59.5752V75.7803Z" fill="black"/>
<path d="M64.9759 70.2114H59.4081V75.7794H64.9759V70.2114Z" fill="black"/>
<path d="M70.3767 70.2114H64.8089V75.7794H70.3767V70.2114Z" fill="black"/>
<path d="M74.0793 75.6679V75.7793H75.7774V74.0811H75.6661C75.6661 74.9608 74.9534 75.6679 74.0793 75.6679Z" fill="black"/>
<path d="M81.1781 75.7803H75.6104V72.1054C75.6104 71.0599 76.4579 70.2123 77.5034 70.2123H81.1781V75.7803Z" fill="black"/>
<path d="M86.5789 70.2114H81.0111V75.7794H86.5789V70.2114Z" fill="black"/>
<path d="M91.9796 70.2114H86.4118V75.7794H91.9796V70.2114Z" fill="black"/>
<path d="M91.8126 75.7803V70.2123H95.4873C96.5328 70.2123 97.3804 71.0599 97.3804 72.1054V75.7803H91.8126Z" fill="black"/>
<path d="M102.614 75.7803V72.1054C102.614 71.0599 103.462 70.2123 104.507 70.2123H106.289C107.334 70.2123 108.182 71.0599 108.182 72.1054V75.7803H102.614Z" fill="black"/>
<path d="M129.785 70.2114V75.7794H126.11C125.065 75.7794 124.217 74.9318 124.217 73.8863V70.2114H129.785Z" fill="black"/>
<path d="M135.186 70.2114H129.618V75.7794H135.186V70.2114Z" fill="black"/>
<path d="M145.987 75.7803H140.419V72.1054C140.419 71.0599 141.267 70.2123 142.312 70.2123H145.987V75.7803Z" fill="black"/>
<path d="M151.388 70.2114H145.82V75.7794H151.388V70.2114Z" fill="black"/>
<path d="M156.621 75.7803V72.1054C156.621 71.0599 157.469 70.2123 158.515 70.2123H160.296C161.342 70.2123 162.189 71.0599 162.189 72.1054V75.7803H156.621Z" fill="black"/>
<path d="M172.991 75.7803H169.316C168.27 75.7803 167.423 74.9327 167.423 73.8872V72.1054C167.423 71.0599 168.27 70.2123 169.316 70.2123H172.991V75.7803Z" fill="black"/>
<path d="M172.824 75.7803V70.2123H176.498C177.544 70.2123 178.391 71.0599 178.391 72.1054V75.7803H172.824Z" fill="black"/>
<path d="M182.094 75.6679V75.7793H183.792V74.0811H183.681C183.681 74.9608 182.968 75.6679 182.094 75.6679Z" fill="black"/>
<path d="M189.193 75.7803H183.625V72.1054C183.625 71.0599 184.473 70.2123 185.518 70.2123H189.193V75.7803Z" fill="black"/>
<path d="M189.026 75.7803V70.2123H192.701C193.746 70.2123 194.594 71.0599 194.594 72.1054V75.7803H189.026Z" fill="black"/>
<path d="M0 77.2055V79.5941C0 80.4738 0.712675 81.181 1.59238 81.181H3.98096C4.86623 81.181 5.57334 80.4683 5.57334 79.5885V77.2055C5.56777 76.3202 4.8551 75.613 3.97539 75.613H1.59238C0.712675 75.613 0 76.3257 0 77.2055Z" fill="black"/>
<path d="M27.1707 81.1807H23.496C22.4505 81.1807 21.603 80.3331 21.603 79.2876V77.5058C21.603 76.4603 22.4505 75.6127 23.496 75.6127H27.1707V81.1807Z" fill="black"/>
<path d="M32.5715 75.613H27.0037V81.181H32.5715V75.613Z" fill="black"/>
<path d="M32.4044 81.1807V75.6127H36.0791C37.1246 75.6127 37.9722 76.4603 37.9722 77.5058V81.1807H32.4044Z" fill="black"/>
<path d="M43.2059 77.2055V79.5941C43.2059 80.4738 43.9186 81.181 44.7983 81.181H47.1869C48.0722 81.181 48.7793 80.4683 48.7793 79.5885V77.2055C48.7737 76.3202 48.061 75.613 47.1813 75.613H44.7983C43.9186 75.613 43.2059 76.3257 43.2059 77.2055Z" fill="black"/>
<path d="M59.5752 75.6143V79.2891C59.5752 80.3346 58.7277 81.1822 57.6822 81.1822H55.9005C54.855 81.1822 54.0074 80.3346 54.0074 79.2891V75.6143H59.5752Z" fill="black"/>
<path d="M70.3767 75.613H64.8089V81.181H70.3767V75.613Z" fill="black"/>
<path d="M75.7774 75.613H70.2096V81.181H75.7774V75.613Z" fill="black"/>
<path d="M81.1781 75.613H75.6104V81.181H81.1781V75.613Z" fill="black"/>
<path d="M86.5789 75.613H81.0111V81.181H86.5789V75.613Z" fill="black"/>
<path d="M86.4118 75.613H91.9796V79.2879C91.9796 80.3334 91.1321 81.181 90.0866 81.181H86.4118V75.613Z" fill="black"/>
<path d="M108.182 75.613H102.614V81.181H108.182V75.613Z" fill="black"/>
<path d="M118.983 81.1807H115.309C114.263 81.1807 113.416 80.3331 113.416 79.2876V77.5058C113.416 76.4603 114.263 75.6127 115.309 75.6127H118.983V81.1807Z" fill="black"/>
<path d="M118.816 81.1807V75.6127H122.491C123.537 75.6127 124.384 76.4603 124.384 77.5058V81.1807H118.816Z" fill="black"/>
<path d="M135.186 75.613H129.618V81.181H135.186V75.613Z" fill="black"/>
<path d="M145.987 75.6143V81.1822H142.312C141.267 81.1822 140.419 80.3346 140.419 79.2891V75.6143H145.987Z" fill="black"/>
<path d="M151.388 75.613H145.82V81.181H151.388V75.613Z" fill="black"/>
<path d="M162.189 75.6143V79.2891C162.189 80.3346 161.342 81.1822 160.296 81.1822H158.515C157.469 81.1822 156.621 80.3346 156.621 79.2891V75.6143H162.189Z" fill="black"/>
<path d="M176.693 81.0695V81.1809H178.391V79.4827H178.28C178.28 80.3624 177.567 81.0695 176.693 81.0695Z" fill="black"/>
<path d="M183.792 81.1807H178.224V77.5058C178.224 76.4603 179.072 75.6127 180.117 75.6127H183.792V81.1807Z" fill="black"/>
<path d="M189.193 75.613H183.625V81.181H189.193V75.613Z" fill="black"/>
<path d="M194.594 75.613H189.026V81.181H194.594V75.613Z" fill="black"/>
<path d="M194.427 81.1807V75.6127H198.101C199.147 75.6127 199.994 76.4603 199.994 77.5058V81.1807H194.427Z" fill="black"/>
<path d="M37.8052 82.6059V84.9945C37.8052 85.8742 38.5179 86.5814 39.3976 86.5814H41.7861C42.6714 86.5814 43.3785 85.8687 43.3785 84.9889V82.6059C43.3729 81.7206 42.6603 81.0134 41.7806 81.0134H39.3976C38.5179 81.0134 37.8052 81.7261 37.8052 82.6059Z" fill="black"/>
<path d="M48.6067 82.6059V84.9945C48.6067 85.8742 49.3193 86.5814 50.199 86.5814H52.5876C53.4729 86.5814 54.18 85.8687 54.18 84.9889V82.6059C54.1744 81.7206 53.4618 81.0134 52.582 81.0134H50.199C49.3193 81.0134 48.6067 81.7261 48.6067 82.6059Z" fill="black"/>
<path d="M70.3767 81.0134V86.5814H66.7019C65.6564 86.5814 64.8089 85.7338 64.8089 84.6883V81.0134H70.3767Z" fill="black"/>
<path d="M75.7774 81.0134H70.2096V86.5814H75.7774V81.0134Z" fill="black"/>
<path d="M91.8126 82.6059V84.9945C91.8126 85.8742 92.5253 86.5814 93.405 86.5814H95.7935C96.6788 86.5814 97.3859 85.8687 97.3859 84.9889V82.6059C97.3804 81.7206 96.6677 81.0134 95.788 81.0134H93.405C92.5253 81.0134 91.8126 81.7261 91.8126 82.6059Z" fill="black"/>
<path d="M108.182 81.0134V86.5814H104.507C103.462 86.5814 102.614 85.7338 102.614 84.6883V81.0134H108.182Z" fill="black"/>
<path d="M108.015 86.5811V81.0131H111.69C112.735 81.0131 113.583 81.8607 113.583 82.9062V86.5811H108.015Z" fill="black"/>
<path d="M135.186 81.0134V84.6883C135.186 85.7338 134.338 86.5814 133.293 86.5814H131.511C130.465 86.5814 129.618 85.7338 129.618 84.6883V81.0134H135.186Z" fill="black"/>
<path d="M151.388 81.0134H145.82V86.5814H151.388V81.0134Z" fill="black"/>
<path d="M151.221 86.5811V81.0131H154.895C155.941 81.0131 156.789 81.8607 156.789 82.9062V86.5811H151.221Z" fill="black"/>
<path d="M178.391 86.5811H174.717C173.671 86.5811 172.824 85.7335 172.824 84.688V82.9062C172.824 81.8607 173.671 81.0131 174.717 81.0131H178.391V86.5811Z" fill="black"/>
<path d="M183.792 81.0134H178.224V86.5814H183.792V81.0134Z" fill="black"/>
<path d="M189.193 81.0134H183.625V86.5814H189.193V81.0134Z" fill="black"/>
<path d="M16.2022 88.0075V90.3961C16.2022 91.2758 16.9149 91.983 17.7946 91.983H20.1832C21.0684 91.983 21.7756 91.2703 21.7756 90.3905V88.0075C21.77 87.1222 21.0573 86.415 20.1776 86.415H17.7946C16.9149 86.415 16.2022 87.1277 16.2022 88.0075Z" fill="black"/>
<path d="M32.5715 91.9827H27.0037V88.3078C27.0037 87.2623 27.8513 86.4147 28.8968 86.4147H32.5715V91.9827Z" fill="black"/>
<path d="M32.4044 91.9827V86.4147H36.0791C37.1246 86.4147 37.9722 87.2623 37.9722 88.3078V91.9827H32.4044Z" fill="black"/>
<path d="M43.2059 91.9827V88.3078C43.2059 87.2623 44.0535 86.4147 45.099 86.4147H46.8807C47.9262 86.4147 48.7737 87.2623 48.7737 88.3078V91.9827H43.2059Z" fill="black"/>
<path d="M75.7774 86.415V91.983H72.1027C71.0572 91.983 70.2096 91.1354 70.2096 90.0899V86.415H75.7774Z" fill="black"/>
<path d="M75.6104 91.9827V86.4147H79.2851C80.3306 86.4147 81.1781 87.2623 81.1781 88.3078V91.9827H75.6104Z" fill="black"/>
<path d="M97.2133 91.9827V88.3078C97.2133 87.2623 98.0609 86.4147 99.1064 86.4147H100.888C101.934 86.4147 102.781 87.2623 102.781 88.3078V91.9827H97.2133Z" fill="black"/>
<path d="M113.416 88.0075V90.3961C113.416 91.2758 114.128 91.983 115.008 91.983H117.397C118.282 91.983 118.989 91.2703 118.989 90.3905V88.0075C118.983 87.1222 118.271 86.415 117.391 86.415H115.008C114.128 86.415 113.416 87.1277 113.416 88.0075Z" fill="black"/>
<path d="M124.217 91.9827V88.3078C124.217 87.2623 125.065 86.4147 126.11 86.4147H127.892C128.937 86.4147 129.785 87.2623 129.785 88.3078V91.9827H124.217Z" fill="black"/>
<path d="M140.586 91.9827H136.912C135.866 91.9827 135.019 91.1351 135.019 90.0896V88.3078C135.019 87.2623 135.866 86.4147 136.912 86.4147H140.586V91.9827Z" fill="black"/>
<path d="M145.987 86.415H140.419V91.983H145.987V86.415Z" fill="black"/>
<path d="M151.388 86.415H145.82V91.983H151.388V86.415Z" fill="black"/>
<path d="M162.022 88.0075V90.3961C162.022 91.2758 162.735 91.983 163.615 91.983H166.003C166.888 91.983 167.596 91.2703 167.596 90.3905V88.0075C167.59 87.1222 166.877 86.415 165.998 86.415H163.615C162.735 86.415 162.022 87.1277 162.022 88.0075Z" fill="black"/>
<path d="M189.193 86.415H183.625V91.983H189.193V86.415Z" fill="black"/>
<path d="M189.026 91.9827V86.4147H192.701C193.746 86.4147 194.594 87.2623 194.594 88.3078V91.9827H189.026Z" fill="black"/>
<path d="M10.8015 97.3831V93.7082C10.8015 92.6627 11.649 91.8151 12.6945 91.8151H14.4762C15.5217 91.8151 16.3693 92.6627 16.3693 93.7082V97.3831H10.8015Z" fill="black"/>
<path d="M32.5715 91.8154V95.4903C32.5715 96.5358 31.724 97.3834 30.6785 97.3834H28.8968C27.8513 97.3834 27.0037 96.5358 27.0037 95.4903V91.8154H32.5715Z" fill="black"/>
<path d="M48.7737 91.8154V97.3834H45.099C44.0535 97.3834 43.2059 96.5358 43.2059 95.4903V91.8154H48.7737Z" fill="black"/>
<path d="M48.6067 97.3831V91.8151H52.2814C53.3269 91.8151 54.1744 92.6627 54.1744 93.7082V97.3831H48.6067Z" fill="black"/>
<path d="M57.877 97.2719V97.3833H59.5752V95.6851H59.4638C59.4638 96.5648 58.7512 97.2719 57.877 97.2719Z" fill="black"/>
<path d="M64.9759 97.3831H59.4081V93.7082C59.4081 92.6627 60.2557 91.8151 61.3012 91.8151H64.9759V97.3831Z" fill="black"/>
<path d="M64.8089 97.3831V91.8151H68.4836C69.5291 91.8151 70.3766 92.6627 70.3766 93.7082V97.3831H64.8089Z" fill="black"/>
<path d="M102.781 91.8154V95.4903C102.781 96.5358 101.934 97.3834 100.888 97.3834H99.1064C98.0609 97.3834 97.2133 96.5358 97.2133 95.4903V91.8154H102.781Z" fill="black"/>
<path d="M122.686 97.2719V97.3833H124.384V95.6851H124.273C124.273 96.5648 123.56 97.2719 122.686 97.2719Z" fill="black"/>
<path d="M129.785 91.8154H124.217V97.3834H129.785V91.8154Z" fill="black"/>
<path d="M129.618 97.3831V91.8151H133.292C134.338 91.8151 135.186 92.6627 135.186 93.7082V97.3831H129.618Z" fill="black"/>
<path d="M145.987 91.8154H140.419V97.3834H145.987V91.8154Z" fill="black"/>
<path d="M151.388 91.8154H145.82V97.3834H151.388V91.8154Z" fill="black"/>
<path d="M156.621 93.4079V95.7965C156.621 96.6762 157.334 97.3834 158.214 97.3834H160.602C161.488 97.3834 162.195 96.6707 162.195 95.7909V93.4079C162.189 92.5226 161.477 91.8154 160.597 91.8154H158.214C157.334 91.8154 156.621 92.5281 156.621 93.4079Z" fill="black"/>
<path d="M183.792 97.3831H180.117C179.072 97.3831 178.224 96.5355 178.224 95.49V93.7082C178.224 92.6627 179.072 91.8151 180.117 91.8151H183.792V97.3831Z" fill="black"/>
<path d="M189.193 91.8154H183.625V97.3834H189.193V91.8154Z" fill="black"/>
<path d="M189.026 91.8154H194.594V95.4903C194.594 96.5358 193.746 97.3834 192.701 97.3834H189.026V91.8154Z" fill="black"/>
<path d="M16.3693 97.2158V100.891C16.3693 101.936 15.5217 102.784 14.4762 102.784H12.6945C11.649 102.784 10.8015 101.936 10.8015 100.891V97.2158H16.3693Z" fill="black"/>
<path d="M21.603 98.8082V101.197C21.603 102.077 22.3156 102.784 23.1953 102.784H25.5839C26.4692 102.784 27.1763 102.071 27.1763 101.191V98.8082C27.1707 97.9229 26.4581 97.2158 25.5784 97.2158H23.1953C22.3156 97.2158 21.603 97.9285 21.603 98.8082Z" fill="black"/>
<path d="M32.4044 98.8082V101.197C32.4044 102.077 33.1171 102.784 33.9968 102.784H36.3854C37.2707 102.784 37.9778 102.071 37.9778 101.191V98.8082C37.9722 97.9229 37.2595 97.2158 36.3798 97.2158H33.9968C33.1171 97.2158 32.4044 97.9285 32.4044 98.8082Z" fill="black"/>
<path d="M54.1744 97.2158H48.6067V102.784H54.1744V97.2158Z" fill="black"/>
<path d="M59.5752 97.2158H54.0074V102.784H59.5752V97.2158Z" fill="black"/>
<path d="M64.9759 97.2158H59.4081V102.784H64.9759V97.2158Z" fill="black"/>
<path d="M70.3767 97.2158H64.8089V102.784H70.3767V97.2158Z" fill="black"/>
<path d="M70.2096 102.785V97.2167H73.8844C74.9299 97.2167 75.7774 98.0643 75.7774 99.1098V102.785H70.2096Z" fill="black"/>
<path d="M86.4118 98.8082V101.197C86.4118 102.077 87.1245 102.784 88.0042 102.784H90.3928C91.2781 102.784 91.9852 102.071 91.9852 101.191V98.8082C91.9796 97.9229 91.2669 97.2158 90.3872 97.2158H88.0042C87.1245 97.2158 86.4118 97.9285 86.4118 98.8082Z" fill="black"/>
<path d="M101.083 102.672V102.784H102.781V101.085H102.67C102.67 101.965 101.957 102.672 101.083 102.672Z" fill="black"/>
<path d="M108.182 102.785H102.614V99.1098C102.614 98.0643 103.462 97.2167 104.507 97.2167H108.182V102.785Z" fill="black"/>
<path d="M113.583 97.2158H108.015V102.784H113.583V97.2158Z" fill="black"/>
<path d="M118.983 97.2158H113.416V102.784H118.983V97.2158Z" fill="black"/>
<path d="M124.384 97.2158H118.816V102.784H124.384V97.2158Z" fill="black"/>
<path d="M124.217 97.2158H129.785V100.891C129.785 101.936 128.937 102.784 127.892 102.784H124.217V97.2158Z" fill="black"/>
<path d="M145.987 97.2158V102.784H142.312C141.267 102.784 140.419 101.936 140.419 100.891V97.2158H145.987Z" fill="black"/>
<path d="M151.388 97.2158H145.82V102.784H151.388V97.2158Z" fill="black"/>
<path d="M167.59 102.785H162.022V99.1098C162.022 98.0643 162.87 97.2167 163.915 97.2167H167.59V102.785Z" fill="black"/>
<path d="M172.991 97.2158H167.423V102.784H172.991V97.2158Z" fill="black"/>
<path d="M172.824 102.785V97.2167H176.498C177.544 97.2167 178.391 98.0643 178.391 99.1098V102.785H172.824Z" fill="black"/>
<path d="M189.193 97.2158V100.891C189.193 101.936 188.345 102.784 187.3 102.784H185.518C184.473 102.784 183.625 101.936 183.625 100.891V97.2158H189.193Z" fill="black"/>
<path d="M194.427 102.785V99.1098C194.427 98.0643 195.274 97.2167 196.32 97.2167H198.101C199.147 97.2167 199.994 98.0643 199.994 99.1098V102.785H194.427Z" fill="black"/>
<path d="M5.40076 104.21V106.599C5.40076 107.478 6.11343 108.185 6.99314 108.185H9.38172C10.267 108.185 10.9741 107.473 10.9741 106.593V104.21C10.9685 103.325 10.2559 102.617 9.37615 102.617H6.99314C6.11343 102.617 5.40076 103.33 5.40076 104.21Z" fill="black"/>
<path d="M14.6711 108.074V108.185H16.3693V106.487H16.2579C16.2579 107.367 15.5452 108.074 14.6711 108.074Z" fill="black"/>
<path d="M16.2022 108.185V104.51C16.2022 103.465 17.0498 102.617 18.0953 102.617H19.8769C20.9224 102.617 21.77 103.465 21.77 104.51V108.185H16.2022Z" fill="black"/>
<path d="M27.0037 108.185V104.51C27.0037 103.465 27.8513 102.617 28.8968 102.617H30.6785C31.724 102.617 32.5715 103.465 32.5715 104.51V108.185H27.0037Z" fill="black"/>
<path d="M36.274 108.074V108.185H37.9722V106.487H37.8609C37.8609 107.367 37.1482 108.074 36.274 108.074Z" fill="black"/>
<path d="M43.373 108.185H37.8052V104.51C37.8052 103.465 38.6527 102.617 39.6982 102.617H43.373V108.185Z" fill="black"/>
<path d="M48.7737 102.617H43.2059V108.185H48.7737V102.617Z" fill="black"/>
<path d="M48.6067 102.617H54.1744V106.292C54.1744 107.338 53.3269 108.185 52.2814 108.185H48.6067V102.617Z" fill="black"/>
<path d="M70.3767 102.617V108.185H66.7019C65.6564 108.185 64.8089 107.338 64.8089 106.292V102.617H70.3767Z" fill="black"/>
<path d="M75.7774 102.617H70.2096V108.185H75.7774V102.617Z" fill="black"/>
<path d="M81.0111 104.21V106.599C81.0111 107.478 81.7238 108.185 82.6035 108.185H84.9921C85.8773 108.185 86.5844 107.473 86.5844 106.593V104.21C86.5789 103.325 85.8662 102.617 84.9865 102.617H82.6035C81.7238 102.617 81.0111 103.33 81.0111 104.21Z" fill="black"/>
<path d="M90.2815 108.074V108.185H91.9796V106.487H91.8683C91.8683 107.367 91.1556 108.074 90.2815 108.074Z" fill="black"/>
<path d="M97.3804 108.185H91.8126V104.51C91.8126 103.465 92.6601 102.617 93.7056 102.617H97.3804V108.185Z" fill="black"/>
<path d="M102.781 102.617H97.2133V108.185H102.781V102.617Z" fill="black"/>
<path d="M108.182 102.617H102.614V108.185H108.182V102.617Z" fill="black"/>
<path d="M108.015 102.617H113.583V106.292C113.583 107.338 112.735 108.185 111.69 108.185H108.015V102.617Z" fill="black"/>
<path d="M124.384 102.617V106.292C124.384 107.338 123.537 108.185 122.491 108.185H120.709C119.664 108.185 118.816 107.338 118.816 106.292V102.617H124.384Z" fill="black"/>
<path d="M135.186 108.185H131.511C130.465 108.185 129.618 107.337 129.618 106.292V104.51C129.618 103.465 130.465 102.617 131.511 102.617H135.186V108.185Z" fill="black"/>
<path d="M135.019 108.185V102.617H138.693C139.739 102.617 140.586 103.465 140.586 104.51V108.185H135.019Z" fill="black"/>
<path d="M151.388 102.617V108.185H147.713C146.668 108.185 145.82 107.338 145.82 106.292V102.617H151.388Z" fill="black"/>
<path d="M151.221 108.185V102.617H154.895C155.941 102.617 156.789 103.465 156.789 104.51V108.185H151.221Z" fill="black"/>
<path d="M167.59 102.617H162.022V108.185H167.59V102.617Z" fill="black"/>
<path d="M178.391 102.617H172.824V108.185H178.391V102.617Z" fill="black"/>
<path d="M178.224 108.185V102.617H181.899C182.945 102.617 183.792 103.465 183.792 104.51V108.185H178.224Z" fill="black"/>
<path d="M192.896 108.074V108.185H194.594V106.487H194.482C194.482 107.367 193.77 108.074 192.896 108.074Z" fill="black"/>
<path d="M199.994 102.617H194.427V108.185H199.994V102.617Z" fill="black"/>
<path d="M16.3693 113.585H12.6945C11.649 113.585 10.8015 112.738 10.8015 111.692V109.911C10.8015 108.865 11.649 108.018 12.6945 108.018H16.3693V113.585Z" fill="black"/>
<path d="M16.2022 108.018H21.77V111.693C21.77 112.738 20.9224 113.586 19.8769 113.586H16.2022V108.018Z" fill="black"/>
<path d="M32.5715 108.018V113.586H28.8968C27.8513 113.586 27.0037 112.738 27.0037 111.693V108.018H32.5715Z" fill="black"/>
<path d="M37.9722 108.018H32.4044V113.586H37.9722V108.018Z" fill="black"/>
<path d="M37.8052 108.018H43.3729V111.693C43.3729 112.738 42.5254 113.586 41.4799 113.586H37.8052V108.018Z" fill="black"/>
<path d="M75.7774 108.018V113.586H72.1027C71.0572 113.586 70.2096 112.738 70.2096 111.693V108.018H75.7774Z" fill="black"/>
<path d="M75.6104 113.585V108.018H79.2851C80.3306 108.018 81.1781 108.865 81.1781 109.911V113.585H75.6104Z" fill="black"/>
<path d="M84.8807 113.474V113.586H86.5789V111.887H86.4675C86.4675 112.767 85.7548 113.474 84.8807 113.474Z" fill="black"/>
<path d="M91.9796 113.585H86.4119V109.911C86.4119 108.865 87.2594 108.018 88.3049 108.018H91.9796V113.585Z" fill="black"/>
<path d="M97.3804 108.018H91.8126V113.586H97.3804V108.018Z" fill="black"/>
<path d="M97.2133 108.018H102.781V111.693C102.781 112.738 101.934 113.586 100.888 113.586H97.2133V108.018Z" fill="black"/>
<path d="M140.419 109.61V111.999C140.419 112.879 141.132 113.586 142.012 113.586H144.4C145.285 113.586 145.993 112.873 145.993 111.993V109.61C145.987 108.725 145.274 108.018 144.395 108.018H142.012C141.132 108.018 140.419 108.731 140.419 109.61Z" fill="black"/>
<path d="M156.789 108.018H151.221V113.586H156.789V108.018Z" fill="black"/>
<path d="M167.59 108.018V111.693C167.59 112.738 166.742 113.586 165.697 113.586H163.915C162.87 113.586 162.022 112.738 162.022 111.693V108.018H167.59Z" fill="black"/>
<path d="M171.293 113.474V113.586H172.991V111.887H172.879C172.879 112.767 172.167 113.474 171.293 113.474Z" fill="black"/>
<path d="M178.391 108.018H172.824V113.586H178.391V108.018Z" fill="black"/>
<path d="M194.594 113.585H190.919C189.873 113.585 189.026 112.738 189.026 111.692V109.911C189.026 108.865 189.873 108.018 190.919 108.018H194.594V113.585Z" fill="black"/>
<path d="M194.427 108.018H199.994V111.693C199.994 112.738 199.147 113.586 198.101 113.586H194.427V108.018Z" fill="black"/>
<path d="M5.56778 118.987H6.10948e-06L6.10948e-06 115.312C6.10948e-06 114.267 0.84755 113.419 1.89305 113.419H5.56778L5.56778 118.987Z" fill="black"/>
<path d="M5.40076 118.987V113.419H9.07549C10.121 113.419 10.9685 114.267 10.9685 115.312V118.987H5.40076Z" fill="black"/>
<path d="M21.603 115.012V117.401C21.603 118.28 22.3156 118.987 23.1953 118.987H25.5839C26.4692 118.987 27.1763 118.275 27.1763 117.395V115.012C27.1707 114.127 26.4581 113.419 25.5784 113.419H23.1953C22.3156 113.419 21.603 114.132 21.603 115.012Z" fill="black"/>
<path d="M47.0755 118.876V118.987H48.7737V117.289H48.6623C48.6623 118.169 47.9497 118.876 47.0755 118.876Z" fill="black"/>
<path d="M48.6067 118.987V115.312C48.6067 114.267 49.4542 113.419 50.4997 113.419H52.2814C53.3269 113.419 54.1744 114.267 54.1744 115.312V118.987H48.6067Z" fill="black"/>
<path d="M64.8089 118.987V115.312C64.8089 114.267 65.6564 113.419 66.7019 113.419H68.4836C69.5291 113.419 70.3766 114.267 70.3766 115.312V118.987H64.8089Z" fill="black"/>
<path d="M86.5789 118.987H81.0111V115.312C81.0111 114.267 81.8587 113.419 82.9042 113.419H86.5789V118.987Z" fill="black"/>
<path d="M91.9796 113.419H86.4118V118.987H91.9796V113.419Z" fill="black"/>
<path d="M97.3804 113.419H91.8126V118.987H97.3804V113.419Z" fill="black"/>
<path d="M124.384 118.987H118.816V115.312C118.816 114.267 119.664 113.419 120.709 113.419H124.384V118.987Z" fill="black"/>
<path d="M129.785 113.419H124.217V118.987H129.785V113.419Z" fill="black"/>
<path d="M129.618 118.987V113.419H133.292C134.338 113.419 135.186 114.267 135.186 115.312V118.987H129.618Z" fill="black"/>
<path d="M144.289 118.876V118.987H145.987V117.289H145.876C145.876 118.169 145.163 118.876 144.289 118.876Z" fill="black"/>
<path d="M151.388 118.987H145.82V115.312C145.82 114.267 146.668 113.419 147.713 113.419H151.388V118.987Z" fill="black"/>
<path d="M156.789 113.419H151.221V118.987H156.789V113.419Z" fill="black"/>
<path d="M156.621 118.987V113.419H160.296C161.342 113.419 162.189 114.267 162.189 115.312V118.987H156.621Z" fill="black"/>
<path d="M172.991 118.987H169.316C168.27 118.987 167.423 118.139 167.423 117.094V115.312C167.423 114.267 168.27 113.419 169.316 113.419H172.991V118.987Z" fill="black"/>
<path d="M178.391 113.419H172.824V118.987H178.391V113.419Z" fill="black"/>
<path d="M183.792 113.419H178.224V118.987H183.792V113.419Z" fill="black"/>
<path d="M183.625 118.987V113.419H187.3C188.345 113.419 189.193 114.267 189.193 115.312V118.987H183.625Z" fill="black"/>
<path d="M5.56778 118.82V124.388H1.89305C0.84755 124.388 6.10948e-06 123.54 6.10948e-06 122.495V118.82H5.56778Z" fill="black"/>
<path d="M10.9685 118.82H5.40076V124.388H10.9685V118.82Z" fill="black"/>
<path d="M14.6711 124.276V124.388H16.3693V122.689H16.2579C16.2579 123.569 15.5452 124.276 14.6711 124.276Z" fill="black"/>
<path d="M16.2022 124.387V120.713C16.2022 119.667 17.0498 118.82 18.0953 118.82H19.8769C20.9224 118.82 21.77 119.667 21.77 120.713V124.387H16.2022Z" fill="black"/>
<path d="M32.5715 124.387H28.8968C27.8513 124.387 27.0037 123.54 27.0037 122.494V120.713C27.0037 119.667 27.8513 118.82 28.8968 118.82H32.5715V124.387Z" fill="black"/>
<path d="M37.9722 118.82H32.4044V124.388H37.9722V118.82Z" fill="black"/>
<path d="M43.3729 118.82H37.8052V124.388H43.3729V118.82Z" fill="black"/>
<path d="M48.7737 118.82H43.2059V124.388H48.7737V118.82Z" fill="black"/>
<path d="M54.1744 118.82H48.6067V124.388H54.1744V118.82Z" fill="black"/>
<path d="M54.0074 124.387V118.82H57.6821C58.7276 118.82 59.5752 119.667 59.5752 120.713V124.387H54.0074Z" fill="black"/>
<path d="M63.2777 124.276V124.388H64.9759V122.689H64.8646C64.8646 123.569 64.1519 124.276 63.2777 124.276Z" fill="black"/>
<path d="M70.3767 118.82H64.8089V124.388H70.3767V118.82Z" fill="black"/>
<path d="M86.5789 118.82V124.388H82.9041C81.8586 124.388 81.0111 123.54 81.0111 122.495V118.82H86.5789Z" fill="black"/>
<path d="M91.9796 118.82H86.4118V124.388H91.9796V118.82Z" fill="black"/>
<path d="M97.3804 118.82H91.8126V124.388H97.3804V118.82Z" fill="black"/>
<path d="M108.015 124.387V120.713C108.015 119.667 108.862 118.82 109.908 118.82H111.69C112.735 118.82 113.583 119.667 113.583 120.713V124.387H108.015Z" fill="black"/>
<path d="M124.384 118.82H118.816V124.388H124.384V118.82Z" fill="black"/>
<path d="M129.785 118.82H124.217V124.388H129.785V118.82Z" fill="black"/>
<path d="M145.987 124.387H140.419V120.713C140.419 119.667 141.267 118.82 142.312 118.82H145.987V124.387Z" fill="black"/>
<path d="M151.388 118.82H145.82V124.388H151.388V118.82Z" fill="black"/>
<path d="M178.391 118.82V122.495C178.391 123.54 177.544 124.388 176.498 124.388H174.717C173.671 124.388 172.824 123.54 172.824 122.495V118.82H178.391Z" fill="black"/>
<path d="M192.896 124.276V124.388H194.594V122.689H194.482C194.482 123.569 193.77 124.276 192.896 124.276Z" fill="black"/>
<path d="M194.427 124.387V120.713C194.427 119.667 195.274 118.82 196.32 118.82H198.101C199.147 118.82 199.994 119.667 199.994 120.713V124.387H194.427Z" fill="black"/>
<path d="M10.9685 124.22V129.788H7.29381C6.24831 129.788 5.40076 128.941 5.40076 127.895V124.22H10.9685Z" fill="black"/>
<path d="M16.3693 124.22H10.8015V129.788H16.3693V124.22Z" fill="black"/>
<path d="M21.77 124.22H16.2022V129.788H21.77V124.22Z" fill="black"/>
<path d="M43.3729 124.22H37.8052V129.788H43.3729V124.22Z" fill="black"/>
<path d="M59.5752 124.22H54.0074V129.788H59.5752V124.22Z" fill="black"/>
<path d="M64.9759 124.22H59.4081V129.788H64.9759V124.22Z" fill="black"/>
<path d="M70.3767 124.22H64.8089V129.788H70.3767V124.22Z" fill="black"/>
<path d="M70.2096 129.789V124.221H73.8844C74.9299 124.221 75.7774 125.069 75.7774 126.114V129.789H70.2096Z" fill="black"/>
<path d="M91.9796 124.22H86.4118V129.788H91.9796V124.22Z" fill="black"/>
<path d="M97.3804 124.22H91.8126V129.788H97.3804V124.22Z" fill="black"/>
<path d="M113.583 124.22V127.895C113.583 128.941 112.735 129.788 111.69 129.788H109.908C108.862 129.788 108.015 128.941 108.015 127.895V124.22H113.583Z" fill="black"/>
<path d="M124.384 124.22H118.816V129.788H124.384V124.22Z" fill="black"/>
<path d="M124.217 124.22H129.785V127.895C129.785 128.941 128.937 129.788 127.892 129.788H124.217V124.22Z" fill="black"/>
<path d="M138.888 129.677V129.788H140.586V128.09H140.475C140.475 128.97 139.762 129.677 138.888 129.677Z" fill="black"/>
<path d="M145.987 124.22H140.419V129.788H145.987V124.22Z" fill="black"/>
<path d="M151.388 124.22H145.82V129.788H151.388V124.22Z" fill="black"/>
<path d="M151.221 129.789V124.221H154.895C155.941 124.221 156.789 125.069 156.789 126.114V129.789H151.221Z" fill="black"/>
<path d="M167.59 129.789H162.022V126.114C162.022 125.069 162.87 124.221 163.915 124.221H167.59V129.789Z" fill="black"/>
<path d="M167.423 129.789V124.221H171.098C172.143 124.221 172.991 125.069 172.991 126.114V129.789H167.423Z" fill="black"/>
<path d="M183.792 129.789H180.117C179.072 129.789 178.224 128.941 178.224 127.896V126.114C178.224 125.069 179.072 124.221 180.117 124.221H183.792V129.789Z" fill="black"/>
<path d="M189.193 124.22H183.625V129.788H189.193V124.22Z" fill="black"/>
<path d="M194.594 124.22H189.026V129.788H194.594V124.22Z" fill="black"/>
<path d="M199.994 124.22H194.427V129.788H199.994V124.22Z" fill="black"/>
<path d="M0 135.189L0 131.515C0 130.469 0.847544 129.622 1.89304 129.622H3.67473C4.72023 129.622 5.56777 130.469 5.56777 131.515V135.189H0Z" fill="black"/>
<path d="M21.77 129.622V133.297C21.77 134.342 20.9224 135.19 19.8769 135.19H18.0953C17.0498 135.19 16.2022 134.342 16.2022 133.297V129.622H21.77Z" fill="black"/>
<path d="M32.5715 135.189H28.8968C27.8513 135.189 27.0037 134.342 27.0037 133.296V131.515C27.0037 130.469 27.8513 129.622 28.8968 129.622H32.5715V135.189Z" fill="black"/>
<path d="M37.9722 129.622H32.4044V135.19H37.9722V129.622Z" fill="black"/>
<path d="M43.3729 129.622H37.8052V135.19H43.3729V129.622Z" fill="black"/>
<path d="M43.2059 135.189V129.622H46.8807C47.9262 129.622 48.7737 130.469 48.7737 131.515V135.189H43.2059Z" fill="black"/>
<path d="M59.5752 129.622V135.19H55.9005C54.855 135.19 54.0074 134.342 54.0074 133.297V129.622H59.5752Z" fill="black"/>
<path d="M59.4081 129.622H64.9759V133.297C64.9759 134.342 64.1284 135.19 63.0829 135.19H59.4081V129.622Z" fill="black"/>
<path d="M75.7774 129.622H70.2096V135.19H75.7774V129.622Z" fill="black"/>
<path d="M81.1781 129.622H75.6104V135.19H81.1781V129.622Z" fill="black"/>
<path d="M86.5789 129.622H81.0111V135.19H86.5789V129.622Z" fill="black"/>
<path d="M91.9796 129.622H86.4118V135.19H91.9796V129.622Z" fill="black"/>
<path d="M97.3804 129.622H91.8126V135.19H97.3804V129.622Z" fill="black"/>
<path d="M102.614 131.214V133.603C102.614 134.483 103.327 135.19 104.206 135.19H106.595C107.48 135.19 108.187 134.477 108.187 133.597V131.214C108.182 130.329 107.469 129.622 106.589 129.622H104.206C103.327 129.622 102.614 130.335 102.614 131.214Z" fill="black"/>
<path d="M124.384 129.622H118.816V135.19H124.384V129.622Z" fill="black"/>
<path d="M140.586 135.189H135.019V131.515C135.019 130.469 135.866 129.622 136.912 129.622H140.586V135.189Z" fill="black"/>
<path d="M140.419 129.622H145.987V133.297C145.987 134.342 145.139 135.19 144.094 135.19H140.419V129.622Z" fill="black"/>
<path d="M160.491 135.078V135.19H162.189V133.491H162.078C162.078 134.371 161.365 135.078 160.491 135.078Z" fill="black"/>
<path d="M167.59 129.622H162.022V135.19H167.59V129.622Z" fill="black"/>
<path d="M167.423 129.622H172.991V133.297C172.991 134.342 172.143 135.19 171.098 135.19H167.423V129.622Z" fill="black"/>
<path d="M189.193 129.622H183.625V135.19H189.193V129.622Z" fill="black"/>
<path d="M194.594 129.622H189.026V135.19H194.594V129.622Z" fill="black"/>
<path d="M194.427 129.622H199.994V133.297C199.994 134.342 199.147 135.19 198.101 135.19H194.427V129.622Z" fill="black"/>
<path d="M5.56777 135.022H0V140.59H5.56777V135.022Z" fill="black"/>
<path d="M5.40076 140.591V135.023H9.07549C10.121 135.023 10.9685 135.871 10.9685 136.916V140.591H5.40076Z" fill="black"/>
<path d="M48.7737 135.022H43.2059V140.59H48.7737V135.022Z" fill="black"/>
<path d="M70.3767 140.591H66.7019C65.6564 140.591 64.8089 139.743 64.8089 138.698V136.916C64.8089 135.871 65.6564 135.023 66.7019 135.023H70.3767V140.591Z" fill="black"/>
<path d="M70.2096 135.022H75.7774V138.697C75.7774 139.743 74.9299 140.59 73.8844 140.59H70.2096V135.022Z" fill="black"/>
<path d="M97.3804 135.022H91.8126V140.59H97.3804V135.022Z" fill="black"/>
<path d="M117.285 140.479V140.59H118.983V138.892H118.872C118.872 139.772 118.159 140.479 117.285 140.479Z" fill="black"/>
<path d="M124.384 135.022H118.816V140.59H124.384V135.022Z" fill="black"/>
<path d="M124.217 140.591V135.023H127.892C128.937 135.023 129.785 135.871 129.785 136.916V140.591H124.217Z" fill="black"/>
<path d="M133.487 140.479V140.59H135.186V138.892H135.074C135.074 139.772 134.362 140.479 133.487 140.479Z" fill="black"/>
<path d="M140.586 135.022H135.019V140.59H140.586V135.022Z" fill="black"/>
<path d="M156.789 140.591H153.114C152.068 140.591 151.221 139.743 151.221 138.698V136.916C151.221 135.871 152.068 135.023 153.114 135.023H156.789V140.591Z" fill="black"/>
<path d="M162.189 135.022H156.621V140.59H162.189V135.022Z" fill="black"/>
<path d="M167.59 135.022H162.022V140.59H167.59V135.022Z" fill="black"/>
<path d="M172.824 140.591V136.916C172.824 135.871 173.671 135.023 174.717 135.023H176.498C177.544 135.023 178.391 135.871 178.391 136.916V140.591H172.824Z" fill="black"/>
<path d="M189.193 135.022H183.625V140.59H189.193V135.022Z" fill="black"/>
<path d="M5.56777 140.424H0V145.992H5.56777V140.424Z" fill="black"/>
<path d="M5.40076 140.424H10.9685V144.099C10.9685 145.144 10.121 145.992 9.07549 145.992H5.40076V140.424Z" fill="black"/>
<path d="M21.77 145.991H18.0953C17.0498 145.991 16.2022 145.144 16.2022 144.098V142.317C16.2022 141.271 17.0498 140.424 18.0953 140.424H21.77V145.991Z" fill="black"/>
<path d="M21.603 145.991V140.424H25.2777C26.3232 140.424 27.1707 141.271 27.1707 142.317V145.991H21.603Z" fill="black"/>
<path d="M32.4044 142.016V144.405C32.4044 145.285 33.1171 145.992 33.9968 145.992H36.3854C37.2707 145.992 37.9778 145.279 37.9778 144.399V142.016C37.9722 141.131 37.2595 140.424 36.3798 140.424H33.9968C33.1171 140.424 32.4044 141.137 32.4044 142.016Z" fill="black"/>
<path d="M48.7737 140.424V144.099C48.7737 145.144 47.9262 145.992 46.8807 145.992H45.099C44.0535 145.992 43.2059 145.144 43.2059 144.099V140.424H48.7737Z" fill="black"/>
<path d="M54.0074 145.991V142.317C54.0074 141.271 54.855 140.424 55.9005 140.424H57.6821C58.7276 140.424 59.5752 141.271 59.5752 142.317V145.991H54.0074Z" fill="black"/>
<path d="M79.48 145.88V145.992H81.1781V144.293H81.0668C81.0668 145.173 80.3541 145.88 79.48 145.88Z" fill="black"/>
<path d="M81.0111 145.991V142.317C81.0111 141.271 81.8586 140.424 82.9041 140.424H84.6858C85.7313 140.424 86.5789 141.271 86.5789 142.317V145.991H81.0111Z" fill="black"/>
<path d="M97.3804 140.424V145.992H93.7056C92.6601 145.992 91.8126 145.144 91.8126 144.099V140.424H97.3804Z" fill="black"/>
<path d="M102.781 140.424H97.2133V145.992H102.781V140.424Z" fill="black"/>
<path d="M102.614 145.991V140.424H106.289C107.334 140.424 108.182 141.271 108.182 142.317V145.991H102.614Z" fill="black"/>
<path d="M118.983 145.991H115.309C114.263 145.991 113.416 145.144 113.416 144.098V142.317C113.416 141.271 114.263 140.424 115.309 140.424H118.983V145.991Z" fill="black"/>
<path d="M118.816 140.424H124.384V144.099C124.384 145.144 123.537 145.992 122.491 145.992H118.816V140.424Z" fill="black"/>
<path d="M135.186 145.991H131.511C130.465 145.991 129.618 145.144 129.618 144.098V142.317C129.618 141.271 130.465 140.424 131.511 140.424H135.186V145.991Z" fill="black"/>
<path d="M135.019 140.424H140.586V144.099C140.586 145.144 139.739 145.992 138.693 145.992H135.019V140.424Z" fill="black"/>
<path d="M145.82 142.016V144.405C145.82 145.285 146.533 145.992 147.412 145.992H149.801C150.686 145.992 151.393 145.279 151.393 144.399V142.016C151.388 141.131 150.675 140.424 149.795 140.424H147.412C146.533 140.424 145.82 141.137 145.82 142.016Z" fill="black"/>
<path d="M167.59 140.424V144.099C167.59 145.144 166.742 145.992 165.697 145.992H163.915C162.87 145.992 162.022 145.144 162.022 144.099V140.424H167.59Z" fill="black"/>
<path d="M171.293 145.88V145.992H172.991V144.293H172.879C172.879 145.173 172.167 145.88 171.293 145.88Z" fill="black"/>
<path d="M178.391 140.424H172.824V145.992H178.391V140.424Z" fill="black"/>
<path d="M182.094 145.88V145.992H183.792V144.293H183.681C183.681 145.173 182.968 145.88 182.094 145.88Z" fill="black"/>
<path d="M189.193 140.424H183.625V145.992H189.193V140.424Z" fill="black"/>
<path d="M194.594 140.424H189.026V145.992H194.594V140.424Z" fill="black"/>
<path d="M194.427 145.991V140.424H198.101C199.147 140.424 199.994 141.271 199.994 142.317V145.991H194.427Z" fill="black"/>
<path d="M5.56777 145.824H0V151.392H5.56777V145.824Z" fill="black"/>
<path d="M10.8015 151.392V147.717C10.8015 146.671 11.649 145.824 12.6945 145.824H14.4762C15.5217 145.824 16.3693 146.671 16.3693 147.717V151.392H10.8015Z" fill="black"/>
<path d="M27.1707 145.824V149.499C27.1707 150.545 26.3232 151.392 25.2777 151.392H23.496C22.4505 151.392 21.603 150.545 21.603 149.499V145.824H27.1707Z" fill="black"/>
<path d="M37.8052 147.417V149.805C37.8052 150.685 38.5179 151.392 39.3976 151.392H41.7861C42.6714 151.392 43.3785 150.679 43.3785 149.8V147.417C43.3729 146.531 42.6603 145.824 41.7806 145.824H39.3976C38.5179 145.824 37.8052 146.537 37.8052 147.417Z" fill="black"/>
<path d="M52.4763 151.281V151.392H54.1744V149.694H54.0631C54.0631 150.574 53.3504 151.281 52.4763 151.281Z" fill="black"/>
<path d="M59.5752 145.824H54.0074V151.392H59.5752V145.824Z" fill="black"/>
<path d="M64.9759 145.824H59.4081V151.392H64.9759V145.824Z" fill="black"/>
<path d="M70.3767 145.824H64.8089V151.392H70.3767V145.824Z" fill="black"/>
<path d="M75.7774 145.824H70.2096V151.392H75.7774V145.824Z" fill="black"/>
<path d="M81.1781 145.824H75.6104V151.392H81.1781V145.824Z" fill="black"/>
<path d="M81.0111 145.824H86.5789V149.499C86.5789 150.545 85.7313 151.392 84.6858 151.392H81.0111V145.824Z" fill="black"/>
<path d="M108.182 145.824V151.392H104.507C103.462 151.392 102.614 150.545 102.614 149.499V145.824H108.182Z" fill="black"/>
<path d="M108.015 151.392V145.824H111.69C112.735 145.824 113.583 146.671 113.583 147.717V151.392H108.015Z" fill="black"/>
<path d="M149.69 151.281V151.392H151.388V149.694H151.276C151.276 150.574 150.564 151.281 149.69 151.281Z" fill="black"/>
<path d="M156.789 151.392H151.221V147.717C151.221 146.671 152.068 145.824 153.114 145.824H156.789V151.392Z" fill="black"/>
<path d="M156.621 151.392V145.824H160.296C161.342 145.824 162.189 146.671 162.189 147.717V151.392H156.621Z" fill="black"/>
<path d="M165.892 151.281V151.392H167.59V149.694H167.479C167.479 150.574 166.766 151.281 165.892 151.281Z" fill="black"/>
<path d="M172.991 151.392H167.423V147.717C167.423 146.671 168.27 145.824 169.316 145.824H172.991V151.392Z" fill="black"/>
<path d="M178.391 145.824H172.824V151.392H178.391V145.824Z" fill="black"/>
<path d="M183.792 145.824H178.224V151.392H183.792V145.824Z" fill="black"/>
<path d="M189.193 145.824H183.625V151.392H189.193V145.824Z" fill="black"/>
<path d="M5.56778 151.225V154.899C5.56778 155.945 4.72024 156.793 3.67474 156.793H1.89305C0.84755 156.793 6.10948e-06 155.945 6.10948e-06 154.899V151.225H5.56778Z" fill="black"/>
<path d="M16.3693 151.225V156.793H12.6945C11.649 156.793 10.8015 155.945 10.8015 154.899V151.225H16.3693Z" fill="black"/>
<path d="M16.2022 156.793V151.226H19.8769C20.9224 151.226 21.77 152.073 21.77 153.119V156.793H16.2022Z" fill="black"/>
<path d="M32.4044 152.817V155.206C32.4044 156.085 33.1171 156.793 33.9968 156.793H36.3854C37.2707 156.793 37.9778 156.08 37.9778 155.2V152.817C37.9722 151.932 37.2595 151.225 36.3798 151.225H33.9968C33.1171 151.225 32.4044 151.937 32.4044 152.817Z" fill="black"/>
<path d="M54.1744 156.793H50.4997C49.4542 156.793 48.6067 155.946 48.6067 154.9V153.119C48.6067 152.073 49.4542 151.226 50.4997 151.226H54.1744V156.793Z" fill="black"/>
<path d="M59.5752 151.225H54.0074V156.793H59.5752V151.225Z" fill="black"/>
<path d="M64.9759 151.225H59.4081V156.793H64.9759V151.225Z" fill="black"/>
<path d="M81.1781 151.225V154.899C81.1781 155.945 80.3306 156.793 79.2851 156.793H77.5034C76.4579 156.793 75.6104 155.945 75.6104 154.899V151.225H81.1781Z" fill="black"/>
<path d="M91.9796 156.793H88.3049C87.2594 156.793 86.4119 155.946 86.4119 154.9V153.119C86.4119 152.073 87.2594 151.226 88.3049 151.226H91.9796V156.793Z" fill="black"/>
<path d="M91.8126 156.793V151.226H95.4873C96.5328 151.226 97.3804 152.073 97.3804 153.119V156.793H91.8126Z" fill="black"/>
<path d="M117.285 156.682V156.794H118.983V155.095H118.872C118.872 155.975 118.159 156.682 117.285 156.682Z" fill="black"/>
<path d="M124.384 156.793H118.816V153.119C118.816 152.073 119.664 151.226 120.709 151.226H124.384V156.793Z" fill="black"/>
<path d="M124.217 156.793V151.226H127.892C128.937 151.226 129.785 152.073 129.785 153.119V156.793H124.217Z" fill="black"/>
<path d="M135.019 152.817V155.206C135.019 156.085 135.731 156.793 136.611 156.793H138.999C139.885 156.793 140.592 156.08 140.592 155.2V152.817C140.586 151.932 139.874 151.225 138.994 151.225H136.611C135.731 151.225 135.019 151.937 135.019 152.817Z" fill="black"/>
<path d="M151.388 156.793H147.713C146.668 156.793 145.82 155.946 145.82 154.9V153.119C145.82 152.073 146.668 151.226 147.713 151.226H151.388V156.793Z" fill="black"/>
<path d="M156.789 151.225H151.221V156.793H156.789V151.225Z" fill="black"/>
<path d="M162.189 151.225H156.621V156.793H162.189V151.225Z" fill="black"/>
<path d="M167.59 151.225H162.022V156.793H167.59V151.225Z" fill="black"/>
<path d="M172.991 151.225H167.423V156.793H172.991V151.225Z" fill="black"/>
<path d="M178.391 151.225H172.824V156.793H178.391V151.225Z" fill="black"/>
<path d="M183.792 151.225H178.224V156.793H183.792V151.225Z" fill="black"/>
<path d="M189.193 151.225H183.625V156.793H189.193V151.225Z" fill="black"/>
<path d="M194.427 152.817V155.206C194.427 156.085 195.139 156.793 196.019 156.793H198.408C199.293 156.793 200 156.08 200 155.2V152.817C199.994 151.932 199.282 151.225 198.402 151.225H196.019C195.139 151.225 194.427 151.937 194.427 152.817Z" fill="black"/>
<path d="M43.2059 158.219V160.607C43.2059 161.487 43.9186 162.194 44.7983 162.194H47.1869C48.0722 162.194 48.7793 161.481 48.7793 160.602V158.219C48.7737 157.333 48.061 156.626 47.1813 156.626H44.7983C43.9186 156.626 43.2059 157.339 43.2059 158.219Z" fill="black"/>
<path d="M59.5752 156.626V162.194H55.9005C54.855 162.194 54.0074 161.347 54.0074 160.301V156.626H59.5752Z" fill="black"/>
<path d="M64.9759 156.626H59.4081V162.194H64.9759V156.626Z" fill="black"/>
<path d="M64.8089 162.194V156.626H68.4836C69.5291 156.626 70.3766 157.473 70.3766 158.519V162.194H64.8089Z" fill="black"/>
<path d="M81.0111 162.194V158.519C81.0111 157.473 81.8586 156.626 82.9041 156.626H84.6858C85.7313 156.626 86.5789 157.473 86.5789 158.519V162.194H81.0111Z" fill="black"/>
<path d="M97.3804 156.626V162.194H93.7056C92.6601 162.194 91.8126 161.347 91.8126 160.301V156.626H97.3804Z" fill="black"/>
<path d="M102.781 156.626H97.2133V162.194H102.781V156.626Z" fill="black"/>
<path d="M102.614 162.194V156.626H106.289C107.334 156.626 108.182 157.473 108.182 158.519V162.194H102.614Z" fill="black"/>
<path d="M118.983 162.194H115.309C114.263 162.194 113.416 161.346 113.416 160.301V158.519C113.416 157.473 114.263 156.626 115.309 156.626H118.983V162.194Z" fill="black"/>
<path d="M118.816 156.626H124.384V160.301C124.384 161.347 123.537 162.194 122.491 162.194H118.816V156.626Z" fill="black"/>
<path d="M138.888 162.083V162.194H140.586V160.496H140.475C140.475 161.376 139.762 162.083 138.888 162.083Z" fill="black"/>
<path d="M140.419 162.194V158.519C140.419 157.473 141.267 156.626 142.312 156.626H144.094C145.139 156.626 145.987 157.473 145.987 158.519V162.194H140.419Z" fill="black"/>
<path d="M156.789 156.626H151.221V162.194H156.789V156.626Z" fill="black"/>
<path d="M178.391 156.626H172.824V162.194H178.391V156.626Z" fill="black"/>
<path d="M183.792 156.626H178.224V162.194H183.792V156.626Z" fill="black"/>
<path d="M189.193 156.626H183.625V162.194H189.193V156.626Z" fill="black"/>
<path d="M189.026 162.194V156.626H192.701C193.746 156.626 194.594 157.473 194.594 158.519V162.194H189.026Z" fill="black"/>
<path d="M70.2096 163.619V166.008C70.2096 166.887 70.9223 167.595 71.802 167.595H74.1906C75.0759 167.595 75.783 166.882 75.783 166.002V163.619C75.7774 162.734 75.0647 162.027 74.185 162.027H71.802C70.9223 162.027 70.2096 162.739 70.2096 163.619Z" fill="black"/>
<path d="M86.5789 162.027H81.0111V167.595H86.5789V162.027Z" fill="black"/>
<path d="M86.4118 167.595V162.028H90.0866C91.1321 162.028 91.9796 162.875 91.9796 163.921V167.595H86.4118Z" fill="black"/>
<path d="M129.785 167.595H126.11C125.065 167.595 124.217 166.748 124.217 165.702V163.921C124.217 162.875 125.065 162.028 126.11 162.028H129.785V167.595Z" fill="black"/>
<path d="M135.186 162.027H129.618V167.595H135.186V162.027Z" fill="black"/>
<path d="M140.586 162.027H135.019V167.595H140.586V162.027Z" fill="black"/>
<path d="M140.419 162.027H145.987V165.701C145.987 166.747 145.139 167.595 144.094 167.595H140.419V162.027Z" fill="black"/>
<path d="M149.69 167.483V167.594H151.388V165.896H151.276C151.276 166.776 150.564 167.483 149.69 167.483Z" fill="black"/>
<path d="M156.789 162.027H151.221V167.595H156.789V162.027Z" fill="black"/>
<path d="M162.022 163.619V166.008C162.022 166.887 162.735 167.595 163.615 167.595H166.003C166.888 167.595 167.596 166.882 167.596 166.002V163.619C167.59 162.734 166.877 162.027 165.998 162.027H163.615C162.735 162.027 162.022 162.739 162.022 163.619Z" fill="black"/>
<path d="M178.391 162.027H172.824V167.595H178.391V162.027Z" fill="black"/>
<path d="M183.792 162.027H178.224V167.595H183.792V162.027Z" fill="black"/>
<path d="M183.625 162.027H189.193V165.701C189.193 166.747 188.345 167.595 187.3 167.595H183.625V162.027Z" fill="black"/>
<path d="M194.427 167.595V163.921C194.427 162.875 195.274 162.028 196.32 162.028H198.101C199.147 162.028 199.994 162.875 199.994 163.921V167.595H194.427Z" fill="black"/>
<path d="M43.2059 172.996V169.321C43.2059 168.275 44.0535 167.428 45.099 167.428H46.8807C47.9262 167.428 48.7737 168.275 48.7737 169.321V172.996H43.2059Z" fill="black"/>
<path d="M54.0074 172.996V169.321C54.0074 168.275 54.855 167.428 55.9005 167.428H57.6821C58.7276 167.428 59.5752 168.275 59.5752 169.321V172.996H54.0074Z" fill="black"/>
<path d="M64.8089 169.021V171.409C64.8089 172.289 65.5216 172.996 66.4013 172.996H68.7899C69.6751 172.996 70.3822 172.283 70.3822 171.404V169.021C70.3767 168.135 69.664 167.428 68.7843 167.428H66.4013C65.5216 167.428 64.8089 168.141 64.8089 169.021Z" fill="black"/>
<path d="M86.5789 167.428V172.996H82.9041C81.8586 172.996 81.0111 172.149 81.0111 171.103V167.428H86.5789Z" fill="black"/>
<path d="M91.9796 167.428H86.4118V172.996H91.9796V167.428Z" fill="black"/>
<path d="M97.3804 167.428H91.8126V172.996H97.3804V167.428Z" fill="black"/>
<path d="M102.781 167.428H97.2133V172.996H102.781V167.428Z" fill="black"/>
<path d="M108.182 167.428H102.614V172.996H108.182V167.428Z" fill="black"/>
<path d="M113.583 167.428H108.015V172.996H113.583V167.428Z" fill="black"/>
<path d="M113.416 172.996V167.428H117.09C118.136 167.428 118.983 168.275 118.983 169.321V172.996H113.416Z" fill="black"/>
<path d="M135.186 167.428H129.618V172.996H135.186V167.428Z" fill="black"/>
<path d="M135.019 167.428H140.586V171.103C140.586 172.149 139.739 172.996 138.693 172.996H135.019V167.428Z" fill="black"/>
<path d="M151.388 172.996H145.82V169.321C145.82 168.275 146.668 167.428 147.713 167.428H151.388V172.996Z" fill="black"/>
<path d="M156.789 167.428H151.221V172.996H156.789V167.428Z" fill="black"/>
<path d="M171.293 172.885V172.996H172.991V171.298H172.879C172.879 172.178 172.167 172.885 171.293 172.885Z" fill="black"/>
<path d="M178.391 167.428H172.824V172.996H178.391V167.428Z" fill="black"/>
<path d="M178.224 167.428H183.792V171.103C183.792 172.149 182.945 172.996 181.899 172.996H178.224V167.428Z" fill="black"/>
<path d="M192.896 172.885V172.996H194.594V171.298H194.482C194.482 172.178 193.77 172.885 192.896 172.885Z" fill="black"/>
<path d="M199.994 167.428H194.427V172.996H199.994V167.428Z" fill="black"/>
<path d="M48.7737 172.829H43.2059V178.397H48.7737V172.829Z" fill="black"/>
<path d="M59.5752 172.829V178.397H55.9005C54.855 178.397 54.0074 177.549 54.0074 176.503V172.829H59.5752Z" fill="black"/>
<path d="M59.4081 178.396V172.828H63.0829C64.1284 172.828 64.9759 173.676 64.9759 174.721V178.396H59.4081Z" fill="black"/>
<path d="M74.0793 178.285V178.396H75.7774V176.698H75.6661C75.6661 177.578 74.9534 178.285 74.0793 178.285Z" fill="black"/>
<path d="M75.6104 178.396V174.721C75.6104 173.676 76.4579 172.828 77.5034 172.828H79.2851C80.3306 172.828 81.1781 173.676 81.1781 174.721V178.396H75.6104Z" fill="black"/>
<path d="M97.3804 172.829H91.8126V178.397H97.3804V172.829Z" fill="black"/>
<path d="M108.182 172.829V178.397H104.507C103.462 178.397 102.614 177.549 102.614 176.503V172.829H108.182Z" fill="black"/>
<path d="M113.583 172.829H108.015V178.397H113.583V172.829Z" fill="black"/>
<path d="M118.983 172.829H113.416V178.397H118.983V172.829Z" fill="black"/>
<path d="M135.186 172.829V176.503C135.186 177.549 134.338 178.397 133.293 178.397H131.511C130.465 178.397 129.618 177.549 129.618 176.503V172.829H135.186Z" fill="black"/>
<path d="M151.388 172.829H145.82V178.397H151.388V172.829Z" fill="black"/>
<path d="M156.789 172.829H151.221V178.397H156.789V172.829Z" fill="black"/>
<path d="M162.189 172.829H156.621V178.397H162.189V172.829Z" fill="black"/>
<path d="M167.59 172.829H162.022V178.397H167.59V172.829Z" fill="black"/>
<path d="M172.991 172.829H167.423V178.397H172.991V172.829Z" fill="black"/>
<path d="M172.824 172.829H178.391V176.503C178.391 177.549 177.544 178.397 176.498 178.397H172.824V172.829Z" fill="black"/>
<path d="M187.495 178.285V178.396H189.193V176.698H189.082C189.082 177.578 188.369 178.285 187.495 178.285Z" fill="black"/>
<path d="M194.594 178.396H189.026V174.721C189.026 173.676 189.873 172.828 190.919 172.828H194.594V178.396Z" fill="black"/>
<path d="M194.427 172.829H199.994V176.503C199.994 177.549 199.147 178.397 198.101 178.397H194.427V172.829Z" fill="black"/>
<path d="M48.7737 178.229V181.904C48.7737 182.949 47.9262 183.797 46.8807 183.797H45.099C44.0535 183.797 43.2059 182.949 43.2059 181.904V178.229H48.7737Z" fill="black"/>
<path d="M75.7774 183.798H72.1027C71.0572 183.798 70.2096 182.95 70.2096 181.905V180.123C70.2096 179.077 71.0572 178.23 72.1027 178.23H75.7774V183.798Z" fill="black"/>
<path d="M81.1781 178.229H75.6104V183.797H81.1781V178.229Z" fill="black"/>
<path d="M86.5789 178.229H81.0111V183.797H86.5789V178.229Z" fill="black"/>
<path d="M91.9796 178.229H86.4118V183.797H91.9796V178.229Z" fill="black"/>
<path d="M97.3804 178.229H91.8126V183.797H97.3804V178.229Z" fill="black"/>
<path d="M97.2133 183.798V178.23H100.888C101.934 178.23 102.781 179.077 102.781 180.123V183.798H97.2133Z" fill="black"/>
<path d="M113.583 178.229V183.797H109.908C108.862 183.797 108.015 182.949 108.015 181.904V178.229H113.583Z" fill="black"/>
<path d="M118.983 178.229H113.416V183.797H118.983V178.229Z" fill="black"/>
<path d="M118.816 183.798V178.23H122.491C123.537 178.23 124.384 179.077 124.384 180.123V183.798H118.816Z" fill="black"/>
<path d="M144.289 183.687V183.798H145.987V182.1H145.876C145.876 182.98 145.163 183.687 144.289 183.687Z" fill="black"/>
<path d="M151.388 178.229H145.82V183.797H151.388V178.229Z" fill="black"/>
<path d="M151.221 178.229H156.789V181.904C156.789 182.949 155.941 183.797 154.895 183.797H151.221V178.229Z" fill="black"/>
<path d="M167.59 178.229V183.797H163.915C162.87 183.797 162.022 182.949 162.022 181.904V178.229H167.59Z" fill="black"/>
<path d="M167.423 178.229H172.991V181.904C172.991 182.949 172.143 183.797 171.098 183.797H167.423V178.229Z" fill="black"/>
<path d="M189.193 183.798H183.625V180.123C183.625 179.077 184.473 178.23 185.518 178.23H189.193V183.798Z" fill="black"/>
<path d="M194.594 178.229H189.026V183.797H194.594V178.229Z" fill="black"/>
<path d="M54.0074 185.223V187.612C54.0074 188.491 54.7201 189.199 55.5998 189.199H57.9884C58.8737 189.199 59.5808 188.486 59.5808 187.606V185.223C59.5752 184.338 58.8625 183.631 57.9828 183.631H55.5998C54.7201 183.631 54.0074 184.343 54.0074 185.223Z" fill="black"/>
<path d="M63.2777 189.087V189.198H64.9759V187.5H64.8646C64.8646 188.38 64.1519 189.087 63.2777 189.087Z" fill="black"/>
<path d="M64.8089 189.198V185.523C64.8089 184.478 65.6564 183.63 66.7019 183.63H68.4836C69.5291 183.63 70.3766 184.478 70.3766 185.523V189.198H64.8089Z" fill="black"/>
<path d="M74.0793 189.087V189.198H75.7774V187.5H75.6661C75.6661 188.38 74.9534 189.087 74.0793 189.087Z" fill="black"/>
<path d="M81.1781 183.631H75.6104V189.199H81.1781V183.631Z" fill="black"/>
<path d="M97.3804 183.631H91.8126V189.199H97.3804V183.631Z" fill="black"/>
<path d="M102.781 183.631H97.2133V189.199H102.781V183.631Z" fill="black"/>
<path d="M118.983 183.631V189.199H115.309C114.263 189.199 113.416 188.351 113.416 187.305V183.631H118.983Z" fill="black"/>
<path d="M118.816 183.631H124.384V187.305C124.384 188.351 123.537 189.199 122.491 189.199H118.816V183.631Z" fill="black"/>
<path d="M135.186 189.198H131.511C130.465 189.198 129.618 188.351 129.618 187.305V185.523C129.618 184.478 130.465 183.63 131.511 183.63H135.186V189.198Z" fill="black"/>
<path d="M140.586 183.631H135.019V189.199H140.586V183.631Z" fill="black"/>
<path d="M145.987 183.631H140.419V189.199H145.987V183.631Z" fill="black"/>
<path d="M145.82 183.631H151.388V187.305C151.388 188.351 150.54 189.199 149.495 189.199H145.82V183.631Z" fill="black"/>
<path d="M171.293 189.087V189.198H172.991V187.5H172.879C172.879 188.38 172.167 189.087 171.293 189.087Z" fill="black"/>
<path d="M172.824 189.198V185.523C172.824 184.478 173.671 183.63 174.717 183.63H176.498C177.544 183.63 178.391 184.478 178.391 185.523V189.198H172.824Z" fill="black"/>
<path d="M182.094 189.087V189.198H183.792V187.5H183.681C183.681 188.38 182.968 189.087 182.094 189.087Z" fill="black"/>
<path d="M189.193 183.631H183.625V189.199H189.193V183.631Z" fill="black"/>
<path d="M194.594 183.631H189.026V189.199H194.594V183.631Z" fill="black"/>
<path d="M194.427 189.198V183.63H198.101C199.147 183.63 199.994 184.478 199.994 185.523V189.198H194.427Z" fill="black"/>
<path d="M48.7737 194.6H45.099C44.0535 194.6 43.2059 193.752 43.2059 192.707V190.925C43.2059 189.879 44.0535 189.032 45.099 189.032H48.7737V194.6Z" fill="black"/>
<path d="M48.6067 194.6V189.032H52.2814C53.3269 189.032 54.1744 189.879 54.1744 190.925V194.6H48.6067Z" fill="black"/>
<path d="M57.877 194.487V194.599H59.5752V192.901H59.4638C59.4638 193.78 58.7512 194.487 57.877 194.487Z" fill="black"/>
<path d="M64.9759 194.6H59.4081V190.925C59.4081 189.879 60.2557 189.032 61.3012 189.032H64.9759V194.6Z" fill="black"/>
<path d="M70.3767 189.031H64.8089V194.599H70.3767V189.031Z" fill="black"/>
<path d="M75.7774 189.031H70.2096V194.599H75.7774V189.031Z" fill="black"/>
<path d="M81.1781 189.031H75.6104V194.599H81.1781V189.031Z" fill="black"/>
<path d="M86.5789 189.031H81.0111V194.599H86.5789V189.031Z" fill="black"/>
<path d="M91.9796 189.031H86.4118V194.599H91.9796V189.031Z" fill="black"/>
<path d="M97.3804 189.031H91.8126V194.599H97.3804V189.031Z" fill="black"/>
<path d="M102.781 189.031H97.2133V194.599H102.781V189.031Z" fill="black"/>
<path d="M145.987 189.031V192.706C145.987 193.751 145.139 194.599 144.094 194.599H142.312C141.267 194.599 140.419 193.751 140.419 192.706V189.031H145.987Z" fill="black"/>
<path d="M162.189 194.6H158.515C157.469 194.6 156.621 193.752 156.621 192.707V190.925C156.621 189.879 157.469 189.032 158.515 189.032H162.189V194.6Z" fill="black"/>
<path d="M167.59 189.031H162.022V194.599H167.59V189.031Z" fill="black"/>
<path d="M172.991 189.031H167.423V194.599H172.991V189.031Z" fill="black"/>
<path d="M178.391 189.031H172.824V194.599H178.391V189.031Z" fill="black"/>
<path d="M183.792 189.031H178.224V194.599H183.792V189.031Z" fill="black"/>
<path d="M189.193 189.031H183.625V194.599H189.193V189.031Z" fill="black"/>
<path d="M194.594 189.031H189.026V194.599H194.594V189.031Z" fill="black"/>
<path d="M199.994 189.031H194.427V194.599H199.994V189.031Z" fill="black"/>
<path d="M59.5752 200H55.9005C54.855 200 54.0074 199.153 54.0074 198.107V196.325C54.0074 195.28 54.855 194.432 55.9005 194.432H59.5752V200Z" fill="black"/>
<path d="M59.4081 194.433H64.9759V198.107C64.9759 199.153 64.1284 200.001 63.0829 200.001H59.4081V194.433Z" fill="black"/>
<path d="M75.7774 194.433V198.107C75.7774 199.153 74.9299 200.001 73.8844 200.001H72.1027C71.0572 200.001 70.2096 199.153 70.2096 198.107V194.433H75.7774Z" fill="black"/>
<path d="M91.9796 194.433V198.107C91.9796 199.153 91.1321 200.001 90.0866 200.001H88.3049C87.2594 200.001 86.4119 199.153 86.4119 198.107V194.433H91.9796Z" fill="black"/>
<path d="M102.781 194.433V200.001H99.1064C98.0609 200.001 97.2133 199.153 97.2133 198.107V194.433H102.781Z" fill="black"/>
<path d="M102.614 200V194.432H106.289C107.334 194.432 108.182 195.28 108.182 196.325V200H102.614Z" fill="black"/>
<path d="M129.618 196.025V198.414C129.618 199.293 130.33 200.001 131.21 200.001H133.599C134.484 200.001 135.191 199.288 135.191 198.408V196.025C135.186 195.14 134.473 194.433 133.593 194.433H131.21C130.33 194.433 129.618 195.145 129.618 196.025Z" fill="black"/>
<path d="M151.221 196.025V198.414C151.221 199.293 151.933 200.001 152.813 200.001H155.202C156.087 200.001 156.794 199.288 156.794 198.408V196.025C156.789 195.14 156.076 194.433 155.196 194.433H152.813C151.933 194.433 151.221 195.145 151.221 196.025Z" fill="black"/>
<path d="M199.994 194.433V198.107C199.994 199.153 199.147 200.001 198.101 200.001H196.32C195.274 200.001 194.427 199.153 194.427 198.107V194.433H199.994Z" fill="black"/>
<path fill-rule="evenodd" clip-rule="evenodd" d="M33.4067 25.464V13.5113C33.4067 8.20583 32.685 6.91131 32.3746 6.60021C32.0635 6.2898 30.7691 5.56807 25.4631 5.56807H13.5114C8.20536 5.56807 6.91088 6.2898 6.60048 6.60021C6.29008 6.91131 5.56767 8.20583 5.56767 13.5113V25.464C5.56767 30.7702 6.29008 32.0647 6.60048 32.3758C6.91088 32.6855 8.20536 33.4079 13.5114 33.4079H25.4631C30.7691 33.4079 32.0635 32.6855 32.3746 32.3758C32.685 32.0647 33.4067 30.7702 33.4067 25.464ZM25.4631 0.000244141C36.3764 0.000244141 38.9744 2.59833 38.9744 13.5113C38.9744 24.4249 38.9744 14.5511 38.9744 25.464C38.9744 36.3777 36.3764 38.9757 25.4631 38.9757C14.5504 38.9757 24.424 38.9757 13.5114 38.9757C2.59802 38.9757 0 36.3777 0 25.464C0 14.5511 0 19.606 0 13.5113C0 2.59833 2.59802 0.000244141 13.5114 0.000244141C24.424 0.000244141 14.5504 0.000244141 25.4631 0.000244141ZM22.0482 11.1361C26.7255 11.1361 27.8389 12.2502 27.8389 16.9262C27.8389 21.6037 27.8389 17.3723 27.8389 22.0491C27.8389 26.7258 26.7255 27.8399 22.0482 27.8399C17.3715 27.8399 21.6029 27.8399 16.9262 27.8399C12.2496 27.8399 11.1355 26.7258 11.1355 22.0491C11.1355 17.3723 11.1355 19.5384 11.1355 16.9262C11.1355 12.2502 12.2496 11.1361 16.9262 11.1361C21.6029 11.1361 17.3715 11.1361 22.0482 11.1361Z" fill="black"/>
<path fill-rule="evenodd" clip-rule="evenodd" d="M193.759 25.464V13.5113C193.759 8.20583 193.037 6.91131 192.726 6.60021C192.415 6.2898 191.121 5.56807 185.815 5.56807H173.863C168.557 5.56807 167.263 6.2898 166.952 6.60021C166.642 6.91131 165.92 8.20583 165.92 13.5113V25.464C165.92 30.7702 166.642 32.0647 166.952 32.3758C167.263 32.6855 168.557 33.4079 173.863 33.4079H185.815C191.121 33.4079 192.415 32.6855 192.726 32.3758C193.037 32.0647 193.759 30.7702 193.759 25.464ZM185.815 0.000244141C196.728 0.000244141 199.326 2.59833 199.326 13.5113C199.326 24.4249 199.326 14.5511 199.326 25.464C199.326 36.3777 196.728 38.9757 185.815 38.9757C174.902 38.9757 184.776 38.9757 173.863 38.9757C162.95 38.9757 160.352 36.3777 160.352 25.464C160.352 14.5511 160.352 19.606 160.352 13.5113C160.352 2.59833 162.95 0.000244141 173.863 0.000244141C184.776 0.000244141 174.902 0.000244141 185.815 0.000244141ZM182.4 11.1361C187.077 11.1361 188.191 12.2502 188.191 16.9262C188.191 21.6037 188.191 17.3723 188.191 22.0491C188.191 26.7258 187.077 27.8399 182.4 27.8399C177.723 27.8399 181.955 27.8399 177.278 27.8399C172.601 27.8399 171.487 26.7258 171.487 22.0491C171.487 17.3723 171.487 19.5384 171.487 16.9262C171.487 12.2502 172.601 11.1361 177.278 11.1361C181.955 11.1361 177.723 11.1361 182.4 11.1361Z" fill="black"/>
<path fill-rule="evenodd" clip-rule="evenodd" d="M33.4067 185.82V173.868C33.4067 168.562 32.685 167.268 32.3746 166.957C32.0635 166.646 30.7691 165.925 25.4631 165.925H13.5114C8.20536 165.925 6.91088 166.646 6.60048 166.957C6.29008 167.268 5.56767 168.562 5.56767 173.868V185.82C5.56767 191.127 6.29008 192.421 6.60048 192.732C6.91088 193.042 8.20536 193.764 13.5114 193.764H25.4631C30.7691 193.764 32.0635 193.042 32.3746 192.732C32.685 192.421 33.4067 191.127 33.4067 185.82ZM25.4631 160.357C36.3764 160.357 38.9744 162.955 38.9744 173.868C38.9744 184.781 38.9744 174.908 38.9744 185.82C38.9744 196.734 36.3764 199.332 25.4631 199.332C14.5504 199.332 24.424 199.332 13.5114 199.332C2.59802 199.332 0 196.734 0 185.82C0 174.908 0 179.962 0 173.868C0 162.955 2.59802 160.357 13.5114 160.357C24.424 160.357 14.5504 160.357 25.4631 160.357ZM22.0482 171.493C26.7255 171.493 27.8389 172.607 27.8389 177.283C27.8389 181.96 27.8389 177.729 27.8389 182.406C27.8389 187.082 26.7255 188.196 22.0482 188.196C17.3715 188.196 21.6029 188.196 16.9262 188.196C12.2496 188.196 11.1355 187.082 11.1355 182.406C11.1355 177.729 11.1355 179.895 11.1355 177.283C11.1355 172.607 12.2496 171.493 16.9262 171.493C21.6029 171.493 17.3715 171.493 22.0482 171.493Z" fill="black"/>
</svg>
